<svg width="181" height="48" viewBox="0 0 181 48" fill="none" xmlns="http://www.w3.org/2000/svg">
<path fill-rule="evenodd" clip-rule="evenodd" d="M179.832 26.8334V48H179.476C169.544 35.6373 157.306 20.0437 155.234 17.0933H155.141V31.6095C155.141 45.0961 155.45 47.2974 155.752 47.2974V47.4851H151.757V47.2974C152.075 47.2974 152.665 45.0961 152.665 31.6095V10.35H153.023C162.955 22.7128 175.194 38.3063 177.265 41.2567H177.359V26.8334C177.359 13.3468 177.065 11.1461 176.746 11.1461V10.9592H180.741V11.1461C180.424 11.1461 179.832 13.3468 179.832 26.8334H179.832ZM131.03 47.4845V47.2974C131.51 47.0722 130.916 45.1433 126.963 35.1715C126.963 35.1715 120.468 18.2701 119.904 16.4908H119.86C119.248 18.2701 112.423 35.1715 112.423 35.1715C108.376 45.1433 107.641 47.0475 108.14 47.2974V47.4845H104.106V47.2974C105.104 47.2974 119.739 10.3575 119.739 10.3575H120.217C120.217 10.3575 134.191 47.2974 135.188 47.2974V47.4845H131.03ZM83.5458 47.4845V47.2974C84.5212 47.2974 81.5694 21.2197 81.4286 18.2229H81.3348C79.923 21.9687 77.8982 26.2755 75.357 31.5663C73.5687 35.2648 71.1215 41.0243 68.0156 47.4845H67.1685C64.0626 41.0243 61.6155 35.2648 59.8272 31.5663C57.286 26.2755 55.2611 21.9687 53.8494 18.2229H53.7562C53.6145 21.2197 50.6627 47.2974 51.6389 47.2974V47.4845H47.65V47.2974C48.9619 47.2974 52.3169 10.3575 52.3169 10.3575H52.6733C66.0391 37.9812 66.2739 39.7133 67.545 42.5685H67.6389C68.9099 39.7133 69.1447 37.9812 82.5106 10.3575H82.867C82.867 10.3575 86.222 47.2974 87.5338 47.2974V47.4845H83.5458ZM26.9241 47.4845V47.2974C27.4032 47.0722 26.8101 45.1433 22.8569 35.1715C22.8569 35.1715 16.3627 18.2701 15.7971 16.4908H15.753C15.141 18.2701 8.31673 35.1715 8.31673 35.1715C4.26961 45.1433 3.53412 47.0475 4.03391 47.2974V47.4845H0V47.2974C0.997866 47.2974 15.6314 10.3575 15.6314 10.3575H16.1093C16.1093 10.3575 30.084 47.2974 31.0819 47.2974V47.4845H26.9241ZM10.239 0H21.4868V2.44313H10.239V0Z" fill="white"/>
</svg>
