<svg width="184" height="44" viewBox="0 0 184 44" fill="none" xmlns="http://www.w3.org/2000/svg">
<path d="M162.942 3.2848H166.171V31.543L146.795 1.78299H137.803V3.28629H141.033V41.1754H135.535L121.517 0.00149011L106.985 41.1754H101.669V3.28629H104.897V1.78299H96.3644L85.6326 32.8642L74.3858 1.78299H66.02V3.28629H69.25V41.1754H62.8476C61.0662 41.1192 59.5066 39.5596 59.5066 36.846V30.846C59.5066 26.2947 58.0018 22.4254 53.3957 21.1574C57.4322 19.947 60.202 16.0763 60.202 11.9851C60.202 6.22189 55.8726 1.7815 47.452 1.7815H34.7582V3.2848H38.043V41.1739H31.6125L17.5944 0L3.06286 41.1739H0V42.6772H7.90571V41.1739H4.73188L8.76982 29.7585H21.9238L25.7931 41.1739H21.0612V42.6772H48.3161V41.1739H43.3593V21.909H46.7003C51.5432 21.909 54.0216 23.8725 54.0216 28.6044V32.1259C54.0216 40.4356 59.5066 42.6772 62.4984 42.6772H73.9124V41.1739H70.6823V7.61277L83.8925 43.1359L96.4058 6.51338V41.1739H93.1758V42.6772H111.815V41.1739H108.641L112.677 29.7585H125.833L129.702 41.1739H124.969V42.6772H145.696V41.1739H142.465V5.35777L167.605 44V3.28335H175.371V41.1724H172.141V42.6757H183.848V41.1724H180.618V3.28335H183.848V1.78001H162.926V3.28335H162.942V3.2848ZM9.29804 28.2567L15.4637 10.3279L21.4636 28.2567H9.29804ZM46.7003 20.419H43.3593V3.28335H46.1292C51.0298 3.28335 54.3145 6.40092 54.3145 12.2203C54.3145 15.4504 51.7799 20.419 46.7003 20.419ZM113.209 28.2567L119.374 10.3279L125.374 28.2567H113.209Z" fill="white"/>
</svg>
