<svg width="210" height="20" viewBox="0 0 210 20" fill="none" xmlns="http://www.w3.org/2000/svg">
<path fill-rule="evenodd" clip-rule="evenodd" d="M164.713 1.95842V9.76222L169.737 9.7658C173.711 9.7658 175.581 8.28175 175.581 5.81789C175.581 3.39706 173.762 1.95842 169.637 1.95842H164.713ZM173.111 10.852C175.45 11.0467 176.01 11.6657 176.918 13.0744L178.848 16.585C179.854 18.0344 180.704 18.8135 182.678 18.8135V19.3452H180.261C179.166 19.3452 177.068 19.4802 175.899 18.0464L173.377 13.8894C172.495 12.6622 172.226 11.6693 169.29 11.6693H164.714L164.719 17.2721C164.719 18.265 165.155 18.6414 165.963 18.6414H166.401V19.3452H159.697V18.6414H160.135C160.943 18.6414 161.377 18.265 161.377 17.2721V2.49492C161.377 1.50077 160.943 1.122 160.135 1.122H159.697V0.419402H170.877C177.368 0.419402 179.18 3.07683 179.18 5.63149C179.179 8.53029 176.89 10.2282 173.111 10.852ZM200.638 2.49731C200.638 1.50197 201.072 1.12558 201.882 1.12558H202.323V0.422985H195.611V1.12558H196.05C196.857 1.12558 197.294 1.50197 197.294 2.49731V17.2721C197.294 18.265 196.857 18.6414 196.05 18.6414H195.611V19.3452H202.323V18.6414H201.882C201.072 18.6414 200.638 18.265 200.638 17.2721V2.49731ZM1.68359 17.2721C1.68359 18.265 1.24746 18.6414 0.439718 18.6414H0V19.3452H13.2561C18.5434 19.3452 21.5701 17.6293 21.5701 14.0017C21.5701 11.2821 19.8554 9.64512 15.5957 9.12415C17.6532 8.58645 19.479 7.15737 19.479 4.94444C19.479 1.729 16.2684 0.419402 12.0086 0.419402H0V1.122H0.439718C1.24746 1.122 1.68359 1.50077 1.68359 2.49492V17.2721ZM5.02569 2.0779H10.5962C14.7652 2.0779 16.1668 2.98243 16.1668 4.96953C16.1668 6.98052 14.9492 8.51714 10.4015 8.51714L5.00538 8.51595L5.02569 2.0779ZM11.956 10.3083C16.113 10.3083 17.8468 12.0074 17.8468 14.0531C17.8468 15.9553 16.5826 17.2326 11.8557 17.2326H5.02569V10.3083H11.956ZM71.3001 0.419402V1.122H70.8615C70.0538 1.122 69.6188 1.50077 69.6188 2.49492L69.6212 17.2482L79.1923 17.2494C79.9038 17.2265 80.5986 17.0283 81.2152 16.6725C81.8317 16.3167 82.3509 15.8143 82.7267 15.2097L83.3839 15.457L81.4303 19.3536L64.6111 19.344V18.6402H65.0508C65.8585 18.6402 66.2947 18.2638 66.2947 17.2709V2.49492C66.2947 1.50077 65.8585 1.122 65.0508 1.122H64.6111V0.419402H71.3001ZM53.8404 0.421791V1.12439H53.4007C52.4173 1.12439 52.3049 1.63819 51.8736 2.43876L43.2083 19.3452H40.4302L31.6669 2.44235C31.2343 1.64297 31.1196 1.1232 30.1338 1.1232H29.6965V0.420597L36.64 0.418208V1.1208H36.2039C35.2778 1.1208 34.9182 1.7541 35.3435 2.60007L42.4388 16.2612L49.4336 2.60007C49.859 1.7541 49.5041 1.1208 48.5781 1.1208H48.1408V0.418208L53.8404 0.421791ZM116.543 10.3465V11.0479H115.773C114.965 11.0479 114.531 11.4255 114.531 12.4208L114.533 15.9278C113.35 17.8958 109.577 20 103.814 20C95.647 20 90.4433 15.4857 90.4433 9.91756C90.4433 5.31844 95.34 0 103.684 0C108.394 0 111.834 1.64416 112.794 2.27745C112.794 2.34795 113.807 6.4954 113.805 6.50496C113.805 6.51452 113.085 6.77381 113.083 6.77381C113.078 6.7762 110.901 1.57725 104.087 1.55336C98.2113 1.53304 94.2048 5.78205 94.2048 9.9283C94.2048 14.5035 98.1539 18.2698 104.087 18.2483C107.794 18.234 111.305 16.3174 111.295 14.9265L111.302 12.4208C111.302 11.4255 110.871 11.0479 110.061 11.0479H109.293V10.3465H116.543ZM140.59 12.1472L136.004 3.27518L135.997 3.28832L131.556 12.1472H140.59ZM148.964 18.6414V19.3452H141.954V18.6414H142.392C143.316 18.6414 143.673 18.0129 143.244 17.1693L141.606 14.255H130.458L128.94 17.1693C128.514 18.0129 128.866 18.6414 129.792 18.6414H130.228L130.226 19.3452H124.418V18.6414H124.854C125.544 18.6414 125.867 18.3905 126.264 17.6509L135.338 0.437325H137.889L146.924 17.3103C146.995 17.4322 147.057 17.5445 147.12 17.6497C147.515 18.3893 147.835 18.6414 148.523 18.6414H148.964ZM206.711 0.267653H206.596C206.572 0.315449 206.528 0.322615 206.498 0.322615C206.432 0.322615 206.393 0.278409 206.283 0.230614C206.186 0.190295 206.082 0.17075 205.977 0.173254C205.886 0.171668 205.795 0.188242 205.711 0.221999C205.626 0.255756 205.549 0.306018 205.484 0.369865C205.419 0.433712 205.368 0.509859 205.332 0.59386C205.297 0.677862 205.279 0.768042 205.279 0.859125C205.279 1.36098 205.771 1.52826 205.998 1.6119C206.236 1.70032 206.491 1.7744 206.491 2.01219C206.491 2.19142 206.341 2.44235 205.977 2.44235C205.835 2.43484 205.698 2.38927 205.58 2.31042C205.461 2.23158 205.367 2.12237 205.305 1.99426H205.175L205.212 2.58812H205.317L205.32 2.57737C205.332 2.54988 205.366 2.51284 205.43 2.51284C205.483 2.51284 205.542 2.53077 205.623 2.55347C205.724 2.58334 205.849 2.62158 206.027 2.62158C206.536 2.62158 206.872 2.26908 206.872 1.85087C206.872 1.34902 206.461 1.20325 206.013 1.03955C205.915 1.0061 205.623 0.910505 205.623 0.676308C205.623 0.523362 205.731 0.350101 205.992 0.350101C206.2 0.350101 206.487 0.43852 206.58 0.818494H206.711V0.267653ZM207.159 0.210303V0.332178C207.28 0.332178 207.35 0.433746 207.35 0.610589V2.23563C207.35 2.27626 207.35 2.46266 207.159 2.46266V2.58573H207.726V2.46266C207.647 2.46266 207.537 2.42562 207.537 2.23922V0.481539H207.549L208.318 2.58573H208.555L209.3 0.536501H209.325V2.27387C209.325 2.32166 209.318 2.44354 209.154 2.46266V2.58573H209.999V2.46266C209.955 2.45668 209.833 2.42562 209.833 2.27387V0.525753C209.833 0.488711 209.835 0.356076 209.999 0.332178V0.210303H209.227L208.608 1.90346H208.594L207.977 0.210303H207.159Z" fill="white"/>
</svg>
