<svg width="512" height="302" viewBox="0 0 512 302" fill="none" xmlns="http://www.w3.org/2000/svg">
<g opacity="0.2">
<path d="M255.501 810.751C400.338 810.751 517.751 693.337 517.751 548.5C517.751 403.663 400.338 286.25 255.501 286.25C110.664 286.25 -6.75 403.663 -6.75 548.5C-6.75 693.337 110.664 810.751 255.501 810.751Z" stroke="#1F486D" stroke-miterlimit="10"/>
<path d="M255.502 827.489C409.583 827.489 534.491 702.581 534.491 548.5C534.491 394.419 409.583 269.511 255.502 269.511C101.421 269.511 -23.4863 394.419 -23.4863 548.5C-23.4863 702.581 101.421 827.489 255.502 827.489Z" stroke="#1F486D" stroke-miterlimit="10"/>
<path d="M255.501 844.291C418.862 844.291 551.292 711.861 551.292 548.5C551.292 385.139 418.862 252.709 255.501 252.709C92.1409 252.709 -40.2891 385.139 -40.2891 548.5C-40.2891 711.861 92.1409 844.291 255.501 844.291Z" stroke="#1F486D" stroke-miterlimit="10"/>
<path d="M255.501 861.092C428.141 861.092 568.093 721.14 568.093 548.5C568.093 375.86 428.141 235.907 255.501 235.907C82.8606 235.907 -57.0918 375.86 -57.0918 548.5C-57.0918 721.14 82.8606 861.092 255.501 861.092Z" stroke="#1F486D" stroke-miterlimit="10"/>
<path d="M255.498 877.83C437.383 877.83 584.829 730.384 584.829 548.5C584.829 366.616 437.383 219.169 255.498 219.169C73.6143 219.169 -73.832 366.616 -73.832 548.5C-73.832 730.384 73.6143 877.83 255.498 877.83Z" stroke="#1F486D" stroke-miterlimit="10"/>
<path d="M255.498 894.632C446.661 894.632 601.63 739.663 601.63 548.5C601.63 357.336 446.661 202.367 255.498 202.367C64.334 202.367 -90.6348 357.336 -90.6348 548.5C-90.6348 739.663 64.334 894.632 255.498 894.632Z" stroke="#1F486D" stroke-miterlimit="10"/>
<path d="M255.501 911.434C455.944 911.434 618.435 748.943 618.435 548.5C618.435 348.057 455.944 185.566 255.501 185.566C55.0576 185.566 -107.434 348.057 -107.434 548.5C-107.434 748.943 55.0576 911.434 255.501 911.434Z" stroke="#1F486D" stroke-miterlimit="10"/>
<path d="M255.499 928.172C465.186 928.172 635.171 758.187 635.171 548.5C635.171 338.813 465.186 168.828 255.499 168.828C45.8113 168.828 -124.174 338.813 -124.174 548.5C-124.174 758.187 45.8113 928.172 255.499 928.172Z" stroke="#1F486D" stroke-miterlimit="10"/>
<path d="M255.498 944.974C474.464 944.974 651.972 767.467 651.972 548.5C651.972 329.533 474.464 152.026 255.498 152.026C36.531 152.026 -140.977 329.533 -140.977 548.5C-140.977 767.467 36.531 944.974 255.498 944.974Z" stroke="#1F486D" stroke-miterlimit="10"/>
<path d="M255.503 961.776C483.749 961.776 668.779 776.746 668.779 548.5C668.779 320.254 483.749 135.224 255.503 135.224C27.2566 135.224 -157.773 320.254 -157.773 548.5C-157.773 776.746 27.2566 961.776 255.503 961.776Z" stroke="#1F486D" stroke-miterlimit="10"/>
<path d="M255.499 978.514C492.989 978.514 685.513 785.99 685.513 548.5C685.513 311.01 492.989 118.486 255.499 118.486C18.0083 118.486 -174.516 311.01 -174.516 548.5C-174.516 785.99 18.0083 978.514 255.499 978.514Z" stroke="#1F486D" stroke-miterlimit="10"/>
<path d="M255.5 995.316C502.27 995.316 702.316 795.27 702.316 548.5C702.316 301.73 502.27 101.684 255.5 101.684C8.73006 101.684 -191.316 301.73 -191.316 548.5C-191.316 795.27 8.73006 995.316 255.5 995.316Z" stroke="#1F486D" stroke-miterlimit="10"/>
<path d="M255.499 1012.12C511.548 1012.12 719.117 804.549 719.117 548.5C719.117 292.451 511.548 84.8818 255.499 84.8818C-0.550217 84.8818 -208.119 292.451 -208.119 548.5C-208.119 804.549 -0.550217 1012.12 255.499 1012.12Z" stroke="#1F486D" stroke-miterlimit="10"/>
<path d="M255.501 1028.86C520.794 1028.86 735.857 813.793 735.857 548.5C735.857 283.207 520.794 68.1438 255.501 68.1438C-9.79266 68.1438 -224.855 283.207 -224.855 548.5C-224.855 813.793 -9.79266 1028.86 255.501 1028.86Z" stroke="#1F486D" stroke-miterlimit="10"/>
<path d="M255.5 1045.66C530.073 1045.66 752.658 823.073 752.658 548.5C752.658 273.927 530.073 51.342 255.5 51.342C-19.0729 51.342 -241.658 273.927 -241.658 548.5C-241.658 823.073 -19.0729 1045.66 255.5 1045.66Z" stroke="#1F486D" stroke-miterlimit="10"/>
<path d="M255.499 1062.46C539.351 1062.46 769.459 832.352 769.459 548.5C769.459 264.648 539.351 34.54 255.499 34.54C-28.3532 34.54 -258.461 264.648 -258.461 548.5C-258.461 832.352 -28.3532 1062.46 255.499 1062.46Z" stroke="#1F486D" stroke-miterlimit="10"/>
<path d="M255.498 1079.26C548.63 1079.26 786.26 841.632 786.26 548.5C786.26 255.368 548.63 17.738 255.498 17.738C-37.6335 17.738 -275.264 255.368 -275.264 548.5C-275.264 841.632 -37.6335 1079.26 255.498 1079.26Z" stroke="#1F486D" stroke-miterlimit="10"/>
<path d="M255.5 1096C557.876 1096 803 850.876 803 548.5C803 246.124 557.876 1 255.5 1C-46.8759 1 -292 246.124 -292 548.5C-292 850.876 -46.8759 1096 255.5 1096Z" stroke="#1F486D" stroke-miterlimit="10"/>
</g>
</svg>
