<svg width="380" height="302" viewBox="0 0 380 302" fill="none" xmlns="http://www.w3.org/2000/svg">
<path opacity="0.2" fill-rule="evenodd" clip-rule="evenodd" d="M357.104 644.262C357.104 641.468 355.013 639.205 352.435 639.205C349.856 639.205 347.765 641.468 347.765 644.262C347.765 647.055 349.856 649.319 352.435 649.319C355.013 649.319 357.104 647.055 357.104 644.262ZM310.77 644.262C310.77 641.468 308.681 639.205 306.101 639.205C303.523 639.205 301.432 641.468 301.432 644.262C301.432 647.055 303.523 649.319 306.101 649.319C308.681 649.319 310.77 647.055 310.77 644.262ZM264.438 644.262C264.438 641.468 262.348 639.205 259.769 639.205C257.191 639.205 255.1 641.468 255.1 644.262C255.1 647.055 257.191 649.319 259.769 649.319C262.348 649.319 264.438 647.055 264.438 644.262ZM218.105 644.262C218.105 641.468 216.015 639.205 213.436 639.205C210.858 639.205 208.767 641.468 208.767 644.262C208.767 647.055 210.858 649.319 213.436 649.319C216.015 649.319 218.105 647.055 218.105 644.262ZM171.773 644.262C171.773 641.468 169.683 639.205 167.104 639.205C164.524 639.205 162.435 641.468 162.435 644.262C162.435 647.055 164.524 649.319 167.104 649.319C169.683 649.319 171.773 647.055 171.773 644.262ZM125.44 644.262C125.44 641.468 123.349 639.205 120.771 639.205C118.193 639.205 116.102 641.468 116.102 644.262C116.102 647.055 118.193 649.319 120.771 649.319C123.349 649.319 125.44 647.055 125.44 644.262ZM79.1068 644.262C79.1068 641.468 77.0161 639.205 74.4377 639.205C71.8593 639.205 69.7686 641.468 69.7686 644.262C69.7686 647.055 71.8593 649.319 74.4377 649.319C77.0161 649.319 79.1068 647.055 79.1068 644.262ZM32.7749 644.262C32.7749 641.468 30.6842 639.205 28.1058 639.205C25.5274 639.205 23.4368 641.468 23.4368 644.262C23.4368 647.055 25.5274 649.319 28.1058 649.319C30.6842 649.319 32.7749 647.055 32.7749 644.262ZM357.104 593.194C357.104 590.401 355.013 588.137 352.435 588.137C349.856 588.137 347.765 590.401 347.765 593.194C347.765 595.988 349.856 598.252 352.435 598.252C355.013 598.252 357.104 595.988 357.104 593.194ZM310.77 593.194C310.77 590.401 308.681 588.137 306.101 588.137C303.523 588.137 301.432 590.401 301.432 593.194C301.432 595.988 303.523 598.252 306.101 598.252C308.681 598.252 310.77 595.988 310.77 593.194ZM264.438 593.194C264.438 590.401 262.348 588.137 259.769 588.137C257.191 588.137 255.1 590.401 255.1 593.194C255.1 595.988 257.191 598.252 259.769 598.252C262.348 598.252 264.438 595.988 264.438 593.194ZM218.105 593.194C218.105 590.401 216.015 588.137 213.436 588.137C210.858 588.137 208.767 590.401 208.767 593.194C208.767 595.988 210.858 598.252 213.436 598.252C216.015 598.252 218.105 595.988 218.105 593.194ZM171.773 593.194C171.773 590.401 169.683 588.137 167.104 588.137C164.524 588.137 162.435 590.401 162.435 593.194C162.435 595.988 164.524 598.252 167.104 598.252C169.683 598.252 171.773 595.988 171.773 593.194ZM125.44 593.194C125.44 590.401 123.349 588.137 120.771 588.137C118.193 588.137 116.102 590.401 116.102 593.194C116.102 595.988 118.193 598.252 120.771 598.252C123.349 598.252 125.44 595.988 125.44 593.194ZM79.1068 593.194C79.1068 590.401 77.0161 588.137 74.4377 588.137C71.8593 588.137 69.7686 590.401 69.7686 593.194C69.7686 595.988 71.8593 598.252 74.4377 598.252C77.0161 598.252 79.1068 595.988 79.1068 593.194ZM32.7749 593.194C32.7749 590.401 30.6842 588.137 28.1058 588.137C25.5274 588.137 23.4368 590.401 23.4368 593.194C23.4368 595.988 25.5274 598.252 28.1058 598.252C30.6842 598.252 32.7749 595.988 32.7749 593.194ZM357.104 542.125C357.104 539.332 355.013 537.068 352.435 537.068C349.856 537.068 347.765 539.332 347.765 542.125C347.765 544.919 349.856 547.182 352.435 547.182C355.013 547.182 357.104 544.919 357.104 542.125ZM310.77 542.125C310.77 539.332 308.681 537.068 306.101 537.068C303.523 537.068 301.432 539.332 301.432 542.125C301.432 544.919 303.523 547.182 306.101 547.182C308.681 547.182 310.77 544.919 310.77 542.125ZM264.438 542.125C264.438 539.332 262.348 537.068 259.769 537.068C257.191 537.068 255.1 539.332 255.1 542.125C255.1 544.919 257.191 547.182 259.769 547.182C262.348 547.182 264.438 544.919 264.438 542.125ZM218.105 542.125C218.105 539.332 216.015 537.068 213.436 537.068C210.858 537.068 208.767 539.332 208.767 542.125C208.767 544.919 210.858 547.182 213.436 547.182C216.015 547.182 218.105 544.919 218.105 542.125ZM171.773 542.125C171.773 539.332 169.683 537.068 167.104 537.068C164.524 537.068 162.435 539.332 162.435 542.125C162.435 544.919 164.524 547.182 167.104 547.182C169.683 547.182 171.773 544.919 171.773 542.125ZM125.44 542.125C125.44 539.332 123.349 537.068 120.771 537.068C118.193 537.068 116.102 539.332 116.102 542.125C116.102 544.919 118.193 547.182 120.771 547.182C123.349 547.182 125.44 544.919 125.44 542.125ZM79.1068 542.125C79.1068 539.332 77.0161 537.068 74.4377 537.068C71.8593 537.068 69.7686 539.332 69.7686 542.125C69.7686 544.919 71.8593 547.182 74.4377 547.182C77.0161 547.182 79.1068 544.919 79.1068 542.125ZM32.7749 542.125C32.7749 539.332 30.6842 537.068 28.1058 537.068C25.5274 537.068 23.4368 539.332 23.4368 542.125C23.4368 544.919 25.5274 547.182 28.1058 547.182C30.6842 547.182 32.7749 544.919 32.7749 542.125ZM357.104 491.057C357.104 488.264 355.013 486 352.435 486C349.856 486 347.765 488.264 347.765 491.057C347.765 493.851 349.856 496.115 352.435 496.115C355.013 496.115 357.104 493.851 357.104 491.057ZM310.77 491.057C310.77 488.264 308.681 486 306.101 486C303.523 486 301.432 488.264 301.432 491.057C301.432 493.851 303.523 496.115 306.101 496.115C308.681 496.115 310.77 493.851 310.77 491.057ZM264.438 491.057C264.438 488.264 262.348 486 259.769 486C257.191 486 255.1 488.264 255.1 491.057C255.1 493.851 257.191 496.115 259.769 496.115C262.348 496.115 264.438 493.851 264.438 491.057ZM218.105 491.057C218.105 488.264 216.015 486 213.436 486C210.858 486 208.767 488.264 208.767 491.057C208.767 493.851 210.858 496.115 213.436 496.115C216.015 496.115 218.105 493.851 218.105 491.057ZM171.773 491.057C171.773 488.264 169.683 486 167.104 486C164.524 486 162.435 488.264 162.435 491.057C162.435 493.851 164.524 496.115 167.104 496.115C169.683 496.115 171.773 493.851 171.773 491.057ZM125.44 491.057C125.44 488.264 123.349 486 120.771 486C118.193 486 116.102 488.264 116.102 491.057C116.102 493.851 118.193 496.115 120.771 496.115C123.349 496.115 125.44 493.851 125.44 491.057ZM79.1068 491.057C79.1068 488.264 77.0161 486 74.4377 486C71.8593 486 69.7686 488.264 69.7686 491.057C69.7686 493.851 71.8593 496.115 74.4377 496.115C77.0161 496.115 79.1068 493.851 79.1068 491.057ZM32.7749 491.057C32.7749 488.264 30.6842 486 28.1058 486C25.5274 486 23.4368 488.264 23.4368 491.057C23.4368 493.851 25.5274 496.115 28.1058 496.115C30.6842 496.115 32.7749 493.851 32.7749 491.057ZM357.104 439.99C357.104 437.196 355.013 434.931 352.435 434.931C349.856 434.931 347.765 437.196 347.765 439.99C347.765 442.783 349.856 445.047 352.435 445.047C355.013 445.047 357.104 442.783 357.104 439.99ZM310.77 439.99C310.77 437.196 308.681 434.931 306.101 434.931C303.523 434.931 301.432 437.196 301.432 439.99C301.432 442.783 303.523 445.047 306.101 445.047C308.681 445.047 310.77 442.783 310.77 439.99ZM264.438 439.99C264.438 437.196 262.348 434.931 259.769 434.931C257.191 434.931 255.1 437.196 255.1 439.99C255.1 442.783 257.191 445.047 259.769 445.047C262.348 445.047 264.438 442.783 264.438 439.99ZM218.105 439.99C218.105 437.196 216.015 434.931 213.436 434.931C210.858 434.931 208.767 437.196 208.767 439.99C208.767 442.783 210.858 445.047 213.436 445.047C216.015 445.047 218.105 442.783 218.105 439.99ZM171.773 439.99C171.773 437.196 169.683 434.931 167.104 434.931C164.524 434.931 162.435 437.196 162.435 439.99C162.435 442.783 164.524 445.047 167.104 445.047C169.683 445.047 171.773 442.783 171.773 439.99ZM125.44 439.99C125.44 437.196 123.349 434.931 120.771 434.931C118.193 434.931 116.102 437.196 116.102 439.99C116.102 442.783 118.193 445.047 120.771 445.047C123.349 445.047 125.44 442.783 125.44 439.99ZM79.1068 439.99C79.1068 437.196 77.0161 434.931 74.4377 434.931C71.8593 434.931 69.7686 437.196 69.7686 439.99C69.7686 442.783 71.8593 445.047 74.4377 445.047C77.0161 445.047 79.1068 442.783 79.1068 439.99ZM32.7749 439.99C32.7749 437.196 30.6842 434.931 28.1058 434.931C25.5274 434.931 23.4368 437.196 23.4368 439.99C23.4368 442.783 25.5274 445.047 28.1058 445.047C30.6842 445.047 32.7749 442.783 32.7749 439.99ZM357.104 388.921C357.104 386.127 355.013 383.863 352.435 383.863C349.856 383.863 347.765 386.127 347.765 388.921C347.765 391.714 349.856 393.978 352.435 393.978C355.013 393.978 357.104 391.714 357.104 388.921ZM310.77 388.921C310.77 386.127 308.681 383.863 306.101 383.863C303.523 383.863 301.432 386.127 301.432 388.921C301.432 391.714 303.523 393.978 306.101 393.978C308.681 393.978 310.77 391.714 310.77 388.921ZM264.438 388.921C264.438 386.127 262.348 383.863 259.769 383.863C257.191 383.863 255.1 386.127 255.1 388.921C255.1 391.714 257.191 393.978 259.769 393.978C262.348 393.978 264.438 391.714 264.438 388.921ZM218.105 388.921C218.105 386.127 216.015 383.863 213.436 383.863C210.858 383.863 208.767 386.127 208.767 388.921C208.767 391.714 210.858 393.978 213.436 393.978C216.015 393.978 218.105 391.714 218.105 388.921ZM171.773 388.921C171.773 386.127 169.683 383.863 167.104 383.863C164.524 383.863 162.435 386.127 162.435 388.921C162.435 391.714 164.524 393.978 167.104 393.978C169.683 393.978 171.773 391.714 171.773 388.921ZM125.44 388.921C125.44 386.127 123.349 383.863 120.771 383.863C118.193 383.863 116.102 386.127 116.102 388.921C116.102 391.714 118.193 393.978 120.771 393.978C123.349 393.978 125.44 391.714 125.44 388.921ZM79.1068 388.921C79.1068 386.127 77.0161 383.863 74.4377 383.863C71.8593 383.863 69.7686 386.127 69.7686 388.921C69.7686 391.714 71.8593 393.978 74.4377 393.978C77.0161 393.978 79.1068 391.714 79.1068 388.921ZM32.7749 388.921C32.7749 386.127 30.6842 383.863 28.1058 383.863C25.5274 383.863 23.4368 386.127 23.4368 388.921C23.4368 391.714 25.5274 393.978 28.1058 393.978C30.6842 393.978 32.7749 391.714 32.7749 388.921ZM380 669.943C380 667.149 377.909 664.885 375.331 664.885C372.753 664.885 370.662 667.149 370.662 669.943C370.662 672.736 372.753 675 375.331 675C377.909 675 380 672.736 380 669.943ZM333.667 669.943C333.667 667.149 331.576 664.885 328.998 664.885C326.419 664.885 324.329 667.149 324.329 669.943C324.329 672.736 326.419 675 328.998 675C331.576 675 333.667 672.736 333.667 669.943ZM287.333 669.943C287.333 667.149 285.244 664.885 282.664 664.885C280.086 664.885 277.997 667.149 277.997 669.943C277.997 672.736 280.086 675 282.664 675C285.244 675 287.333 672.736 287.333 669.943ZM241.002 669.943C241.002 667.149 238.911 664.885 236.333 664.885C233.754 664.885 231.663 667.149 231.663 669.943C231.663 672.736 233.754 675 236.333 675C238.911 675 241.002 672.736 241.002 669.943ZM194.668 669.943C194.668 667.149 192.578 664.885 189.999 664.885C187.421 664.885 185.33 667.149 185.33 669.943C185.33 672.736 187.421 675 189.999 675C192.578 675 194.668 672.736 194.668 669.943ZM148.336 669.943C148.336 667.149 146.246 664.885 143.667 664.885C141.088 664.885 138.998 667.149 138.998 669.943C138.998 672.736 141.088 675 143.667 675C146.246 675 148.336 672.736 148.336 669.943ZM102.003 669.943C102.003 667.149 99.9126 664.885 97.3342 664.885C94.7557 664.885 92.6652 667.149 92.6652 669.943C92.6652 672.736 94.7557 675 97.3342 675C99.9126 675 102.003 672.736 102.003 669.943ZM55.6699 669.943C55.6699 667.149 53.5807 664.885 51.0008 664.885C48.4224 664.885 46.3318 667.149 46.3318 669.943C46.3318 672.736 48.4224 675 51.0008 675C53.5807 675 55.6699 672.736 55.6699 669.943ZM9.33817 669.943C9.33817 667.149 7.24749 664.885 4.66908 664.885C2.09068 664.885 0 667.149 0 669.943C0 672.736 2.09068 675 4.66908 675C7.24749 675 9.33817 672.736 9.33817 669.943ZM380 618.875C380 616.082 377.909 613.818 375.331 613.818C372.753 613.818 370.662 616.082 370.662 618.875C370.662 621.669 372.753 623.932 375.331 623.932C377.909 623.932 380 621.669 380 618.875ZM333.667 618.875C333.667 616.082 331.576 613.818 328.998 613.818C326.419 613.818 324.329 616.082 324.329 618.875C324.329 621.669 326.419 623.932 328.998 623.932C331.576 623.932 333.667 621.669 333.667 618.875ZM287.333 618.875C287.333 616.082 285.244 613.818 282.664 613.818C280.086 613.818 277.997 616.082 277.997 618.875C277.997 621.669 280.086 623.932 282.664 623.932C285.244 623.932 287.333 621.669 287.333 618.875ZM241.002 618.875C241.002 616.082 238.911 613.818 236.333 613.818C233.754 613.818 231.663 616.082 231.663 618.875C231.663 621.669 233.754 623.932 236.333 623.932C238.911 623.932 241.002 621.669 241.002 618.875ZM194.668 618.875C194.668 616.082 192.578 613.818 189.999 613.818C187.421 613.818 185.33 616.082 185.33 618.875C185.33 621.669 187.421 623.932 189.999 623.932C192.578 623.932 194.668 621.669 194.668 618.875ZM148.336 618.875C148.336 616.082 146.246 613.818 143.667 613.818C141.088 613.818 138.998 616.082 138.998 618.875C138.998 621.669 141.088 623.932 143.667 623.932C146.246 623.932 148.336 621.669 148.336 618.875ZM102.003 618.875C102.003 616.082 99.9126 613.818 97.3342 613.818C94.7557 613.818 92.6652 616.082 92.6652 618.875C92.6652 621.669 94.7557 623.932 97.3342 623.932C99.9126 623.932 102.003 621.669 102.003 618.875ZM55.6699 618.875C55.6699 616.082 53.5807 613.818 51.0008 613.818C48.4224 613.818 46.3318 616.082 46.3318 618.875C46.3318 621.669 48.4224 623.932 51.0008 623.932C53.5807 623.932 55.6699 621.669 55.6699 618.875ZM9.33817 618.875C9.33817 616.082 7.24749 613.818 4.66908 613.818C2.09068 613.818 0 616.082 0 618.875C0 621.669 2.09068 623.932 4.66908 623.932C7.24749 623.932 9.33817 621.669 9.33817 618.875ZM380 567.807C380 565.014 377.909 562.749 375.331 562.749C372.753 562.749 370.662 565.014 370.662 567.807C370.662 570.599 372.753 572.865 375.331 572.865C377.909 572.865 380 570.599 380 567.807ZM333.667 567.807C333.667 565.014 331.576 562.749 328.998 562.749C326.419 562.749 324.329 565.014 324.329 567.807C324.329 570.599 326.419 572.865 328.998 572.865C331.576 572.865 333.667 570.599 333.667 567.807ZM287.333 567.807C287.333 565.014 285.244 562.749 282.664 562.749C280.086 562.749 277.997 565.014 277.997 567.807C277.997 570.599 280.086 572.865 282.664 572.865C285.244 572.865 287.333 570.599 287.333 567.807ZM241.002 567.807C241.002 565.014 238.911 562.749 236.333 562.749C233.754 562.749 231.663 565.014 231.663 567.807C231.663 570.599 233.754 572.865 236.333 572.865C238.911 572.865 241.002 570.599 241.002 567.807ZM194.668 567.807C194.668 565.014 192.578 562.749 189.999 562.749C187.421 562.749 185.33 565.014 185.33 567.807C185.33 570.599 187.421 572.865 189.999 572.865C192.578 572.865 194.668 570.599 194.668 567.807ZM148.336 567.807C148.336 565.014 146.246 562.749 143.667 562.749C141.088 562.749 138.998 565.014 138.998 567.807C138.998 570.599 141.088 572.865 143.667 572.865C146.246 572.865 148.336 570.599 148.336 567.807ZM102.003 567.807C102.003 565.014 99.9126 562.749 97.3342 562.749C94.7557 562.749 92.6652 565.014 92.6652 567.807C92.6652 570.599 94.7557 572.865 97.3342 572.865C99.9126 572.865 102.003 570.599 102.003 567.807ZM55.6699 567.807C55.6699 565.014 53.5807 562.749 51.0008 562.749C48.4224 562.749 46.3318 565.014 46.3318 567.807C46.3318 570.599 48.4224 572.865 51.0008 572.865C53.5807 572.865 55.6699 570.599 55.6699 567.807ZM9.33817 567.807C9.33817 565.014 7.24749 562.749 4.66908 562.749C2.09068 562.749 0 565.014 0 567.807C0 570.599 2.09068 572.865 4.66908 572.865C7.24749 572.865 9.33817 570.599 9.33817 567.807ZM380 516.738C380 513.945 377.909 511.681 375.331 511.681C372.753 511.681 370.662 513.945 370.662 516.738C370.662 519.532 372.753 521.796 375.331 521.796C377.909 521.796 380 519.532 380 516.738ZM333.667 516.738C333.667 513.945 331.576 511.681 328.998 511.681C326.419 511.681 324.329 513.945 324.329 516.738C324.329 519.532 326.419 521.796 328.998 521.796C331.576 521.796 333.667 519.532 333.667 516.738ZM287.333 516.738C287.333 513.945 285.244 511.681 282.664 511.681C280.086 511.681 277.997 513.945 277.997 516.738C277.997 519.532 280.086 521.796 282.664 521.796C285.244 521.796 287.333 519.532 287.333 516.738ZM241.002 516.738C241.002 513.945 238.911 511.681 236.333 511.681C233.754 511.681 231.663 513.945 231.663 516.738C231.663 519.532 233.754 521.796 236.333 521.796C238.911 521.796 241.002 519.532 241.002 516.738ZM194.668 516.738C194.668 513.945 192.578 511.681 189.999 511.681C187.421 511.681 185.33 513.945 185.33 516.738C185.33 519.532 187.421 521.796 189.999 521.796C192.578 521.796 194.668 519.532 194.668 516.738ZM148.336 516.738C148.336 513.945 146.246 511.681 143.667 511.681C141.088 511.681 138.998 513.945 138.998 516.738C138.998 519.532 141.088 521.796 143.667 521.796C146.246 521.796 148.336 519.532 148.336 516.738ZM102.003 516.738C102.003 513.945 99.9126 511.681 97.3342 511.681C94.7557 511.681 92.6652 513.945 92.6652 516.738C92.6652 519.532 94.7557 521.796 97.3342 521.796C99.9126 521.796 102.003 519.532 102.003 516.738ZM55.6699 516.738C55.6699 513.945 53.5807 511.681 51.0008 511.681C48.4224 511.681 46.3318 513.945 46.3318 516.738C46.3318 519.532 48.4224 521.796 51.0008 521.796C53.5807 521.796 55.6699 519.532 55.6699 516.738ZM9.33817 516.738C9.33817 513.945 7.24749 511.681 4.66908 511.681C2.09068 511.681 0 513.945 0 516.738C0 519.532 2.09068 521.796 4.66908 521.796C7.24749 521.796 9.33817 519.532 9.33817 516.738ZM380 465.671C380 462.877 377.909 460.613 375.331 460.613C372.753 460.613 370.662 462.877 370.662 465.671C370.662 468.464 372.753 470.728 375.331 470.728C377.909 470.728 380 468.464 380 465.671ZM333.667 465.671C333.667 462.877 331.576 460.613 328.998 460.613C326.419 460.613 324.329 462.877 324.329 465.671C324.329 468.464 326.419 470.728 328.998 470.728C331.576 470.728 333.667 468.464 333.667 465.671ZM287.333 465.671C287.333 462.877 285.244 460.613 282.664 460.613C280.086 460.613 277.997 462.877 277.997 465.671C277.997 468.464 280.086 470.728 282.664 470.728C285.244 470.728 287.333 468.464 287.333 465.671ZM241.002 465.671C241.002 462.877 238.911 460.613 236.333 460.613C233.754 460.613 231.663 462.877 231.663 465.671C231.663 468.464 233.754 470.728 236.333 470.728C238.911 470.728 241.002 468.464 241.002 465.671ZM194.668 465.671C194.668 462.877 192.578 460.613 189.999 460.613C187.421 460.613 185.33 462.877 185.33 465.671C185.33 468.464 187.421 470.728 189.999 470.728C192.578 470.728 194.668 468.464 194.668 465.671ZM148.336 465.671C148.336 462.877 146.246 460.613 143.667 460.613C141.088 460.613 138.998 462.877 138.998 465.671C138.998 468.464 141.088 470.728 143.667 470.728C146.246 470.728 148.336 468.464 148.336 465.671ZM102.003 465.671C102.003 462.877 99.9126 460.613 97.3342 460.613C94.7557 460.613 92.6652 462.877 92.6652 465.671C92.6652 468.464 94.7557 470.728 97.3342 470.728C99.9126 470.728 102.003 468.464 102.003 465.671ZM55.6699 465.671C55.6699 462.877 53.5807 460.613 51.0008 460.613C48.4224 460.613 46.3318 462.877 46.3318 465.671C46.3318 468.464 48.4224 470.728 51.0008 470.728C53.5807 470.728 55.6699 468.464 55.6699 465.671ZM9.33817 465.671C9.33817 462.877 7.24749 460.613 4.66908 460.613C2.09068 460.613 0 462.877 0 465.671C0 468.464 2.09068 470.728 4.66908 470.728C7.24749 470.728 9.33817 468.464 9.33817 465.671ZM380 414.603C380 411.81 377.909 409.544 375.331 409.544C372.753 409.544 370.662 411.81 370.662 414.603C370.662 417.395 372.753 419.66 375.331 419.66C377.909 419.66 380 417.395 380 414.603ZM333.667 414.603C333.667 411.81 331.576 409.544 328.998 409.544C326.419 409.544 324.329 411.81 324.329 414.603C324.329 417.395 326.419 419.66 328.998 419.66C331.576 419.66 333.667 417.395 333.667 414.603ZM287.333 414.603C287.333 411.81 285.244 409.544 282.664 409.544C280.086 409.544 277.997 411.81 277.997 414.603C277.997 417.395 280.086 419.66 282.664 419.66C285.244 419.66 287.333 417.395 287.333 414.603ZM241.002 414.603C241.002 411.81 238.911 409.544 236.333 409.544C233.754 409.544 231.663 411.81 231.663 414.603C231.663 417.395 233.754 419.66 236.333 419.66C238.911 419.66 241.002 417.395 241.002 414.603ZM194.668 414.603C194.668 411.81 192.578 409.544 189.999 409.544C187.421 409.544 185.33 411.81 185.33 414.603C185.33 417.395 187.421 419.66 189.999 419.66C192.578 419.66 194.668 417.395 194.668 414.603ZM148.336 414.603C148.336 411.81 146.246 409.544 143.667 409.544C141.088 409.544 138.998 411.81 138.998 414.603C138.998 417.395 141.088 419.66 143.667 419.66C146.246 419.66 148.336 417.395 148.336 414.603ZM102.003 414.603C102.003 411.81 99.9126 409.544 97.3342 409.544C94.7557 409.544 92.6652 411.81 92.6652 414.603C92.6652 417.395 94.7557 419.66 97.3342 419.66C99.9126 419.66 102.003 417.395 102.003 414.603ZM55.6699 414.603C55.6699 411.81 53.5807 409.544 51.0008 409.544C48.4224 409.544 46.3318 411.81 46.3318 414.603C46.3318 417.395 48.4224 419.66 51.0008 419.66C53.5807 419.66 55.6699 417.395 55.6699 414.603ZM9.33817 414.603C9.33817 411.81 7.24749 409.544 4.66908 409.544C2.09068 409.544 0 411.81 0 414.603C0 417.395 2.09068 419.66 4.66908 419.66C7.24749 419.66 9.33817 417.395 9.33817 414.603ZM380 363.534C380 360.74 377.909 358.477 375.331 358.477C372.753 358.477 370.662 360.74 370.662 363.534C370.662 366.327 372.753 368.591 375.331 368.591C377.909 368.591 380 366.327 380 363.534ZM333.667 363.534C333.667 360.74 331.576 358.477 328.998 358.477C326.419 358.477 324.329 360.74 324.329 363.534C324.329 366.327 326.419 368.591 328.998 368.591C331.576 368.591 333.667 366.327 333.667 363.534ZM287.333 363.534C287.333 360.74 285.244 358.477 282.664 358.477C280.086 358.477 277.997 360.74 277.997 363.534C277.997 366.327 280.086 368.591 282.664 368.591C285.244 368.591 287.333 366.327 287.333 363.534ZM241.002 363.534C241.002 360.74 238.911 358.477 236.333 358.477C233.754 358.477 231.663 360.74 231.663 363.534C231.663 366.327 233.754 368.591 236.333 368.591C238.911 368.591 241.002 366.327 241.002 363.534ZM194.668 363.534C194.668 360.74 192.578 358.477 189.999 358.477C187.421 358.477 185.33 360.74 185.33 363.534C185.33 366.327 187.421 368.591 189.999 368.591C192.578 368.591 194.668 366.327 194.668 363.534ZM148.336 363.534C148.336 360.74 146.246 358.477 143.667 358.477C141.088 358.477 138.998 360.74 138.998 363.534C138.998 366.327 141.088 368.591 143.667 368.591C146.246 368.591 148.336 366.327 148.336 363.534ZM102.003 363.534C102.003 360.74 99.9126 358.477 97.3342 358.477C94.7557 358.477 92.6652 360.74 92.6652 363.534C92.6652 366.327 94.7557 368.591 97.3342 368.591C99.9126 368.591 102.003 366.327 102.003 363.534ZM55.6699 363.534C55.6699 360.74 53.5807 358.477 51.0008 358.477C48.4224 358.477 46.3318 360.74 46.3318 363.534C46.3318 366.327 48.4224 368.591 51.0008 368.591C53.5807 368.591 55.6699 366.327 55.6699 363.534ZM9.33817 363.534C9.33817 360.74 7.24749 358.477 4.66908 358.477C2.09068 358.477 0 360.74 0 363.534C0 366.327 2.09068 368.591 4.66908 368.591C7.24749 368.591 9.33817 366.327 9.33817 363.534ZM357.104 337.853C357.104 335.06 355.013 332.796 352.435 332.796C349.856 332.796 347.765 335.06 347.765 337.853C347.765 340.646 349.856 342.91 352.435 342.91C355.013 342.91 357.104 340.646 357.104 337.853ZM310.77 337.853C310.77 335.06 308.681 332.796 306.101 332.796C303.523 332.796 301.432 335.06 301.432 337.853C301.432 340.646 303.523 342.91 306.101 342.91C308.681 342.91 310.77 340.646 310.77 337.853ZM264.438 337.853C264.438 335.06 262.348 332.796 259.769 332.796C257.191 332.796 255.1 335.06 255.1 337.853C255.1 340.646 257.191 342.91 259.769 342.91C262.348 342.91 264.438 340.646 264.438 337.853ZM218.105 337.853C218.105 335.06 216.015 332.796 213.436 332.796C210.858 332.796 208.767 335.06 208.767 337.853C208.767 340.646 210.858 342.91 213.436 342.91C216.015 342.91 218.105 340.646 218.105 337.853ZM171.773 337.853C171.773 335.06 169.683 332.796 167.104 332.796C164.524 332.796 162.435 335.06 162.435 337.853C162.435 340.646 164.524 342.91 167.104 342.91C169.683 342.91 171.773 340.646 171.773 337.853ZM125.44 337.853C125.44 335.06 123.349 332.796 120.771 332.796C118.193 332.796 116.102 335.06 116.102 337.853C116.102 340.646 118.193 342.91 120.771 342.91C123.349 342.91 125.44 340.646 125.44 337.853ZM79.1068 337.853C79.1068 335.06 77.0161 332.796 74.4377 332.796C71.8593 332.796 69.7686 335.06 69.7686 337.853C69.7686 340.646 71.8593 342.91 74.4377 342.91C77.0161 342.91 79.1068 340.646 79.1068 337.853ZM32.7749 337.853C32.7749 335.06 30.6842 332.796 28.1058 332.796C25.5274 332.796 23.4368 335.06 23.4368 337.853C23.4368 340.646 25.5274 342.91 28.1058 342.91C30.6842 342.91 32.7749 340.646 32.7749 337.853ZM357.104 286.785C357.104 283.992 355.013 281.728 352.435 281.728C349.856 281.728 347.765 283.992 347.765 286.785C347.765 289.577 349.856 291.843 352.435 291.843C355.013 291.843 357.104 289.577 357.104 286.785ZM310.77 286.785C310.77 283.992 308.681 281.728 306.101 281.728C303.523 281.728 301.432 283.992 301.432 286.785C301.432 289.577 303.523 291.843 306.101 291.843C308.681 291.843 310.77 289.577 310.77 286.785ZM264.438 286.785C264.438 283.992 262.348 281.728 259.769 281.728C257.191 281.728 255.1 283.992 255.1 286.785C255.1 289.577 257.191 291.843 259.769 291.843C262.348 291.843 264.438 289.577 264.438 286.785ZM218.105 286.785C218.105 283.992 216.015 281.728 213.436 281.728C210.858 281.728 208.767 283.992 208.767 286.785C208.767 289.577 210.858 291.843 213.436 291.843C216.015 291.843 218.105 289.577 218.105 286.785ZM171.773 286.785C171.773 283.992 169.683 281.728 167.104 281.728C164.524 281.728 162.435 283.992 162.435 286.785C162.435 289.577 164.524 291.843 167.104 291.843C169.683 291.843 171.773 289.577 171.773 286.785ZM125.44 286.785C125.44 283.992 123.349 281.728 120.771 281.728C118.193 281.728 116.102 283.992 116.102 286.785C116.102 289.577 118.193 291.843 120.771 291.843C123.349 291.843 125.44 289.577 125.44 286.785ZM79.1068 286.785C79.1068 283.992 77.0161 281.728 74.4377 281.728C71.8593 281.728 69.7686 283.992 69.7686 286.785C69.7686 289.577 71.8593 291.843 74.4377 291.843C77.0161 291.843 79.1068 289.577 79.1068 286.785ZM32.7749 286.785C32.7749 283.992 30.6842 281.728 28.1058 281.728C25.5274 281.728 23.4368 283.992 23.4368 286.785C23.4368 289.577 25.5274 291.843 28.1058 291.843C30.6842 291.843 32.7749 289.577 32.7749 286.785ZM357.104 235.716C357.104 232.924 355.013 230.659 352.435 230.659C349.856 230.659 347.765 232.924 347.765 235.716C347.765 238.51 349.856 240.773 352.435 240.773C355.013 240.773 357.104 238.51 357.104 235.716ZM310.77 235.716C310.77 232.924 308.681 230.659 306.101 230.659C303.523 230.659 301.432 232.924 301.432 235.716C301.432 238.51 303.523 240.773 306.101 240.773C308.681 240.773 310.77 238.51 310.77 235.716ZM264.438 235.716C264.438 232.924 262.348 230.659 259.769 230.659C257.191 230.659 255.1 232.924 255.1 235.716C255.1 238.51 257.191 240.773 259.769 240.773C262.348 240.773 264.438 238.51 264.438 235.716ZM218.105 235.716C218.105 232.924 216.015 230.659 213.436 230.659C210.858 230.659 208.767 232.924 208.767 235.716C208.767 238.51 210.858 240.773 213.436 240.773C216.015 240.773 218.105 238.51 218.105 235.716ZM171.773 235.716C171.773 232.924 169.683 230.659 167.104 230.659C164.524 230.659 162.435 232.924 162.435 235.716C162.435 238.51 164.524 240.773 167.104 240.773C169.683 240.773 171.773 238.51 171.773 235.716ZM125.44 235.716C125.44 232.924 123.349 230.659 120.771 230.659C118.193 230.659 116.102 232.924 116.102 235.716C116.102 238.51 118.193 240.773 120.771 240.773C123.349 240.773 125.44 238.51 125.44 235.716ZM79.1068 235.716C79.1068 232.924 77.0161 230.659 74.4377 230.659C71.8593 230.659 69.7686 232.924 69.7686 235.716C69.7686 238.51 71.8593 240.773 74.4377 240.773C77.0161 240.773 79.1068 238.51 79.1068 235.716ZM32.7749 235.716C32.7749 232.924 30.6842 230.659 28.1058 230.659C25.5274 230.659 23.4368 232.924 23.4368 235.716C23.4368 238.51 25.5274 240.773 28.1058 240.773C30.6842 240.773 32.7749 238.51 32.7749 235.716ZM357.104 184.649C357.104 181.855 355.013 179.591 352.435 179.591C349.856 179.591 347.765 181.855 347.765 184.649C347.765 187.442 349.856 189.706 352.435 189.706C355.013 189.706 357.104 187.442 357.104 184.649ZM310.77 184.649C310.77 181.855 308.681 179.591 306.101 179.591C303.523 179.591 301.432 181.855 301.432 184.649C301.432 187.442 303.523 189.706 306.101 189.706C308.681 189.706 310.77 187.442 310.77 184.649ZM264.438 184.649C264.438 181.855 262.348 179.591 259.769 179.591C257.191 179.591 255.1 181.855 255.1 184.649C255.1 187.442 257.191 189.706 259.769 189.706C262.348 189.706 264.438 187.442 264.438 184.649ZM218.105 184.649C218.105 181.855 216.015 179.591 213.436 179.591C210.858 179.591 208.767 181.855 208.767 184.649C208.767 187.442 210.858 189.706 213.436 189.706C216.015 189.706 218.105 187.442 218.105 184.649ZM171.773 184.649C171.773 181.855 169.683 179.591 167.104 179.591C164.524 179.591 162.435 181.855 162.435 184.649C162.435 187.442 164.524 189.706 167.104 189.706C169.683 189.706 171.773 187.442 171.773 184.649ZM125.44 184.649C125.44 181.855 123.349 179.591 120.771 179.591C118.193 179.591 116.102 181.855 116.102 184.649C116.102 187.442 118.193 189.706 120.771 189.706C123.349 189.706 125.44 187.442 125.44 184.649ZM79.1068 184.649C79.1068 181.855 77.0161 179.591 74.4377 179.591C71.8593 179.591 69.7686 181.855 69.7686 184.649C69.7686 187.442 71.8593 189.706 74.4377 189.706C77.0161 189.706 79.1068 187.442 79.1068 184.649ZM32.7749 184.649C32.7749 181.855 30.6842 179.591 28.1058 179.591C25.5274 179.591 23.4368 181.855 23.4368 184.649C23.4368 187.442 25.5274 189.706 28.1058 189.706C30.6842 189.706 32.7749 187.442 32.7749 184.649ZM357.104 133.581C357.104 130.787 355.013 128.522 352.435 128.522C349.856 128.522 347.765 130.787 347.765 133.581C347.765 136.374 349.856 138.638 352.435 138.638C355.013 138.638 357.104 136.374 357.104 133.581ZM310.77 133.581C310.77 130.787 308.681 128.522 306.101 128.522C303.523 128.522 301.432 130.787 301.432 133.581C301.432 136.374 303.523 138.638 306.101 138.638C308.681 138.638 310.77 136.374 310.77 133.581ZM264.438 133.581C264.438 130.787 262.348 128.522 259.769 128.522C257.191 128.522 255.1 130.787 255.1 133.581C255.1 136.374 257.191 138.638 259.769 138.638C262.348 138.638 264.438 136.374 264.438 133.581ZM218.105 133.581C218.105 130.787 216.015 128.522 213.436 128.522C210.858 128.522 208.767 130.787 208.767 133.581C208.767 136.374 210.858 138.638 213.436 138.638C216.015 138.638 218.105 136.374 218.105 133.581ZM171.773 133.581C171.773 130.787 169.683 128.522 167.104 128.522C164.524 128.522 162.435 130.787 162.435 133.581C162.435 136.374 164.524 138.638 167.104 138.638C169.683 138.638 171.773 136.374 171.773 133.581ZM125.44 133.581C125.44 130.787 123.349 128.522 120.771 128.522C118.193 128.522 116.102 130.787 116.102 133.581C116.102 136.374 118.193 138.638 120.771 138.638C123.349 138.638 125.44 136.374 125.44 133.581ZM79.1068 133.581C79.1068 130.787 77.0161 128.522 74.4377 128.522C71.8593 128.522 69.7686 130.787 69.7686 133.581C69.7686 136.374 71.8593 138.638 74.4377 138.638C77.0161 138.638 79.1068 136.374 79.1068 133.581ZM32.7749 133.581C32.7749 130.787 30.6842 128.522 28.1058 128.522C25.5274 128.522 23.4368 130.787 23.4368 133.581C23.4368 136.374 25.5274 138.638 28.1058 138.638C30.6842 138.638 32.7749 136.374 32.7749 133.581ZM357.104 82.5117C357.104 79.7183 355.013 77.4545 352.435 77.4545C349.856 77.4545 347.765 79.7183 347.765 82.5117C347.765 85.3051 349.856 87.5705 352.435 87.5705C355.013 87.5705 357.104 85.3051 357.104 82.5117ZM310.77 82.5117C310.77 79.7183 308.681 77.4545 306.101 77.4545C303.523 77.4545 301.432 79.7183 301.432 82.5117C301.432 85.3051 303.523 87.5705 306.101 87.5705C308.681 87.5705 310.77 85.3051 310.77 82.5117ZM264.438 82.5117C264.438 79.7183 262.348 77.4545 259.769 77.4545C257.191 77.4545 255.1 79.7183 255.1 82.5117C255.1 85.3051 257.191 87.5705 259.769 87.5705C262.348 87.5705 264.438 85.3051 264.438 82.5117ZM218.105 82.5117C218.105 79.7183 216.015 77.4545 213.436 77.4545C210.858 77.4545 208.767 79.7183 208.767 82.5117C208.767 85.3051 210.858 87.5705 213.436 87.5705C216.015 87.5705 218.105 85.3051 218.105 82.5117ZM171.773 82.5117C171.773 79.7183 169.683 77.4545 167.104 77.4545C164.524 77.4545 162.435 79.7183 162.435 82.5117C162.435 85.3051 164.524 87.5705 167.104 87.5705C169.683 87.5705 171.773 85.3051 171.773 82.5117ZM125.44 82.5117C125.44 79.7183 123.349 77.4545 120.771 77.4545C118.193 77.4545 116.102 79.7183 116.102 82.5117C116.102 85.3051 118.193 87.5705 120.771 87.5705C123.349 87.5705 125.44 85.3051 125.44 82.5117ZM79.1068 82.5117C79.1068 79.7183 77.0161 77.4545 74.4377 77.4545C71.8593 77.4545 69.7686 79.7183 69.7686 82.5117C69.7686 85.3051 71.8593 87.5705 74.4377 87.5705C77.0161 87.5705 79.1068 85.3051 79.1068 82.5117ZM32.7749 82.5117C32.7749 79.7183 30.6842 77.4545 28.1058 77.4545C25.5274 77.4545 23.4368 79.7183 23.4368 82.5117C23.4368 85.3051 25.5274 87.5705 28.1058 87.5705C30.6842 87.5705 32.7749 85.3051 32.7749 82.5117ZM357.104 31.4441C357.104 28.6506 355.013 26.3868 352.435 26.3868C349.856 26.3868 347.765 28.6506 347.765 31.4441C347.765 34.2375 349.856 36.5013 352.435 36.5013C355.013 36.5013 357.104 34.2375 357.104 31.4441ZM310.77 31.4441C310.77 28.6506 308.681 26.3868 306.101 26.3868C303.523 26.3868 301.432 28.6506 301.432 31.4441C301.432 34.2375 303.523 36.5013 306.101 36.5013C308.681 36.5013 310.77 34.2375 310.77 31.4441ZM264.438 31.4441C264.438 28.6506 262.348 26.3868 259.769 26.3868C257.191 26.3868 255.1 28.6506 255.1 31.4441C255.1 34.2375 257.191 36.5013 259.769 36.5013C262.348 36.5013 264.438 34.2375 264.438 31.4441ZM218.105 31.4441C218.105 28.6506 216.015 26.3868 213.436 26.3868C210.858 26.3868 208.767 28.6506 208.767 31.4441C208.767 34.2375 210.858 36.5013 213.436 36.5013C216.015 36.5013 218.105 34.2375 218.105 31.4441ZM171.773 31.4441C171.773 28.6506 169.683 26.3868 167.104 26.3868C164.524 26.3868 162.435 28.6506 162.435 31.4441C162.435 34.2375 164.524 36.5013 167.104 36.5013C169.683 36.5013 171.773 34.2375 171.773 31.4441ZM125.44 31.4441C125.44 28.6506 123.349 26.3868 120.771 26.3868C118.193 26.3868 116.102 28.6506 116.102 31.4441C116.102 34.2375 118.193 36.5013 120.771 36.5013C123.349 36.5013 125.44 34.2375 125.44 31.4441ZM79.1068 31.4441C79.1068 28.6506 77.0161 26.3868 74.4377 26.3868C71.8593 26.3868 69.7686 28.6506 69.7686 31.4441C69.7686 34.2375 71.8593 36.5013 74.4377 36.5013C77.0161 36.5013 79.1068 34.2375 79.1068 31.4441ZM32.7749 31.4441C32.7749 28.6506 30.6842 26.3868 28.1058 26.3868C25.5274 26.3868 23.4368 28.6506 23.4368 31.4441C23.4368 34.2375 25.5274 36.5013 28.1058 36.5013C30.6842 36.5013 32.7749 34.2375 32.7749 31.4441ZM380 312.466C380 309.673 377.909 307.409 375.331 307.409C372.753 307.409 370.662 309.673 370.662 312.466C370.662 315.26 372.753 317.523 375.331 317.523C377.909 317.523 380 315.26 380 312.466ZM333.667 312.466C333.667 309.673 331.576 307.409 328.998 307.409C326.419 307.409 324.329 309.673 324.329 312.466C324.329 315.26 326.419 317.523 328.998 317.523C331.576 317.523 333.667 315.26 333.667 312.466ZM287.333 312.466C287.333 309.673 285.244 307.409 282.664 307.409C280.086 307.409 277.997 309.673 277.997 312.466C277.997 315.26 280.086 317.523 282.664 317.523C285.244 317.523 287.333 315.26 287.333 312.466ZM241.002 312.466C241.002 309.673 238.911 307.409 236.333 307.409C233.754 307.409 231.663 309.673 231.663 312.466C231.663 315.26 233.754 317.523 236.333 317.523C238.911 317.523 241.002 315.26 241.002 312.466ZM194.668 312.466C194.668 309.673 192.578 307.409 189.999 307.409C187.421 307.409 185.33 309.673 185.33 312.466C185.33 315.26 187.421 317.523 189.999 317.523C192.578 317.523 194.668 315.26 194.668 312.466ZM148.336 312.466C148.336 309.673 146.246 307.409 143.667 307.409C141.088 307.409 138.998 309.673 138.998 312.466C138.998 315.26 141.088 317.523 143.667 317.523C146.246 317.523 148.336 315.26 148.336 312.466ZM102.003 312.466C102.003 309.673 99.9126 307.409 97.3342 307.409C94.7557 307.409 92.6652 309.673 92.6652 312.466C92.6652 315.26 94.7557 317.523 97.3342 317.523C99.9126 317.523 102.003 315.26 102.003 312.466ZM55.6699 312.466C55.6699 309.673 53.5807 307.409 51.0008 307.409C48.4224 307.409 46.3318 309.673 46.3318 312.466C46.3318 315.26 48.4224 317.523 51.0008 317.523C53.5807 317.523 55.6699 315.26 55.6699 312.466ZM9.33817 312.466C9.33817 309.673 7.24749 307.409 4.66908 307.409C2.09068 307.409 0 309.673 0 312.466C0 315.26 2.09068 317.523 4.66908 317.523C7.24749 317.523 9.33817 315.26 9.33817 312.466ZM380 261.399C380 258.605 377.909 256.34 375.331 256.34C372.753 256.34 370.662 258.605 370.662 261.399C370.662 264.19 372.753 266.456 375.331 266.456C377.909 266.456 380 264.19 380 261.399ZM333.667 261.399C333.667 258.605 331.576 256.34 328.998 256.34C326.419 256.34 324.329 258.605 324.329 261.399C324.329 264.19 326.419 266.456 328.998 266.456C331.576 266.456 333.667 264.19 333.667 261.399ZM287.333 261.399C287.333 258.605 285.244 256.34 282.664 256.34C280.086 256.34 277.997 258.605 277.997 261.399C277.997 264.19 280.086 266.456 282.664 266.456C285.244 266.456 287.333 264.19 287.333 261.399ZM241.002 261.399C241.002 258.605 238.911 256.34 236.333 256.34C233.754 256.34 231.663 258.605 231.663 261.399C231.663 264.19 233.754 266.456 236.333 266.456C238.911 266.456 241.002 264.19 241.002 261.399ZM194.668 261.399C194.668 258.605 192.578 256.34 189.999 256.34C187.421 256.34 185.33 258.605 185.33 261.399C185.33 264.19 187.421 266.456 189.999 266.456C192.578 266.456 194.668 264.19 194.668 261.399ZM148.336 261.399C148.336 258.605 146.246 256.34 143.667 256.34C141.088 256.34 138.998 258.605 138.998 261.399C138.998 264.19 141.088 266.456 143.667 266.456C146.246 266.456 148.336 264.19 148.336 261.399ZM102.003 261.399C102.003 258.605 99.9126 256.34 97.3342 256.34C94.7557 256.34 92.6652 258.605 92.6652 261.399C92.6652 264.19 94.7557 266.456 97.3342 266.456C99.9126 266.456 102.003 264.19 102.003 261.399ZM55.6699 261.399C55.6699 258.605 53.5807 256.34 51.0008 256.34C48.4224 256.34 46.3318 258.605 46.3318 261.399C46.3318 264.19 48.4224 266.456 51.0008 266.456C53.5807 266.456 55.6699 264.19 55.6699 261.399ZM9.33817 261.399C9.33817 258.605 7.24749 256.34 4.66908 256.34C2.09068 256.34 0 258.605 0 261.399C0 264.19 2.09068 266.456 4.66908 266.456C7.24749 266.456 9.33817 264.19 9.33817 261.399ZM380 210.329C380 207.536 377.909 205.272 375.331 205.272C372.753 205.272 370.662 207.536 370.662 210.329C370.662 213.123 372.753 215.387 375.331 215.387C377.909 215.387 380 213.123 380 210.329ZM333.667 210.329C333.667 207.536 331.576 205.272 328.998 205.272C326.419 205.272 324.329 207.536 324.329 210.329C324.329 213.123 326.419 215.387 328.998 215.387C331.576 215.387 333.667 213.123 333.667 210.329ZM287.333 210.329C287.333 207.536 285.244 205.272 282.664 205.272C280.086 205.272 277.997 207.536 277.997 210.329C277.997 213.123 280.086 215.387 282.664 215.387C285.244 215.387 287.333 213.123 287.333 210.329ZM241.002 210.329C241.002 207.536 238.911 205.272 236.333 205.272C233.754 205.272 231.663 207.536 231.663 210.329C231.663 213.123 233.754 215.387 236.333 215.387C238.911 215.387 241.002 213.123 241.002 210.329ZM194.668 210.329C194.668 207.536 192.578 205.272 189.999 205.272C187.421 205.272 185.33 207.536 185.33 210.329C185.33 213.123 187.421 215.387 189.999 215.387C192.578 215.387 194.668 213.123 194.668 210.329ZM148.336 210.329C148.336 207.536 146.246 205.272 143.667 205.272C141.088 205.272 138.998 207.536 138.998 210.329C138.998 213.123 141.088 215.387 143.667 215.387C146.246 215.387 148.336 213.123 148.336 210.329ZM102.003 210.329C102.003 207.536 99.9126 205.272 97.3342 205.272C94.7557 205.272 92.6652 207.536 92.6652 210.329C92.6652 213.123 94.7557 215.387 97.3342 215.387C99.9126 215.387 102.003 213.123 102.003 210.329ZM55.6699 210.329C55.6699 207.536 53.5807 205.272 51.0008 205.272C48.4224 205.272 46.3318 207.536 46.3318 210.329C46.3318 213.123 48.4224 215.387 51.0008 215.387C53.5807 215.387 55.6699 213.123 55.6699 210.329ZM9.33817 210.329C9.33817 207.536 7.24749 205.272 4.66908 205.272C2.09068 205.272 0 207.536 0 210.329C0 213.123 2.09068 215.387 4.66908 215.387C7.24749 215.387 9.33817 213.123 9.33817 210.329ZM380 159.262C380 156.468 377.909 154.204 375.331 154.204C372.753 154.204 370.662 156.468 370.662 159.262C370.662 162.055 372.753 164.319 375.331 164.319C377.909 164.319 380 162.055 380 159.262ZM333.667 159.262C333.667 156.468 331.576 154.204 328.998 154.204C326.419 154.204 324.329 156.468 324.329 159.262C324.329 162.055 326.419 164.319 328.998 164.319C331.576 164.319 333.667 162.055 333.667 159.262ZM287.333 159.262C287.333 156.468 285.244 154.204 282.664 154.204C280.086 154.204 277.997 156.468 277.997 159.262C277.997 162.055 280.086 164.319 282.664 164.319C285.244 164.319 287.333 162.055 287.333 159.262ZM241.002 159.262C241.002 156.468 238.911 154.204 236.333 154.204C233.754 154.204 231.663 156.468 231.663 159.262C231.663 162.055 233.754 164.319 236.333 164.319C238.911 164.319 241.002 162.055 241.002 159.262ZM194.668 159.262C194.668 156.468 192.578 154.204 189.999 154.204C187.421 154.204 185.33 156.468 185.33 159.262C185.33 162.055 187.421 164.319 189.999 164.319C192.578 164.319 194.668 162.055 194.668 159.262ZM148.336 159.262C148.336 156.468 146.246 154.204 143.667 154.204C141.088 154.204 138.998 156.468 138.998 159.262C138.998 162.055 141.088 164.319 143.667 164.319C146.246 164.319 148.336 162.055 148.336 159.262ZM102.003 159.262C102.003 156.468 99.9126 154.204 97.3342 154.204C94.7557 154.204 92.6652 156.468 92.6652 159.262C92.6652 162.055 94.7557 164.319 97.3342 164.319C99.9126 164.319 102.003 162.055 102.003 159.262ZM55.6699 159.262C55.6699 156.468 53.5807 154.204 51.0008 154.204C48.4224 154.204 46.3318 156.468 46.3318 159.262C46.3318 162.055 48.4224 164.319 51.0008 164.319C53.5807 164.319 55.6699 162.055 55.6699 159.262ZM9.33817 159.262C9.33817 156.468 7.24749 154.204 4.66908 154.204C2.09068 154.204 0 156.468 0 159.262C0 162.055 2.09068 164.319 4.66908 164.319C7.24749 164.319 9.33817 162.055 9.33817 159.262ZM380 108.194C380 105.401 377.909 103.135 375.331 103.135C372.753 103.135 370.662 105.401 370.662 108.194C370.662 110.986 372.753 113.251 375.331 113.251C377.909 113.251 380 110.986 380 108.194ZM333.667 108.194C333.667 105.401 331.576 103.135 328.998 103.135C326.419 103.135 324.329 105.401 324.329 108.194C324.329 110.986 326.419 113.251 328.998 113.251C331.576 113.251 333.667 110.986 333.667 108.194ZM287.333 108.194C287.333 105.401 285.244 103.135 282.664 103.135C280.086 103.135 277.997 105.401 277.997 108.194C277.997 110.986 280.086 113.251 282.664 113.251C285.244 113.251 287.333 110.986 287.333 108.194ZM241.002 108.194C241.002 105.401 238.911 103.135 236.333 103.135C233.754 103.135 231.663 105.401 231.663 108.194C231.663 110.986 233.754 113.251 236.333 113.251C238.911 113.251 241.002 110.986 241.002 108.194ZM194.668 108.194C194.668 105.401 192.578 103.135 189.999 103.135C187.421 103.135 185.33 105.401 185.33 108.194C185.33 110.986 187.421 113.251 189.999 113.251C192.578 113.251 194.668 110.986 194.668 108.194ZM148.336 108.194C148.336 105.401 146.246 103.135 143.667 103.135C141.088 103.135 138.998 105.401 138.998 108.194C138.998 110.986 141.088 113.251 143.667 113.251C146.246 113.251 148.336 110.986 148.336 108.194ZM102.003 108.194C102.003 105.401 99.9126 103.135 97.3342 103.135C94.7557 103.135 92.6652 105.401 92.6652 108.194C92.6652 110.986 94.7557 113.251 97.3342 113.251C99.9126 113.251 102.003 110.986 102.003 108.194ZM55.6699 108.194C55.6699 105.401 53.5807 103.135 51.0008 103.135C48.4224 103.135 46.3318 105.401 46.3318 108.194C46.3318 110.986 48.4224 113.251 51.0008 113.251C53.5807 113.251 55.6699 110.986 55.6699 108.194ZM9.33817 108.194C9.33817 105.401 7.24749 103.135 4.66908 103.135C2.09068 103.135 0 105.401 0 108.194C0 110.986 2.09068 113.251 4.66908 113.251C7.24749 113.251 9.33817 110.986 9.33817 108.194ZM380 57.1249C380 54.3315 377.909 52.0677 375.331 52.0677C372.753 52.0677 370.662 54.3315 370.662 57.1249C370.662 59.9183 372.753 62.1822 375.331 62.1822C377.909 62.1822 380 59.9183 380 57.1249ZM333.667 57.1249C333.667 54.3315 331.576 52.0677 328.998 52.0677C326.419 52.0677 324.329 54.3315 324.329 57.1249C324.329 59.9183 326.419 62.1822 328.998 62.1822C331.576 62.1822 333.667 59.9183 333.667 57.1249ZM287.333 57.1249C287.333 54.3315 285.244 52.0677 282.664 52.0677C280.086 52.0677 277.997 54.3315 277.997 57.1249C277.997 59.9183 280.086 62.1822 282.664 62.1822C285.244 62.1822 287.333 59.9183 287.333 57.1249ZM241.002 57.1249C241.002 54.3315 238.911 52.0677 236.333 52.0677C233.754 52.0677 231.663 54.3315 231.663 57.1249C231.663 59.9183 233.754 62.1822 236.333 62.1822C238.911 62.1822 241.002 59.9183 241.002 57.1249ZM194.668 57.1249C194.668 54.3315 192.578 52.0677 189.999 52.0677C187.421 52.0677 185.33 54.3315 185.33 57.1249C185.33 59.9183 187.421 62.1822 189.999 62.1822C192.578 62.1822 194.668 59.9183 194.668 57.1249ZM148.336 57.1249C148.336 54.3315 146.246 52.0677 143.667 52.0677C141.088 52.0677 138.998 54.3315 138.998 57.1249C138.998 59.9183 141.088 62.1822 143.667 62.1822C146.246 62.1822 148.336 59.9183 148.336 57.1249ZM102.003 57.1249C102.003 54.3315 99.9126 52.0677 97.3342 52.0677C94.7557 52.0677 92.6652 54.3315 92.6652 57.1249C92.6652 59.9183 94.7557 62.1822 97.3342 62.1822C99.9126 62.1822 102.003 59.9183 102.003 57.1249ZM55.6699 57.1249C55.6699 54.3315 53.5807 52.0677 51.0008 52.0677C48.4224 52.0677 46.3318 54.3315 46.3318 57.1249C46.3318 59.9183 48.4224 62.1822 51.0008 62.1822C53.5807 62.1822 55.6699 59.9183 55.6699 57.1249ZM9.33817 57.1249C9.33817 54.3315 7.24749 52.0677 4.66908 52.0677C2.09068 52.0677 0 54.3315 0 57.1249C0 59.9183 2.09068 62.1822 4.66908 62.1822C7.24749 62.1822 9.33817 59.9183 9.33817 57.1249ZM380 6.05726C380 3.26384 377.909 1 375.331 1C372.753 1 370.662 3.26384 370.662 6.05726C370.662 8.85068 372.753 11.1145 375.331 11.1145C377.909 11.1145 380 8.85068 380 6.05726ZM333.667 6.05726C333.667 3.26384 331.576 1 328.998 1C326.419 1 324.329 3.26384 324.329 6.05726C324.329 8.85068 326.419 11.1145 328.998 11.1145C331.576 11.1145 333.667 8.85068 333.667 6.05726ZM287.333 6.05726C287.333 3.26384 285.244 1 282.664 1C280.086 1 277.997 3.26384 277.997 6.05726C277.997 8.85068 280.086 11.1145 282.664 11.1145C285.244 11.1145 287.333 8.85068 287.333 6.05726ZM241.002 6.05726C241.002 3.26384 238.911 1 236.333 1C233.754 1 231.663 3.26384 231.663 6.05726C231.663 8.85068 233.754 11.1145 236.333 11.1145C238.911 11.1145 241.002 8.85068 241.002 6.05726ZM194.668 6.05726C194.668 3.26384 192.578 1 189.999 1C187.421 1 185.33 3.26384 185.33 6.05726C185.33 8.85068 187.421 11.1145 189.999 11.1145C192.578 11.1145 194.668 8.85068 194.668 6.05726ZM148.336 6.05726C148.336 3.26384 146.246 1 143.667 1C141.088 1 138.998 3.26384 138.998 6.05726C138.998 8.85068 141.088 11.1145 143.667 11.1145C146.246 11.1145 148.336 8.85068 148.336 6.05726ZM102.003 6.05726C102.003 3.26384 99.9126 1 97.3342 1C94.7557 1 92.6652 3.26384 92.6652 6.05726C92.6652 8.85068 94.7557 11.1145 97.3342 11.1145C99.9126 11.1145 102.003 8.85068 102.003 6.05726ZM55.6699 6.05726C55.6699 3.26384 53.5807 1 51.0008 1C48.4224 1 46.3318 3.26384 46.3318 6.05726C46.3318 8.85068 48.4224 11.1145 51.0008 11.1145C53.5807 11.1145 55.6699 8.85068 55.6699 6.05726ZM4.66908 11.1145C2.09068 11.1145 0 8.85068 0 6.05726C0 3.26384 2.09068 1 4.66908 1C7.24749 1 9.33817 3.26384 9.33817 6.05726C9.33817 8.85068 7.24749 11.1145 4.66908 11.1145Z" stroke="#4600B8"/>
</svg>
