<svg width="380" height="301" viewBox="0 0 380 301" fill="none" xmlns="http://www.w3.org/2000/svg">
<g opacity="0.2">
<path d="M76.7651 362.539C76.7651 331.488 40.7812 326.659 40.7812 290" stroke="#A96500" stroke-miterlimit="10"/>
<path d="M61.1886 362.539C61.1886 331.488 25.3086 326.659 25.3086 290" stroke="#A96500" stroke-miterlimit="10"/>
<path d="M45.6094 362.539C45.6094 331.488 9.78125 326.659 9.78125 290" stroke="#A96500" stroke-miterlimit="10"/>
<path d="M30.0329 362.539C30.0329 331.488 -5.69141 326.659 -5.69141 290" stroke="#A96500" stroke-miterlimit="10"/>
<path d="M14.4056 362.539C14.4056 331.488 -21.2148 326.659 -21.2148 290" stroke="#A96500" stroke-miterlimit="10"/>
<path d="M185.183 362.539C185.183 331.488 149.199 326.659 149.199 290" stroke="#A96500" stroke-miterlimit="10"/>
<path d="M169.71 362.539C169.71 331.488 133.727 326.659 133.727 290" stroke="#A96500" stroke-miterlimit="10"/>
<path d="M154.187 362.539C154.187 331.488 118.203 326.659 118.203 290" stroke="#A96500" stroke-miterlimit="10"/>
<path d="M138.71 362.539C138.71 331.488 102.727 326.659 102.727 290" stroke="#A96500" stroke-miterlimit="10"/>
<path d="M123.238 362.539C123.238 331.488 87.2539 326.659 87.2539 290" stroke="#A96500" stroke-miterlimit="10"/>
<path d="M107.714 362.539C107.714 331.488 71.7305 326.659 71.7305 290" stroke="#A96500" stroke-miterlimit="10"/>
<path d="M92.2378 362.539C92.2378 331.488 56.2539 326.659 56.2539 290" stroke="#A96500" stroke-miterlimit="10"/>
<path d="M76.7651 217.461C76.7651 248.512 40.7812 253.341 40.7812 290" stroke="#A96500" stroke-miterlimit="10"/>
<path d="M61.1886 217.461C61.1886 248.512 25.3086 253.341 25.3086 290" stroke="#A96500" stroke-miterlimit="10"/>
<path d="M45.6094 217.461C45.6094 248.512 9.78125 253.341 9.78125 290" stroke="#A96500" stroke-miterlimit="10"/>
<path d="M30.0329 217.461C30.0329 248.512 -5.69141 253.341 -5.69141 290" stroke="#A96500" stroke-miterlimit="10"/>
<path d="M14.4056 217.461C14.4056 248.512 -21.2148 253.341 -21.2148 290" stroke="#A96500" stroke-miterlimit="10"/>
<path d="M185.183 217.461C185.183 248.512 149.199 253.341 149.199 290" stroke="#A96500" stroke-miterlimit="10"/>
<path d="M169.71 217.461C169.71 248.512 133.727 253.341 133.727 290" stroke="#A96500" stroke-miterlimit="10"/>
<path d="M154.187 217.461C154.187 248.512 118.203 253.341 118.203 290" stroke="#A96500" stroke-miterlimit="10"/>
<path d="M138.71 217.461C138.71 248.512 102.727 253.341 102.727 290" stroke="#A96500" stroke-miterlimit="10"/>
<path d="M123.238 217.461C123.238 248.512 87.2539 253.341 87.2539 290" stroke="#A96500" stroke-miterlimit="10"/>
<path d="M107.714 217.461C107.714 248.512 71.7305 253.341 71.7305 290" stroke="#A96500" stroke-miterlimit="10"/>
<path d="M92.2378 217.461C92.2378 248.512 56.2539 253.341 56.2539 290" stroke="#A96500" stroke-miterlimit="10"/>
<path d="M76.7651 217.565C76.7651 186.514 40.7812 181.685 40.7812 145.026" stroke="#A96500" stroke-miterlimit="10"/>
<path d="M61.1886 217.565C61.1886 186.514 25.3086 181.685 25.3086 145.026" stroke="#A96500" stroke-miterlimit="10"/>
<path d="M45.6094 217.565C45.6094 186.514 9.78125 181.685 9.78125 145.026" stroke="#A96500" stroke-miterlimit="10"/>
<path d="M30.0329 217.565C30.0329 186.514 -5.69141 181.685 -5.69141 145.026" stroke="#A96500" stroke-miterlimit="10"/>
<path d="M14.4056 217.565C14.4056 186.514 -21.2148 181.685 -21.2148 145.026" stroke="#A96500" stroke-miterlimit="10"/>
<path d="M185.183 217.565C185.183 186.514 149.199 181.685 149.199 145.026" stroke="#A96500" stroke-miterlimit="10"/>
<path d="M169.71 217.565C169.71 186.514 133.727 181.685 133.727 145.026" stroke="#A96500" stroke-miterlimit="10"/>
<path d="M154.187 217.565C154.187 186.514 118.203 181.685 118.203 145.026" stroke="#A96500" stroke-miterlimit="10"/>
<path d="M138.71 217.565C138.71 186.514 102.727 181.685 102.727 145.026" stroke="#A96500" stroke-miterlimit="10"/>
<path d="M123.238 217.565C123.238 186.514 87.2539 181.685 87.2539 145.026" stroke="#A96500" stroke-miterlimit="10"/>
<path d="M107.714 217.565C107.714 186.514 71.7305 181.685 71.7305 145.026" stroke="#A96500" stroke-miterlimit="10"/>
<path d="M92.2378 217.565C92.2378 186.514 56.2539 181.685 56.2539 145.026" stroke="#A96500" stroke-miterlimit="10"/>
<path d="M76.7651 72.5391C76.7651 103.59 40.7812 108.419 40.7812 145.078" stroke="#A96500" stroke-miterlimit="10"/>
<path d="M61.1886 72.5391C61.1886 103.59 25.3086 108.419 25.3086 145.078" stroke="#A96500" stroke-miterlimit="10"/>
<path d="M45.6094 72.5391C45.6094 103.59 9.78125 108.419 9.78125 145.078" stroke="#A96500" stroke-miterlimit="10"/>
<path d="M30.0329 72.5391C30.0329 103.59 -5.69141 108.419 -5.69141 145.078" stroke="#A96500" stroke-miterlimit="10"/>
<path d="M14.4056 72.5391C14.4056 103.59 -21.2148 108.419 -21.2148 145.078" stroke="#A96500" stroke-miterlimit="10"/>
<path d="M185.183 72.5391C185.183 103.59 149.199 108.419 149.199 145.078" stroke="#A96500" stroke-miterlimit="10"/>
<path d="M169.71 72.5391C169.71 103.59 133.727 108.419 133.727 145.078" stroke="#A96500" stroke-miterlimit="10"/>
<path d="M154.187 72.5391C154.187 103.59 118.203 108.419 118.203 145.078" stroke="#A96500" stroke-miterlimit="10"/>
<path d="M138.71 72.5391C138.71 103.59 102.727 108.419 102.727 145.078" stroke="#A96500" stroke-miterlimit="10"/>
<path d="M123.238 72.5391C123.238 103.59 87.2539 108.419 87.2539 145.078" stroke="#A96500" stroke-miterlimit="10"/>
<path d="M107.714 72.5391C107.714 103.59 71.7305 108.419 71.7305 145.078" stroke="#A96500" stroke-miterlimit="10"/>
<path d="M92.2378 72.5391C92.2378 103.59 56.2539 108.419 56.2539 145.078" stroke="#A96500" stroke-miterlimit="10"/>
<path d="M76.7651 72.539C76.7651 41.4879 40.7812 36.6589 40.7812 0" stroke="#A96500" stroke-miterlimit="10"/>
<path d="M61.1886 72.539C61.1886 41.4879 25.3086 36.6589 25.3086 0" stroke="#A96500" stroke-miterlimit="10"/>
<path d="M45.6094 72.539C45.6094 41.4879 9.78125 36.6589 9.78125 0" stroke="#A96500" stroke-miterlimit="10"/>
<path d="M30.0329 72.539C30.0329 41.4879 -5.69141 36.6589 -5.69141 0" stroke="#A96500" stroke-miterlimit="10"/>
<path d="M14.4056 72.539C14.4056 41.4879 -21.2148 36.6589 -21.2148 0" stroke="#A96500" stroke-miterlimit="10"/>
<path d="M185.183 72.539C185.183 41.4879 149.199 36.6589 149.199 0" stroke="#A96500" stroke-miterlimit="10"/>
<path d="M169.71 72.539C169.71 41.4879 133.727 36.6589 133.727 0" stroke="#A96500" stroke-miterlimit="10"/>
<path d="M154.187 72.539C154.187 41.4879 118.203 36.6589 118.203 0" stroke="#A96500" stroke-miterlimit="10"/>
<path d="M138.71 72.539C138.71 41.4879 102.727 36.6589 102.727 0" stroke="#A96500" stroke-miterlimit="10"/>
<path d="M123.238 72.539C123.238 41.4879 87.2539 36.6589 87.2539 0" stroke="#A96500" stroke-miterlimit="10"/>
<path d="M107.714 72.539C107.714 41.4879 71.7305 36.6589 71.7305 0" stroke="#A96500" stroke-miterlimit="10"/>
<path d="M92.2378 72.539C92.2378 41.4879 56.2539 36.6589 56.2539 0" stroke="#A96500" stroke-miterlimit="10"/>
<path d="M324.601 362.539C324.601 331.488 288.617 326.659 288.617 290" stroke="#A96500" stroke-miterlimit="10"/>
<path d="M309.025 362.539C309.025 331.488 273.145 326.659 273.145 290" stroke="#A96500" stroke-miterlimit="10"/>
<path d="M293.449 362.539C293.449 331.488 257.621 326.659 257.621 290" stroke="#A96500" stroke-miterlimit="10"/>
<path d="M277.873 362.539C277.873 331.488 242.148 326.659 242.148 290" stroke="#A96500" stroke-miterlimit="10"/>
<path d="M262.292 362.539C262.292 331.488 226.672 326.659 226.672 290" stroke="#A96500" stroke-miterlimit="10"/>
<path d="M246.716 362.539C246.716 331.488 211.199 326.659 211.199 290" stroke="#A96500" stroke-miterlimit="10"/>
<path d="M231.137 362.539C231.137 331.488 195.672 326.659 195.672 290" stroke="#A96500" stroke-miterlimit="10"/>
<path d="M215.56 362.539C215.56 331.488 180.199 326.659 180.199 290" stroke="#A96500" stroke-miterlimit="10"/>
<path d="M199.933 362.539C199.933 331.488 164.676 326.659 164.676 290" stroke="#A96500" stroke-miterlimit="10"/>
<path d="M402.074 362.539C402.074 331.488 366.09 326.659 366.09 290" stroke="#A96500" stroke-miterlimit="10"/>
<path d="M386.548 362.539C386.548 331.488 350.564 326.659 350.564 290" stroke="#A96500" stroke-miterlimit="10"/>
<path d="M371.078 362.539C371.078 331.488 335.094 326.659 335.094 290" stroke="#A96500" stroke-miterlimit="10"/>
<path d="M355.601 362.539C355.601 331.488 319.617 326.659 319.617 290" stroke="#A96500" stroke-miterlimit="10"/>
<path d="M340.078 362.539C340.078 331.488 304.094 326.659 304.094 290" stroke="#A96500" stroke-miterlimit="10"/>
<path d="M324.601 217.461C324.601 248.512 288.617 253.341 288.617 290" stroke="#A96500" stroke-miterlimit="10"/>
<path d="M309.025 217.461C309.025 248.512 273.145 253.341 273.145 290" stroke="#A96500" stroke-miterlimit="10"/>
<path d="M293.449 217.461C293.449 248.512 257.621 253.341 257.621 290" stroke="#A96500" stroke-miterlimit="10"/>
<path d="M277.873 217.461C277.873 248.512 242.148 253.341 242.148 290" stroke="#A96500" stroke-miterlimit="10"/>
<path d="M262.292 217.461C262.292 248.512 226.672 253.341 226.672 290" stroke="#A96500" stroke-miterlimit="10"/>
<path d="M246.716 217.461C246.716 248.512 211.199 253.341 211.199 290" stroke="#A96500" stroke-miterlimit="10"/>
<path d="M231.137 217.461C231.137 248.512 195.672 253.341 195.672 290" stroke="#A96500" stroke-miterlimit="10"/>
<path d="M215.56 217.461C215.56 248.512 180.199 253.341 180.199 290" stroke="#A96500" stroke-miterlimit="10"/>
<path d="M199.933 217.461C199.933 248.512 164.676 253.341 164.676 290" stroke="#A96500" stroke-miterlimit="10"/>
<path d="M402.074 217.461C402.074 248.512 366.09 253.341 366.09 290" stroke="#A96500" stroke-miterlimit="10"/>
<path d="M386.548 217.461C386.548 248.512 350.564 253.341 350.564 290" stroke="#A96500" stroke-miterlimit="10"/>
<path d="M371.078 217.461C371.078 248.512 335.094 253.341 335.094 290" stroke="#A96500" stroke-miterlimit="10"/>
<path d="M355.601 217.461C355.601 248.512 319.617 253.341 319.617 290" stroke="#A96500" stroke-miterlimit="10"/>
<path d="M340.078 217.461C340.078 248.512 304.094 253.341 304.094 290" stroke="#A96500" stroke-miterlimit="10"/>
<path d="M324.601 217.565C324.601 186.514 288.617 181.685 288.617 145.026" stroke="#A96500" stroke-miterlimit="10"/>
<path d="M309.025 217.565C309.025 186.514 273.145 181.685 273.145 145.026" stroke="#A96500" stroke-miterlimit="10"/>
<path d="M293.449 217.565C293.449 186.514 257.621 181.685 257.621 145.026" stroke="#A96500" stroke-miterlimit="10"/>
<path d="M277.873 217.565C277.873 186.514 242.148 181.685 242.148 145.026" stroke="#A96500" stroke-miterlimit="10"/>
<path d="M262.292 217.565C262.292 186.514 226.672 181.685 226.672 145.026" stroke="#A96500" stroke-miterlimit="10"/>
<path d="M246.716 217.565C246.716 186.514 211.199 181.685 211.199 145.026" stroke="#A96500" stroke-miterlimit="10"/>
<path d="M231.137 217.565C231.137 186.514 195.672 181.685 195.672 145.026" stroke="#A96500" stroke-miterlimit="10"/>
<path d="M215.56 217.565C215.56 186.514 180.199 181.685 180.199 145.026" stroke="#A96500" stroke-miterlimit="10"/>
<path d="M199.933 217.565C199.933 186.514 164.676 181.685 164.676 145.026" stroke="#A96500" stroke-miterlimit="10"/>
<path d="M402.074 217.565C402.074 186.514 366.09 181.685 366.09 145.026" stroke="#A96500" stroke-miterlimit="10"/>
<path d="M386.548 217.565C386.548 186.514 350.564 181.685 350.564 145.026" stroke="#A96500" stroke-miterlimit="10"/>
<path d="M371.078 217.565C371.078 186.514 335.094 181.685 335.094 145.026" stroke="#A96500" stroke-miterlimit="10"/>
<path d="M355.601 217.565C355.601 186.514 319.617 181.685 319.617 145.026" stroke="#A96500" stroke-miterlimit="10"/>
<path d="M340.078 217.565C340.078 186.514 304.094 181.685 304.094 145.026" stroke="#A96500" stroke-miterlimit="10"/>
<path d="M324.601 72.5391C324.601 103.59 288.617 108.419 288.617 145.078" stroke="#A96500" stroke-miterlimit="10"/>
<path d="M309.025 72.5391C309.025 103.59 273.145 108.419 273.145 145.078" stroke="#A96500" stroke-miterlimit="10"/>
<path d="M293.449 72.5391C293.449 103.59 257.621 108.419 257.621 145.078" stroke="#A96500" stroke-miterlimit="10"/>
<path d="M277.873 72.5391C277.873 103.59 242.148 108.419 242.148 145.078" stroke="#A96500" stroke-miterlimit="10"/>
<path d="M262.292 72.5391C262.292 103.59 226.672 108.419 226.672 145.078" stroke="#A96500" stroke-miterlimit="10"/>
<path d="M246.716 72.5391C246.716 103.59 211.199 108.419 211.199 145.078" stroke="#A96500" stroke-miterlimit="10"/>
<path d="M231.137 72.5391C231.137 103.59 195.672 108.419 195.672 145.078" stroke="#A96500" stroke-miterlimit="10"/>
<path d="M215.56 72.5391C215.56 103.59 180.199 108.419 180.199 145.078" stroke="#A96500" stroke-miterlimit="10"/>
<path d="M199.933 72.5391C199.933 103.59 164.676 108.419 164.676 145.078" stroke="#A96500" stroke-miterlimit="10"/>
<path d="M402.074 72.5391C402.074 103.59 366.09 108.419 366.09 145.078" stroke="#A96500" stroke-miterlimit="10"/>
<path d="M386.548 72.5391C386.548 103.59 350.564 108.419 350.564 145.078" stroke="#A96500" stroke-miterlimit="10"/>
<path d="M371.078 72.5391C371.078 103.59 335.094 108.419 335.094 145.078" stroke="#A96500" stroke-miterlimit="10"/>
<path d="M355.601 72.5391C355.601 103.59 319.617 108.419 319.617 145.078" stroke="#A96500" stroke-miterlimit="10"/>
<path d="M340.078 72.5391C340.078 103.59 304.094 108.419 304.094 145.078" stroke="#A96500" stroke-miterlimit="10"/>
<path d="M324.601 72.539C324.601 41.4879 288.617 36.6589 288.617 0" stroke="#A96500" stroke-miterlimit="10"/>
<path d="M309.025 72.539C309.025 41.4879 273.145 36.6589 273.145 0" stroke="#A96500" stroke-miterlimit="10"/>
<path d="M293.449 72.539C293.449 41.4879 257.621 36.6589 257.621 0" stroke="#A96500" stroke-miterlimit="10"/>
<path d="M277.873 72.539C277.873 41.4879 242.148 36.6589 242.148 0" stroke="#A96500" stroke-miterlimit="10"/>
<path d="M262.292 72.539C262.292 41.4879 226.672 36.6589 226.672 0" stroke="#A96500" stroke-miterlimit="10"/>
<path d="M246.716 72.539C246.716 41.4879 211.199 36.6589 211.199 0" stroke="#A96500" stroke-miterlimit="10"/>
<path d="M231.137 72.539C231.137 41.4879 195.672 36.6589 195.672 0" stroke="#A96500" stroke-miterlimit="10"/>
<path d="M215.56 72.539C215.56 41.4879 180.199 36.6589 180.199 0" stroke="#A96500" stroke-miterlimit="10"/>
<path d="M199.933 72.539C199.933 41.4879 164.676 36.6589 164.676 0" stroke="#A96500" stroke-miterlimit="10"/>
<path d="M402.074 72.539C402.074 41.4879 366.09 36.6589 366.09 0" stroke="#A96500" stroke-miterlimit="10"/>
<path d="M386.548 72.539C386.548 41.4879 350.564 36.6589 350.564 0" stroke="#A96500" stroke-miterlimit="10"/>
<path d="M371.078 72.539C371.078 41.4879 335.094 36.6589 335.094 0" stroke="#A96500" stroke-miterlimit="10"/>
<path d="M355.601 72.539C355.601 41.4879 319.617 36.6589 319.617 0" stroke="#A96500" stroke-miterlimit="10"/>
<path d="M340.078 72.539C340.078 41.4879 304.094 36.6589 304.094 0" stroke="#A96500" stroke-miterlimit="10"/>
</g>
</svg>
