<svg width="140" height="122" viewBox="0 0 140 122" fill="none" xmlns="http://www.w3.org/2000/svg">
<path fill-rule="evenodd" clip-rule="evenodd" d="M98.6387 114.207C98.2957 119.154 96.5239 120.685 91.3319 120.685H88.9792V100.358H91.3215V99.4242H83.3672V100.353L85.6231 100.358V120.685H83.3672V121.618H99.4125V114.207H98.6387Z" fill="white"/>
<path fill-rule="evenodd" clip-rule="evenodd" d="M7.92465 109.667H5.61145V100.353H7.95328C10.4535 100.353 12.5955 100.715 12.5955 104.752C12.5955 108.784 10.4782 109.667 7.92465 109.667ZM15.9886 115.026C15.4166 111.294 13.5026 110.253 11.0779 110.023C14.0623 109.42 16.5315 107.838 16.5315 104.788C16.5315 100.108 11.6089 99.4242 7.95333 99.4242H0V100.353H2.25645V120.685H0V121.618H7.96665V120.685H5.6115V110.751H8.20799C11.5433 110.751 11.8508 112.005 12.2446 114.516C12.4583 115.857 12.483 116.4 12.7263 117.986C13.0989 120.453 14.2696 122.671 18.9143 121.618V120.685C15.956 121.409 16.3548 117.424 15.9886 115.026Z" fill="white"/>
<path fill-rule="evenodd" clip-rule="evenodd" d="M127.035 103.547C127.035 101.309 129.288 100.103 131.494 100.103C135.611 100.103 137.081 102.506 137.918 106.232H138.749V99.4291H137.977C137.882 100.358 137.517 100.626 137.053 100.626C135.991 100.626 134.79 99.1911 131.392 99.1911C127.843 99.1911 124.352 101.572 124.352 105.37C124.352 112.686 137.086 110.806 137.086 116.909C137.086 119.636 134.603 121.061 132.211 121.061C127.602 121.061 125.439 117.463 124.883 114.134H124.086V121.618H124.861C125.02 120.8 125.502 120.692 125.832 120.692C127.298 120.692 128.942 121.994 132.289 121.994C136.61 121.994 139.9 118.994 139.9 115.21C139.9 107.183 127.035 110.375 127.035 103.547Z" fill="white"/>
<path fill-rule="evenodd" clip-rule="evenodd" d="M117.861 114.207C117.515 119.154 115.749 120.685 110.555 120.685H108.203V110.657H110.613C111.971 110.657 112.974 111.257 112.974 113.824L113.856 113.829V106.584H112.974C112.974 109.153 111.971 109.752 110.613 109.752H108.203V100.358H112.785C115.428 100.358 116.772 101.945 117.175 105.613H117.95V99.4242H102.59V100.358H104.847V120.685H102.59V121.618H118.635L118.632 114.207H117.861Z" fill="white"/>
<path fill-rule="evenodd" clip-rule="evenodd" d="M63.5312 100.353H65.7887V120.685H63.5312V121.618H71.4303V120.685H69.1472V110.656H71.5566C72.9173 110.656 73.9133 111.257 73.9133 113.824H74.8041V106.584H73.9133C73.9133 109.153 72.9173 109.75 71.5566 109.75H69.1472V100.353H73.3793C76.0182 100.353 77.367 101.945 77.7703 105.613H78.5431V99.4242H63.5312V100.353Z" fill="white"/>
<path fill-rule="evenodd" clip-rule="evenodd" d="M43.6855 100.353H45.9425V120.685H43.6855V121.618H51.5816V120.685H49.2985V110.656H51.707C53.0687 110.656 54.0646 111.257 54.0646 113.824H54.952V106.584H54.0646C54.0646 109.153 53.0687 109.75 51.707 109.75H49.2985V100.353H53.5331C56.1671 100.353 57.5174 101.945 57.9201 105.613H58.6925V99.4242H43.6855V100.353Z" fill="white"/>
<path fill-rule="evenodd" clip-rule="evenodd" d="M26.1973 113.678L29.4358 104.394L33.0313 113.683L26.1973 113.678ZM31.1628 99.4232H30.2171L23.4996 118.534C23.0031 119.954 22.2752 120.684 21.3029 120.684H20.5078V121.617H26.6444V120.684H25.6939C24.1565 120.684 24.1057 119.66 24.4823 118.596L25.8444 114.686H33.4182L35.7447 120.684H33.3338V121.617H41.7397V120.684H39.2918L31.1628 99.4232Z" fill="white"/>
<path fill-rule="evenodd" clip-rule="evenodd" d="M115.798 60.2028C115.775 60.251 115.757 60.2982 115.738 60.339C114.926 59.8551 114.018 59.3805 113.235 58.8582C113.933 58.1982 114.421 57.5938 114.378 56.9697C114.32 56.1616 113.794 55.2602 112.654 55.3344C111.522 55.4097 110.167 57.4556 111.943 58.9389C111.389 59.4208 110.857 59.8664 110.626 60.0857C110.237 60.4497 109.912 60.7718 109.636 61.0654C108.788 60.5215 107.79 60.0012 107.048 59.5649C107.42 59.2231 107.73 58.901 107.894 58.6418C108.781 57.2328 107.862 56.0879 106.574 56.0992C105.8 56.108 104.879 57.0734 104.883 58.0394C104.883 58.812 105.124 59.1808 105.735 59.6362C105.03 60.2407 104.252 60.8579 103.669 61.3748C103.554 61.483 103.437 61.5897 103.328 61.6994C102.842 61.3497 102.224 60.9557 101.42 60.5279C101.289 60.458 101.177 60.3892 101.058 60.3189C101.481 59.978 101.839 59.6151 102.086 59.2325C102.666 58.3575 102.105 56.5143 100.385 56.8521C99.023 57.1192 98.4939 59.2044 99.6651 60.2933C99.6799 60.3139 99.7119 60.3297 99.7342 60.3489C99.4953 60.5141 99.2396 60.6813 98.9672 60.85C98.604 61.0713 98.2915 61.2612 97.9989 61.4392C97.8947 61.1161 97.7753 60.7812 97.6475 60.4256C97.2482 59.323 96.7315 58.2651 96.1318 57.2712C98.6232 56.5143 101.086 55.692 103.465 54.8707C109.634 52.75 114.388 52.1421 116.448 53.5767C117.747 54.4836 117.439 56.7484 115.798 60.2028ZM117.338 63.1959C117.16 64.2503 115.778 64.0871 115.789 62.4774C115.789 62.168 115.877 61.8051 115.994 61.4264C117.039 62.1892 117.415 62.7434 117.338 63.1959ZM112.571 58.3723C112.314 58.1589 112.09 57.9376 111.912 57.7064C111.437 57.0887 111.982 55.6861 112.695 55.72C113.699 55.7594 113.735 56.8448 113.586 57.2328C113.5 57.4733 113.073 57.909 112.571 58.3723ZM110.895 63.491C110.869 64.8095 109.173 64.5346 109.135 63.3705C109.119 62.952 109.336 62.5541 109.764 62.0721C110.412 62.5467 110.899 63.0459 110.895 63.491ZM106.335 59.1041C106.312 59.0874 106.286 59.0692 106.266 59.052C105.434 58.388 105.513 57.6385 105.738 57.1541C106.107 56.3682 107.346 56.0766 107.483 57.4959C107.521 57.88 107.021 58.4662 106.335 59.1041ZM104.428 64.2322C104.355 65.0481 103.062 65.4263 102.758 64.2391C102.645 63.7994 103.026 63.2304 103.505 62.7061C104.08 63.1999 104.472 63.7163 104.428 64.2322ZM100.391 59.8472C99.2452 58.8734 99.6133 58.0393 100.019 57.5554C100.458 57.0405 101.087 57.2825 101.275 57.4354C101.978 57.9966 101.58 58.8656 100.391 59.8472ZM96.615 65.1553C96.2626 65.0082 95.9507 64.5862 96.1288 63.9218C96.2379 63.5121 96.8094 63.0749 97.5591 62.5925C98.1948 65.048 97.1258 65.3648 96.615 65.1553ZM86.5069 49.4943C81.4196 51.3499 79.2287 50.3687 79.0733 49.3561C78.9134 48.2864 80.7355 47.8615 81.995 48.0218C82.9737 48.1502 84.6349 48.609 86.5069 49.4943ZM84.9188 39.9198C82.35 42.0237 80.6221 42.7939 79.2713 42.3714C78.0167 41.9755 79.1637 40.3998 80.0313 40.0083C81.2573 39.4472 82.6609 39.2878 84.9188 39.9198ZM82.1078 31.2233C81.5269 32.4065 80.9801 33.4118 80.4954 34.0811C79.2848 35.7538 76.5807 35.8566 77.4118 33.7531C77.8372 32.681 79.6574 31.6944 82.1078 31.2233ZM91.2042 57.9617C86.6144 59.0559 77.3931 61.3069 74.1792 56.5758C74.046 55.2809 73.3896 53.9535 71.831 52.7874C71.4164 52.4781 71.0137 52.2071 70.6139 51.9499C72.3324 50.8777 73.9927 49.7318 74.1472 47.5369C74.3599 44.4808 72.3931 43.1781 70.7418 42.3459C72.4114 41.5084 73.9927 40.6025 74.123 38.2821C74.3258 34.6443 71.5837 32.1985 70.9782 31.4726C70.8528 31.3226 70.7265 31.1825 70.5986 31.0384C73.9729 27.5111 77.9365 25.5498 83.5164 25.027C84.0287 24.9813 84.5015 24.9582 84.9625 24.9503C84.1003 26.9023 83.244 28.8646 82.4465 30.5372C80.2537 30.8352 78.4286 31.4864 77.555 32.3825C75.8888 34.0836 76.6548 36.1507 78.6087 36.039C80.19 35.9505 81.3187 34.933 83.1157 31.06C84.5233 30.881 86.0878 30.8657 87.6927 31.0905C89.6003 31.3536 91.2793 31.9261 92.7041 32.6116C91.2516 33.9666 90.1402 35.0549 89.6921 35.5064C88.0984 37.09 86.7284 38.38 85.5276 39.4099C84.4389 39.1197 83.3378 38.9323 82.2397 38.9082C80.3539 38.8689 77.2939 40.2513 78.4044 42.6267C79.2187 44.3653 82.2984 42.8284 83.9429 41.618C84.5144 41.1917 85.1239 40.7053 85.7467 40.1785C86.5927 40.4633 87.5397 40.84 88.6285 41.3358C90.5019 42.1885 92.8443 43.7446 94.8539 45.3626C93.3403 46.2371 91.755 47.1095 90.0415 47.9594C89.1378 48.4123 88.2988 48.7895 87.521 49.1107C84.5114 47.4302 81.7066 46.7589 80.3312 47.3766C77.1365 48.82 78.2346 51.3499 81.7718 51.4753C83.2845 51.5328 85.3277 50.9372 87.5432 50.02C89.4285 51.041 91.4426 52.484 93.1582 54.4433C93.7632 55.1427 94.3505 55.9782 94.8836 56.8448C93.3097 57.3597 92.0136 57.765 91.2042 57.9617ZM70.4014 62.4671C70.4063 59.9205 70.4132 56.3834 70.4201 52.5901C71.9545 53.5713 73.2999 54.6459 73.3715 56.5452C73.4672 59.1734 71.8341 61.1593 70.4014 62.4671ZM73.2557 46.9511C73.3105 49.272 72.0796 50.2359 70.4248 51.2982C70.4292 48.5082 70.4342 45.6267 70.4371 42.9434C71.9178 43.7446 73.2034 44.7439 73.2557 46.9511ZM70.4562 32.1873C70.7706 32.5561 71.0786 32.9156 71.386 33.31C74.9849 38.021 73.2477 40.306 70.4404 41.7696C70.4483 37.5455 70.4523 33.9509 70.4562 32.1873ZM78.6388 14.9318C77.6285 14.9568 76.7565 14.7301 76.6967 13.7082C76.6084 12.2922 78.28 12.4349 78.4873 13.57C78.5366 13.8468 78.5781 14.3362 78.6388 14.9318ZM81.779 11.2176C80.9958 11.2683 80.371 11.2221 80.0838 10.9373C79.0399 9.90008 79.9332 8.81123 80.3927 8.84074C81.3433 8.90418 81.6221 9.40582 81.779 11.2176ZM84.3524 7.12046C84.1989 7.1357 84.0434 7.15193 83.9013 7.16324C82.5031 7.26701 81.977 6.23472 82.2188 5.3657C82.5031 4.33586 84.1041 4.71799 84.2872 6.37636C84.308 6.57652 84.3287 6.8357 84.3524 7.12046ZM74.2692 11.4055C77.1569 4.7032 82.5443 0.26909 84.6497 1.36483C85.9759 2.05532 86.3381 4.66434 87.0819 6.76877C86.4428 6.84058 85.779 6.93943 85.1536 7.02156C84.8047 4.86648 84.2687 4.15975 82.7837 4.37664C81.1313 4.61074 81.0909 8.25156 84.4153 7.89845C84.4903 8.82451 84.5969 9.90747 84.7929 10.8655C84.0348 10.9447 83.255 11.0647 82.5414 11.1448C82.5271 10.8999 82.5117 10.6899 82.5029 10.5389C82.3973 9.28435 81.6589 7.88861 79.9898 8.59779C78.7209 9.13238 78.7308 12.3026 81.8445 12.0896C81.8593 12.3478 81.879 12.6227 81.8938 12.9212C81.9254 13.5567 81.9753 14.1001 82.0424 14.5717C81.6673 14.5953 81.27 14.6303 80.8584 14.6814C80.4468 14.7321 79.9503 14.8147 79.4454 14.8732C79.2401 12.7181 78.8226 12.1594 77.3518 12.3552C75.5682 12.6001 76.0326 15.2391 77.7141 15.6311C77.9475 15.6827 78.2955 15.6812 78.7086 15.6522C78.7791 16.3265 78.8759 17.0608 79.0067 17.7513C78.2372 17.9042 77.3884 18.2258 76.498 18.784C73.3063 20.7817 71.3198 25.0004 70.4014 28.2041C70.468 24.8603 71.078 18.8067 74.2692 11.4055ZM71.1119 70.1756C70.6356 70.9418 70.2294 72.0877 70.0088 73.8199C69.7892 72.0877 69.38 70.9418 68.9062 70.1717C69.5059 69.551 69.8514 68.8645 70.0088 68.4695C70.1653 68.8645 70.5102 69.551 71.1119 70.1756ZM75.0622 69.0745C76.8429 69.2564 76.3918 70.6536 75.039 70.8115C74.4162 70.8873 73.2189 70.7432 72.1933 70.0679C72.9815 69.2505 74.0021 68.9653 75.0622 69.0745ZM64.9752 70.8115C63.6258 70.6536 63.1728 69.2564 64.9559 69.0745C66.0106 68.9653 67.0352 69.2505 67.8229 70.0679C66.7968 70.7432 65.5946 70.8873 64.9752 70.8115ZM55.6641 7.12046C55.6853 6.8357 55.7065 6.57652 55.7297 6.37636C55.9153 4.71799 57.5148 4.33586 57.7991 5.3657C58.0375 6.23472 57.5148 7.26701 56.1132 7.16324C55.9745 7.15193 55.8166 7.1357 55.6641 7.12046ZM58.2324 11.2176C58.3923 9.40582 58.6736 8.90418 59.6227 8.84074C60.0832 8.81123 60.976 9.90008 59.9351 10.9373C59.6454 11.2221 59.0171 11.2683 58.2324 11.2176ZM61.3797 14.9318C61.4355 14.3362 61.4819 13.8469 61.5302 13.57C61.7336 12.4349 63.4067 12.2923 63.3218 13.7082C63.2591 14.7301 62.3895 14.9569 61.3797 14.9318ZM63.5195 18.784C62.6267 18.2258 61.7753 17.9042 61.0074 17.7513C61.1397 17.0608 61.2359 16.3265 61.307 15.6522C61.723 15.6813 62.071 15.6827 62.3 15.6311C63.9844 15.2391 64.4508 12.6001 62.6677 12.3552C61.1925 12.1594 60.7705 12.7181 60.5682 14.8732C60.0687 14.8147 59.5717 14.7321 59.1571 14.6814C58.7441 14.6303 58.3453 14.5953 57.9786 14.5717C58.0398 14.1001 58.0906 13.5567 58.1222 12.9212C58.139 12.6227 58.1572 12.3478 58.1691 12.0896C61.2867 12.3026 61.2937 9.13239 60.0282 8.5978C58.3547 7.88862 57.6143 9.28436 57.5142 10.5389C57.5028 10.6899 57.4885 10.8999 57.4717 11.1449C56.764 11.0647 55.9827 10.9447 55.2212 10.8655C55.4152 9.90747 55.5267 8.82452 55.6017 7.89845C58.9237 8.25157 58.8852 4.61074 57.2319 4.37664C55.7429 4.15976 55.2064 4.86648 54.8594 7.02157C54.2331 6.93943 53.5728 6.84058 52.9356 6.76878C53.6749 4.66435 54.0421 2.05533 55.3648 1.36483C57.4717 0.269095 62.8582 4.7032 65.7483 11.4055C68.9385 18.8067 69.5515 24.8623 69.6117 28.2041C68.6977 25.0004 66.7092 20.7818 63.5195 18.784ZM66.6437 56.5453C66.7168 54.6459 68.0597 53.5713 69.5946 52.5902C69.6025 56.3835 69.6089 59.9205 69.6118 62.4671C68.1776 61.1594 66.548 59.1735 66.6437 56.5453ZM69.5945 51.2982C67.9363 50.2359 66.7059 49.272 66.7626 46.9511C66.8125 44.739 68.0986 43.7446 69.5768 42.9434C69.5827 45.6267 69.5896 48.5082 69.5945 51.2982ZM68.6308 33.31C68.9363 32.9156 69.2512 32.5561 69.5616 32.1873C69.5655 33.9509 69.5675 37.5455 69.5764 41.7696C66.7716 40.306 65.0329 38.021 68.6308 33.31ZM57.9023 31.2233C60.3577 31.6944 62.1813 32.681 62.6057 33.7531C63.4324 35.8566 60.7313 35.7538 59.5216 34.0811C59.038 33.4118 58.4916 32.4065 57.9023 31.2233ZM55.0957 39.9198C57.3551 39.2878 58.7568 39.4471 59.9866 40.0083C60.8513 40.3998 61.9983 41.9755 60.7462 42.3714C59.3979 42.7939 57.6636 42.0237 55.0957 39.9198ZM53.5117 49.4943C55.3837 48.609 57.0415 48.1502 58.0212 48.0218C59.2816 47.8615 61.1033 48.2864 60.9434 49.3561C60.7869 50.3687 58.5961 51.3498 53.5117 49.4943ZM65.8371 56.5758C62.6227 61.3069 53.4015 59.0559 48.817 57.9617C48.0017 57.765 46.7086 57.3597 45.1367 56.8448C45.6673 55.9782 46.2516 55.1427 46.8606 54.4433C48.5772 52.484 50.5863 51.041 52.4731 50.02C54.6886 50.9372 56.7318 51.5328 58.2435 51.4753C61.7817 51.3499 62.8813 48.82 59.6866 47.3766C58.3107 46.7589 55.5039 47.4302 52.5018 49.1107C51.7151 48.7895 50.879 48.4123 49.9699 47.9594C48.2638 47.1095 46.678 46.2371 45.1639 45.3626C47.174 43.7446 49.5139 42.1885 51.3888 41.3358C52.48 40.84 53.4237 40.4633 54.2701 40.1785C54.8959 40.7053 55.5 41.1917 56.073 41.618C57.716 42.8284 60.8001 44.3653 61.6105 42.6267C62.7219 40.2513 59.6639 38.8689 57.7777 38.9082C56.681 38.9323 55.5809 39.1197 54.4917 39.4099C53.2899 38.38 51.9194 37.09 50.3272 35.5064C49.8737 35.0549 48.7622 33.9666 47.3137 32.6116C48.7376 31.9261 50.4151 31.3536 52.3231 31.0905C53.931 30.8657 55.4921 30.881 56.9006 31.06C58.6991 34.933 59.8263 35.9505 61.4071 36.039C63.3595 36.1507 64.129 34.0836 62.4613 32.3825C61.5882 31.4864 59.7651 30.8352 57.5699 30.5372C56.7718 28.8646 55.9155 26.9023 55.0528 24.9503C55.5108 24.9582 55.9911 24.9813 56.4984 25.027C62.0818 25.5498 66.0454 27.5111 69.4192 31.0384C69.2918 31.1825 69.163 31.3226 69.0357 31.4726C68.4301 32.1985 65.693 34.6443 65.8934 38.2821C66.0246 40.6025 67.6089 41.5084 69.2741 42.3459C67.6217 43.1781 65.6579 44.4808 65.8682 47.5369C66.0202 49.7318 67.6829 50.8777 69.4019 51.9499C69.0051 52.2071 68.5999 52.4781 68.1839 52.7874C66.6282 53.9535 65.9694 55.2809 65.8371 56.5758ZM42.3662 60.4256C42.2369 60.7812 42.1224 61.1161 42.0118 61.4392C41.7207 61.2612 41.4102 61.0713 41.048 60.85C40.7726 60.6813 40.5189 60.5141 40.282 60.3489C40.3022 60.3297 40.3309 60.3139 40.3496 60.2933C41.5188 59.2044 40.9892 57.1192 39.6271 56.8521C37.9036 56.5143 37.3464 58.3575 37.9278 59.2325C38.1771 59.6151 38.5354 59.978 38.9529 60.3189C38.8409 60.3892 38.7234 60.458 38.5941 60.5279C37.7887 60.9557 37.1737 61.3497 36.69 61.6994C36.577 61.5897 36.4586 61.483 36.3426 61.3748C35.7627 60.8579 34.9814 60.2407 34.2771 59.6362C34.8901 59.1808 35.1295 58.812 35.1329 58.0394C35.1364 57.0734 34.2125 56.108 33.4416 56.0992C32.1515 56.0879 31.234 57.2328 32.1199 58.6418C32.2828 58.901 32.5962 59.2231 32.9658 59.5649C32.2245 60.0012 31.2266 60.5215 30.3748 61.0654C30.1008 60.7718 29.7756 60.4497 29.3872 60.0857C29.1547 59.8664 28.6227 59.4208 28.069 58.9389C29.8417 57.4575 28.4949 55.4097 27.3607 55.3344C26.2187 55.2602 25.6891 56.1616 25.6358 56.9697C25.5944 57.5938 26.077 58.1982 26.7798 58.8582C25.9996 59.3805 25.087 59.8551 24.2771 60.339C24.2544 60.2982 24.2381 60.251 24.2164 60.2028C22.5754 56.7484 22.2625 54.4836 23.5669 53.5767C25.6274 52.1421 30.3797 52.75 36.5474 54.8707C38.9267 55.692 41.3915 56.5143 43.8823 57.2712C43.2812 58.2651 42.7645 59.323 42.3662 60.4256ZM43.8883 63.9218C44.0655 64.5862 43.7541 65.0082 43.4042 65.1553C42.8933 65.3648 41.8248 65.048 42.4551 62.5925C43.2082 63.0749 43.7812 63.5121 43.8883 63.9218ZM39.621 59.8472C38.4316 58.8656 38.0388 57.9966 38.7401 57.4354C38.9281 57.2825 39.5539 57.0405 39.9956 57.5554C40.4018 58.0393 40.7685 58.8734 39.621 59.8472ZM37.2577 64.2391C36.9527 65.4263 35.6592 65.0481 35.5896 64.2322C35.5437 63.7163 35.9346 63.1999 36.5145 62.7061C36.9907 63.2304 37.3698 63.7994 37.2577 64.2391ZM33.7519 59.052C33.7282 59.0692 33.704 59.0874 33.6778 59.1041C32.9963 58.4662 32.4978 57.88 32.5309 57.4959C32.669 56.0766 33.9049 56.3682 34.2794 57.1541C34.5035 57.6385 34.5785 58.388 33.7519 59.052ZM30.8801 63.3705C30.8451 64.5346 29.1468 64.8095 29.1271 63.491C29.1158 63.0459 29.6034 62.5468 30.2469 62.0722C30.6763 62.5541 30.8959 62.952 30.8801 63.3705ZM27.4411 58.3723C26.9446 57.909 26.5211 57.4733 26.4273 57.2328C26.2837 56.8448 26.3173 55.7594 27.3246 55.72C28.0358 55.6861 28.5782 57.0887 28.1073 57.7064C27.9292 57.9376 27.7012 58.1589 27.4411 58.3723ZM22.6783 63.1959C22.5988 62.7434 22.9729 62.1892 24.0177 61.4264C24.1386 61.8051 24.2265 62.168 24.2285 62.4774C24.2398 64.0871 22.8564 64.2503 22.6783 63.1959ZM42.3264 46.899C41.7144 47.4813 41.2426 48.0041 40.8689 48.4821C40.4198 48.0159 39.9416 47.5423 39.491 47.0987C40.1765 46.6108 41.014 45.7226 39.9993 44.2325C39.2205 43.0934 36.7909 43.1943 37.2345 45.3764C37.3076 45.7177 37.7537 46.2518 38.3435 46.8705C37.928 47.0854 37.5351 47.2374 37.3555 47.3372C37.0766 47.4848 36.398 47.7961 35.7302 48.1408C35.3912 47.6175 35.0077 47.1631 34.7215 46.7864C34.4248 46.4043 34.0631 45.9867 33.7122 45.5657C34.6484 45.0931 35.1049 44.6146 34.907 43.3738C34.6114 41.5738 32.425 41.3943 31.7987 42.909C31.476 43.6954 31.6729 44.202 32.4709 45.2584C32.0766 45.459 31.7351 45.6066 31.5984 45.6813C31.0673 45.9498 30.4711 46.2415 29.9238 46.5439C29.3804 45.8023 28.649 44.978 28.0039 44.2325C28.6969 43.8031 29.1647 43.3275 29.2457 42.7064C29.3627 41.7592 28.418 40.4077 27.197 40.6669C25.63 40.9974 25.5975 42.3041 26.3842 43.4348C26.4518 43.5257 26.6304 43.7387 26.8723 44.0234C26.3738 44.2511 25.9089 44.4154 25.6962 44.5034C25.4188 44.6244 25.0871 44.7543 24.7456 44.8993C24.5383 43.4116 24.0803 41.8236 23.8943 40.8533C22.8613 35.5742 30.5787 37.2852 37.6205 41.6775C38.3435 42.128 40.7831 43.7544 43.8267 45.5584C43.2656 46.0364 42.7543 46.4938 42.3264 46.899ZM41.8997 51.1374C42.0132 51.8441 41.8557 52.18 41.3686 52.2646C40.9086 52.3453 39.9374 51.8598 40.9146 49.809C40.9383 49.7559 40.9753 49.6944 41.0074 49.6403C41.4826 50.2074 41.834 50.7262 41.8997 51.1374ZM38.9296 46.5228C38.4312 45.9981 38.0571 45.5427 37.9658 45.2318C37.5615 43.7982 39.3338 43.4855 39.7538 44.7302C40.0189 45.5196 39.5396 46.1019 38.9296 46.5228ZM35.4892 51.2643C35.0288 51.6567 33.4253 50.9933 34.7233 49.5759C34.8521 49.4358 35.0954 49.2774 35.4029 49.1087C36.1767 50.4243 35.8683 50.9387 35.4892 51.2643ZM32.4914 42.9897C32.8907 41.6928 34.2864 42.187 34.3733 43.4741C34.4053 43.9792 33.82 44.4779 33.1685 44.8723C32.6711 44.1926 32.3251 43.5257 32.4914 42.9897ZM28.73 49.5695C28.2478 48.9124 28.499 48.3773 29.7186 47.5983C29.9569 47.9711 30.1218 48.2967 30.1405 48.5082C30.2822 49.8247 29.0913 50.0608 28.73 49.5695ZM26.5697 42.2239C26.3249 41.1734 27.8277 40.4441 28.4747 41.9382C28.7916 42.669 28.2398 43.2484 27.535 43.6772C27.0306 43.0723 26.6437 42.5485 26.5697 42.2239ZM23.8946 47.8039C22.7555 49.1141 21.6391 47.2836 23.6488 46.2651C23.8531 46.1603 24.0555 46.0634 24.2692 45.9666C24.3407 46.7343 24.2692 47.3643 23.8946 47.8039ZM42.6337 35.05C42.3213 34.6462 41.9551 34.1613 41.6101 33.6163C42.0089 33.4206 42.3884 33.1904 42.7087 32.8673C43.4579 32.1213 43.0053 29.7532 41.3742 29.7714C39.8343 29.7985 39.6493 31.2296 40.0155 32.2014C40.1314 32.5108 40.3002 32.8481 40.4907 33.1904C39.8432 33.4575 39.1952 33.6522 38.8399 33.7993C38.5911 33.8952 38.2614 34.0172 37.9155 34.1632C37.5601 33.3714 37.0997 32.5378 36.6915 31.7868C37.3326 31.5188 37.8271 31.1962 38.0068 30.785C38.6454 29.3421 37.6564 27.5111 36.3016 27.937C34.4982 28.5026 35.0283 30.0778 35.5124 31.148C35.5302 31.1873 35.5559 31.2326 35.5751 31.2783C35.2188 31.3885 34.855 31.4863 34.4982 31.5965C34.1182 31.7067 33.5131 31.8704 32.9002 32.0834C32.643 31.3801 32.3138 30.5775 31.9827 29.6799C32.6707 29.4193 33.2135 29.1213 33.4031 28.8021C34.0526 27.7127 33.3967 25.0619 31.5138 26.014C30.4117 26.5786 30.4922 27.9208 30.8929 29.257C30.2854 29.4213 29.6221 29.5555 28.9933 29.6996C29.0096 28.8468 28.9588 27.8165 28.8186 26.5634C28.0758 19.7691 37.0942 24.5298 41.4285 28.2567C42.8923 29.5152 44.4514 30.9788 46.0297 32.4945C44.6049 33.3281 43.448 34.2562 42.6337 35.05ZM42.7117 38.7056C41.9393 38.7592 41.537 37.749 42.2068 36.5638C42.2704 36.4521 42.3775 36.3021 42.5202 36.1325C42.5611 36.188 42.6125 36.2524 42.651 36.3002C43.4085 37.2705 43.6435 38.6441 42.7117 38.7056ZM40.6031 31.3113C40.422 30.3759 42.1474 29.4149 42.4292 31.27C42.5314 31.9556 41.9332 32.4754 41.184 32.8703C40.9215 32.3702 40.7087 31.8405 40.6031 31.3113ZM37.7654 36.7674C37.2486 37.9487 35.6535 37.0093 36.5853 35.9583C36.8582 35.651 37.1746 35.4242 37.4998 35.2226C37.7584 35.8969 37.8937 36.4678 37.7654 36.7674ZM35.7565 29.8359C35.3711 28.3604 37.3566 27.5209 37.6616 29.2098C37.8407 30.1875 37.1878 30.6827 36.29 31.0354C36.0309 30.5504 35.8335 30.1319 35.7565 29.8359ZM32.0666 35.108C31.2478 35.4955 30.4636 34.0811 31.9245 33.2923C32.0666 33.2111 32.2433 33.1418 32.4387 33.0675C32.7541 34.1401 32.6174 34.8498 32.0666 35.108ZM31.5137 28.3605C30.6549 25.6826 33.3807 25.7746 33.1596 27.6134C33.0787 28.2808 32.5131 28.689 31.7338 28.9885C31.6627 28.779 31.5897 28.5764 31.5137 28.3605ZM27.5618 32.7454C26.1735 33.2441 25.6617 31.2518 28.0889 30.7231C28.1698 30.7039 28.2488 30.6857 28.3352 30.6714C28.2597 31.7377 28.0455 32.5747 27.5618 32.7454ZM41.8748 15.7889C41.8886 15.5583 41.9 15.3316 41.9202 15.1048C42.1053 13.0063 43.4516 13.2094 43.8874 13.8522C44.2127 14.3361 43.7937 15.7137 42.4285 15.7943C42.2672 15.8012 42.0747 15.7963 41.8748 15.7889ZM49.5551 25.3634C49.4396 24.7737 49.3103 24.1688 49.1983 23.5885C49.4081 23.5836 49.6005 23.5713 49.7664 23.5521C51.1038 23.3903 52.311 21.3999 50.6384 20.1754C49.7249 19.5099 48.2275 20.0558 48.2665 21.9763C48.2714 22.2783 48.3094 22.5414 48.3405 22.8134C47.5227 22.7622 46.5544 22.7008 45.6503 22.7106C45.6207 21.8957 45.5081 20.9519 45.3976 20.1035C46.166 20.0401 46.6793 19.8906 47.0129 19.5596C47.8934 18.6783 47.7182 16.6235 46.4009 16.3786C45.2061 16.1563 44.5581 16.9826 44.4145 17.8531C44.3784 18.0872 44.4273 18.6724 44.5117 19.3801C43.688 19.3963 42.7364 19.3944 41.8333 19.4313C41.8283 18.6896 41.8076 17.676 41.8387 16.5857C41.9438 16.5906 42.0307 16.6014 42.1457 16.6014C44.5334 16.6452 44.8206 14.6971 44.4569 13.9348C44.1667 13.324 43.4022 12.8007 42.4275 13.0063C41.7444 13.1485 41.1512 13.6122 41.0145 15.7176C40.33 15.6498 39.5635 15.5455 38.8281 15.4757C38.9446 15.1029 39.0635 14.6844 39.1845 14.2157C39.8206 11.6804 40.6014 8.35582 44.3419 10.2532C47.7661 11.9957 51.5372 19.1775 53.9713 24.424C52.1847 24.5603 50.6602 24.9178 49.5551 25.3634ZM48.9779 21.6503C49.0011 20.7011 50.0113 20.1591 50.5419 20.559C51.4322 21.2421 50.6396 22.8985 49.3426 22.8641C49.2646 22.8641 49.1634 22.8567 49.0761 22.8508C49.0109 22.4175 48.9685 22.0113 48.9779 21.6503ZM47.9649 28.7274C47.2542 28.4239 47.7443 27.2077 48.3923 26.7449C48.5487 26.6318 48.7521 26.4941 48.9939 26.347C49.0072 26.4316 49.029 26.5152 49.0354 26.6038C49.2417 28.2164 48.7713 29.0618 47.9649 28.7274ZM45.2059 18.3985C45.117 17.077 45.9363 16.7205 46.5221 16.8232C47.1099 16.9221 47.4125 18.3813 46.5039 19.085C46.3114 19.237 45.8657 19.3054 45.3071 19.3428C45.2612 18.9837 45.2241 18.6532 45.2059 18.3985ZM42.9339 24.7226C42.812 24.3041 43.0336 23.7134 44.2127 23.5118C44.42 23.4739 44.6751 23.4606 44.9426 23.4523C44.8874 25.086 43.2903 25.9418 42.9339 24.7226ZM39.7515 21.8957C39.1509 21.848 38.7393 20.528 41.0609 20.1862C41.0145 21.3808 40.7386 21.9729 39.7515 21.8957ZM36.6078 17.9327C35.3552 18.2342 35.5304 16.6309 36.2619 16.3191C36.8156 16.0806 37.3249 16.0653 37.9325 16.1357C37.5964 17.0942 37.1882 17.796 36.6078 17.9327ZM58.1642 20.0514C57.3681 19.4686 58.5748 18.1585 60.1536 18.2362C59.6344 20.2024 58.7006 20.4532 58.1642 20.0514ZM56.2588 16.7033C55.0995 17.168 54.5378 16.0806 55.4637 15.49C55.7939 15.2785 56.3525 15.2126 57.008 15.22C56.8352 15.9828 56.5939 16.5646 56.2588 16.7033ZM52.1211 12.399C52.1907 11.7001 52.931 11.4808 54.2187 11.5481C53.5164 13.9083 52.0308 13.2517 52.1211 12.399ZM49.7906 7.86942C50.1134 7.37368 51.0047 7.30089 52.1058 7.38942C51.1226 9.80171 49.2255 8.7286 49.7906 7.86942ZM90.2282 7.86944C90.7913 8.72862 88.8941 9.80174 87.914 7.38944C89.0151 7.30092 89.9019 7.3737 90.2282 7.86944ZM87.8944 12.399C87.9857 13.2517 86.4967 13.9083 85.7939 11.5481C87.0875 11.4808 87.8234 11.6967 87.8944 12.399ZM84.5531 15.49C85.4745 16.0806 84.9124 17.168 83.7575 16.7033C83.4195 16.5646 83.1806 15.9828 83.0049 15.22C83.6652 15.2126 84.2205 15.2785 84.5531 15.49ZM81.8518 20.0514C81.3129 20.4532 80.3801 20.2024 79.8644 18.2362C81.4378 18.1585 82.6459 19.4686 81.8518 20.0514ZM98.1404 15.7889C97.9395 15.7963 97.75 15.8012 97.5896 15.7943C96.223 15.7137 95.8035 14.3361 96.1312 13.8522C96.5655 13.2094 97.9133 13.0063 98.0935 15.1048C98.1152 15.3315 98.126 15.5582 98.1404 15.7889ZM95.6723 10.2532C99.4123 8.35585 100.199 11.6804 100.831 14.2157C100.951 14.6844 101.071 15.1029 101.188 15.4757C100.451 15.5455 99.6848 15.6498 98.9973 15.7177C98.864 13.6123 98.2693 13.1485 97.5892 13.0063C96.6145 12.8008 95.8485 13.3241 95.5613 13.9349C95.1971 14.6972 95.4798 16.6452 97.872 16.6014C97.9831 16.6014 98.0709 16.5906 98.1775 16.5857C98.2081 17.676 98.1884 18.6896 98.1824 19.4313C97.2812 19.3944 96.3287 19.3964 95.5011 19.3801C95.5869 18.6724 95.6417 18.0872 95.6003 17.8531C95.4596 16.9826 94.8086 16.1564 93.6128 16.3786C92.2951 16.6236 92.1223 18.6783 93.0058 19.5596C93.3359 19.8906 93.8453 20.0401 94.6157 20.1036C94.5066 20.9519 94.3965 21.8957 94.3625 22.7106C93.4623 22.7008 92.493 22.7623 91.6791 22.8134C91.7033 22.5414 91.7408 22.2783 91.7497 21.9764C91.7872 20.0559 90.2913 19.51 89.3763 20.1754C87.7022 21.4 88.9089 23.3903 90.2474 23.5521C90.4172 23.5713 90.6062 23.5836 90.813 23.5885C90.7049 24.1688 90.5716 24.7737 90.4581 25.3634C89.357 24.9178 87.8281 24.5603 86.0449 24.4241C88.4756 19.1775 92.2492 11.9957 95.6723 10.2532ZM95.8027 23.5118C96.9783 23.7134 97.2048 24.3041 97.0795 24.7226C96.7251 25.9418 95.1275 25.086 95.0723 23.4523C95.3403 23.4606 95.5954 23.4739 95.8027 23.5118ZM94.8086 18.3985C94.7898 18.6533 94.7543 18.9837 94.7098 19.3428C94.1477 19.3054 93.703 19.237 93.5096 19.0851C92.599 18.3813 92.9025 16.9221 93.4953 16.8233C94.0801 16.7205 94.8994 17.077 94.8086 18.3985ZM90.6743 22.8641C89.3763 22.8985 88.5886 21.2421 89.4775 20.559C90.0011 20.1591 91.0129 20.7011 91.0385 21.6503C91.0449 22.0113 91.0074 22.4175 90.9428 22.8508C90.8525 22.8567 90.7513 22.8641 90.6743 22.8641ZM91.6281 26.7449C92.2742 27.2077 92.7628 28.4239 92.0506 28.7274C91.2437 29.0618 90.7748 28.2164 90.9747 26.6038C90.9855 26.5152 91.0087 26.4316 91.0231 26.347C91.2649 26.4941 91.4643 26.6298 91.6281 26.7449ZM103.753 16.3191C104.485 16.6309 104.663 18.2342 103.407 17.9327C102.828 17.796 102.422 17.0942 102.085 16.1357C102.693 16.0654 103.196 16.0806 103.753 16.3191ZM100.265 21.8957C99.2789 21.9729 99.0025 21.3808 98.9531 20.1862C101.275 20.528 100.861 21.848 100.265 21.8957ZM98.5886 28.2567C102.92 24.5298 111.939 19.7691 111.194 26.5634C111.056 27.8165 111.005 28.8468 111.02 29.6996C110.388 29.5555 109.731 29.4213 109.122 29.257C109.524 27.9208 109.602 26.5786 108.496 26.014C106.616 25.0619 105.962 27.7127 106.612 28.8021C106.8 29.1213 107.34 29.4193 108.036 29.6799C107.701 30.5775 107.371 31.3801 107.116 32.0834C106.499 31.8704 105.895 31.7067 105.514 31.5965C105.164 31.4863 104.795 31.3885 104.441 31.2783C104.465 31.2326 104.485 31.1873 104.502 31.148C104.99 30.0778 105.516 28.5026 103.713 27.937C102.359 27.5111 101.371 29.3421 102.012 30.785C102.192 31.1962 102.685 31.5188 103.323 31.7868C102.915 32.5378 102.454 33.3714 102.101 34.1632C101.754 34.0172 101.424 33.8952 101.177 33.7993C100.822 33.6522 100.172 33.4575 99.5234 33.1904C99.7154 32.8481 99.8817 32.5108 100.001 32.2014C100.364 31.2296 100.179 29.7985 98.6424 29.7714C97.0088 29.7532 96.5597 32.1213 97.3064 32.8673C97.6267 33.1904 98.0082 33.4206 98.4075 33.6163C98.0625 34.1613 97.6958 34.6491 97.3804 35.0519C96.5696 34.2562 95.4127 33.3281 93.9834 32.4945C95.5677 30.9788 97.1253 29.5152 98.5886 28.2567ZM108.496 28.3605C108.431 28.5764 108.349 28.779 108.284 28.9885C107.503 28.689 106.935 28.2808 106.851 27.6134C106.633 25.7746 109.359 25.6826 108.496 28.3605ZM108.092 33.2923C109.553 34.0811 108.772 35.4955 107.951 35.108C107.399 34.8498 107.262 34.1401 107.578 33.0675C107.774 33.1418 107.951 33.2111 108.092 33.2923ZM104.26 29.8359C104.18 30.1319 103.982 30.5504 103.73 31.0354C102.829 30.6827 102.177 30.1875 102.353 29.2098C102.656 27.5209 104.649 28.3604 104.26 29.8359ZM103.428 35.9583C104.361 37.0093 102.772 37.9487 102.248 36.7674C102.122 36.4678 102.257 35.8969 102.51 35.2226C102.843 35.4242 103.155 35.651 103.428 35.9583ZM99.4123 31.3113C99.3097 31.8405 99.0935 32.3702 98.8324 32.8703C98.0812 32.4754 97.4841 31.9556 97.5892 31.27C97.872 29.4149 99.5939 30.3759 99.4123 31.3113ZM97.3035 38.7056C96.3712 38.6441 96.6061 37.2705 97.3661 36.3002C97.4022 36.2525 97.4525 36.188 97.4989 36.1295C97.6395 36.3021 97.7462 36.4521 97.8103 36.5638C98.4781 37.749 98.0773 38.7592 97.3035 38.7056ZM111.925 30.7231C114.356 31.2518 113.85 33.2441 112.453 32.7454C111.971 32.5747 111.756 31.7377 111.68 30.6715C111.764 30.6857 111.847 30.7039 111.925 30.7231ZM102.397 41.6775C109.431 37.2852 117.148 35.5742 116.122 40.8533C115.934 41.8236 115.472 43.4116 115.266 44.8993C114.926 44.7543 114.598 44.6244 114.316 44.5034C114.104 44.4154 113.639 44.2511 113.143 44.0234C113.384 43.7387 113.563 43.5257 113.63 43.4347C114.417 42.3041 114.381 40.9974 112.816 40.6669C111.595 40.4077 110.65 41.7592 110.767 42.7064C110.847 43.3275 111.316 43.8031 112.009 44.2324C111.363 44.978 110.633 45.8023 110.087 46.5439C109.54 46.2415 108.944 45.9498 108.415 45.6813C108.277 45.6065 107.937 45.459 107.543 45.2584C108.343 44.202 108.545 43.6954 108.212 42.909C107.583 41.3942 105.395 41.5738 105.11 43.3738C104.911 44.6146 105.362 45.0931 106.3 45.5657C105.95 45.9867 105.589 46.4043 105.291 46.7864C105.005 47.1631 104.626 47.6175 104.289 48.1408C103.617 47.7961 102.935 47.4847 102.656 47.3372C102.479 47.2374 102.087 47.0854 101.672 46.8705C102.26 46.2518 102.708 45.7177 102.777 45.3764C103.226 43.1942 100.794 43.0934 100.016 44.2324C99.0022 45.7226 99.8358 46.6108 100.525 47.0987C100.079 47.5423 99.5984 48.0159 99.1439 48.4821C98.7767 48.0041 98.3014 47.4813 97.6894 46.899C97.26 46.4938 96.7487 46.0364 96.1866 45.5584C99.2317 43.7544 101.674 42.128 102.397 41.6775ZM116.365 46.2651C118.379 47.2836 117.262 49.1141 116.123 47.8039C115.744 47.3643 115.672 46.7343 115.752 45.9666C115.956 46.0634 116.164 46.1603 116.365 46.2651ZM112.479 43.6738C111.775 43.2484 111.222 42.669 111.54 41.9382C112.186 40.4441 113.689 41.1734 113.447 42.2239C113.368 42.5485 112.984 43.0723 112.479 43.6738ZM111.283 49.5695C110.923 50.0608 109.732 49.8247 109.87 48.5082C109.891 48.2967 110.06 47.9711 110.298 47.5983C111.516 48.3774 111.764 48.9124 111.283 49.5695ZM106.846 44.8723C106.198 44.4779 105.608 43.9792 105.643 43.4741C105.724 42.187 107.124 41.6928 107.523 42.9897C107.69 43.5257 107.345 44.1926 106.846 44.8723ZM105.292 49.5759C106.589 50.9933 104.991 51.6567 104.527 51.2643C104.146 50.9387 103.84 50.4243 104.615 49.1087C104.918 49.2774 105.167 49.4358 105.292 49.5759ZM100.265 44.7302C100.684 43.4854 102.455 43.7982 102.052 45.2318C101.96 45.5426 101.585 45.9981 101.087 46.5228C100.48 46.1018 99.9977 45.5195 100.265 44.7302ZM98.6495 52.2646C98.1584 52.18 97.9995 51.8441 98.115 51.1374C98.1776 50.7262 98.53 50.2074 99.0082 49.6403C99.0393 49.6944 99.0749 49.7559 99.104 49.809C100.082 51.8598 99.1075 52.3453 98.6495 52.2646ZM114.214 51.8402C110.468 51.583 101.516 54.6508 95.6759 56.5797C93.7249 53.6436 91.0495 51.2756 88.4194 49.6452C90.7914 48.5992 93.3 47.2408 95.5416 45.937C96.8584 47.0431 97.9639 48.1502 98.6223 49.0492C98.1559 49.5695 97.7749 50.0672 97.5967 50.4916C96.9704 51.9956 98.5157 53.5556 99.8778 52.0221C100.325 51.5215 100.516 50.5571 99.5408 49.0448C100.03 48.518 100.578 47.977 101.087 47.4666C101.476 47.7041 102.843 48.2343 103.934 48.759C103.785 49.0605 103.664 49.3679 103.591 49.6944C103.272 51.1389 104.327 51.9769 105.313 51.7374C106.437 51.4654 106.633 50.0013 105.781 49.1126C105.602 48.9257 105.317 48.731 104.984 48.5313C105.085 48.3897 105.175 48.2593 105.291 48.102C106.004 47.1813 106.579 46.4746 107.031 45.9041C107.483 46.1038 108 46.3285 108.579 46.627C108.988 46.8361 109.333 47.0239 109.651 47.2064C109.555 47.3697 109.467 47.531 109.41 47.678C108.58 49.7407 110.174 50.2551 110.832 50.1823C111.559 50.1036 112.617 48.9508 111.68 47.7174C111.479 47.4503 111.148 47.1892 110.753 46.9354C111.324 46.1603 112.066 45.28 112.657 44.588C113.392 44.9608 114.28 45.3105 115.179 45.7079C115.113 46.7456 115.234 47.6544 115.741 48.1615C117.298 49.6944 118.677 47.5177 117.383 46.1411C117.009 45.7462 116.449 45.4295 115.868 45.1664C116.206 43.3988 116.998 41.1302 116.976 38.8069C116.939 35.5934 111.983 35.1936 104.078 39.7988C101.319 41.4026 98.572 43.1893 95.5061 44.9839C93.1125 43.0246 89.8418 40.7967 86.35 39.6621C88.5719 37.7377 91.0307 35.3303 93.4584 33.0001C95.0407 33.8608 96.2331 34.8228 96.9788 35.5693C95.9399 36.937 95.5397 38.5079 96.8584 38.9682C98.2201 39.4423 99.4958 38.1006 98.5803 36.4846C98.4515 36.2554 98.226 35.9505 97.9081 35.5993C98.2714 35.1188 98.6998 34.5292 99.0882 33.9183C99.98 34.2513 100.941 34.4756 101.818 34.8577C101.612 35.4129 101.5 35.92 101.541 36.3213C101.735 38.0967 104.361 38.2639 104.24 36.1192C104.197 35.4016 103.544 34.8867 102.815 34.4992C103.194 33.6572 103.676 32.7518 104.043 32.0564C104.958 32.3554 106.007 32.5959 106.866 32.8433C106.633 33.638 106.564 34.2793 106.836 34.7441C107.689 36.2003 110.24 35.559 109.208 33.3906C109.01 32.977 108.461 32.6406 107.834 32.3642C107.86 32.3018 107.88 32.2442 107.91 32.1798C108.128 31.6919 108.545 30.8672 108.882 29.9701C109.601 30.1875 110.375 30.3808 111.056 30.5332C111.28 33.3036 112.364 33.5667 113.322 33.2092C114.123 32.9136 114.844 31.1692 112.734 30.219C112.419 30.0778 112.049 29.9608 111.654 29.857C111.634 28.1908 111.854 26.2664 111.949 25.4077C112.469 20.3185 107.208 21.9532 103.916 23.6519C101.055 25.1234 96.4927 29.1075 93.2551 32.0967C93.1327 32.0337 93.0133 31.9619 92.8815 31.8965C90.17 30.5485 86.5218 30.1472 83.4076 30.4221C83.5226 30.1654 83.6405 29.9023 83.7575 29.6224C84.1296 28.7642 84.8507 27.0434 85.8012 24.9552C87.8844 25.0324 89.3532 25.5021 90.3521 25.9841C90.2825 26.4105 90.2322 26.8216 90.2282 27.1905C90.2134 28.449 90.9384 29.6332 92.2952 29.0087C92.7147 28.8169 93.9766 27.7841 91.7498 26.0549C91.58 25.9285 91.3777 25.7996 91.1423 25.6767C91.2834 25.0177 91.4547 24.3341 91.584 23.5811C92.464 23.5521 93.4806 23.4695 94.3695 23.4498C94.3734 23.5521 94.3734 23.6613 94.3853 23.7518C94.5679 25.3865 95.8427 26.3391 96.9788 25.5346C97.5844 25.1042 97.8524 23.7134 96.5948 23.0657C96.2331 22.8827 95.6991 22.7893 95.1034 22.749C95.1577 22.0186 95.289 21.039 95.4044 20.1326C95.9631 20.1439 96.6072 20.1247 97.386 20.1055C97.6782 20.0986 97.9392 20.1036 98.186 20.1139C98.1885 20.2127 98.1885 20.3091 98.1969 20.3785C98.3583 22.1377 99.5936 22.6752 100.633 22.1377C101.643 21.6134 101.421 19.7136 99.1282 19.4927C99.0729 19.4878 99.0043 19.4819 98.9485 19.4736C98.9569 18.9355 98.987 18.305 99.0127 17.5919C99.0285 17.2103 99.0295 16.8685 99.0285 16.5458C100.048 16.4706 100.81 16.3324 101.446 16.2227C102.243 18.3218 103.017 18.5254 103.631 18.457C104.903 18.3218 105.619 16.1165 103.51 15.5121C103.099 15.3911 102.509 15.3852 101.86 15.4255C101.062 12.6891 100.584 8.66764 98.6948 8.34403C95.1409 7.7401 91.2484 13.2763 88.8878 16.9221C87.7986 18.6109 86.507 21.4501 85.2105 24.3877C80.8506 24.2396 75.2489 25.4372 70.702 29.7129C71.4581 26.616 74.096 19.5936 79.1424 18.3591C79.2712 18.9011 79.4351 19.388 79.6404 19.7539C80.5717 21.3867 82.8908 20.6529 82.5814 19.0236C82.4264 18.2131 81.3184 17.5486 79.7283 17.65C79.6374 17.1527 79.5634 16.5744 79.521 15.8922C79.5131 15.7772 79.5057 15.6827 79.4968 15.5775C80.3245 15.4781 81.2785 15.3345 82.1579 15.2632C82.4699 16.8011 83.0261 17.2786 83.8424 17.3701C85.6181 17.5585 85.8259 15.1855 84.3858 14.6814C84.1232 14.588 83.5823 14.5403 82.8726 14.5457C82.7329 13.7081 82.65 12.7713 82.5957 11.9849C83.5004 11.8186 84.2945 11.6952 84.976 11.6199C85.0984 12.0439 85.2391 12.4349 85.4212 12.7181C86.2948 14.0834 88.3429 14.0106 88.2388 12.3158C88.1593 11.0249 86.7957 10.7976 86.4285 10.7844C86.1719 10.7765 85.8979 10.7814 85.6181 10.7947C85.5697 10.5444 85.5347 10.2749 85.5036 9.9719C85.4212 9.13436 85.3472 8.406 85.2647 7.77944C85.9661 7.65354 86.6782 7.52862 87.343 7.44846C87.5419 7.90977 87.766 8.3337 88.0364 8.68043C89.1933 10.1416 90.9754 9.24649 90.7756 7.95256C90.6601 7.21141 90.2682 6.92272 89.3532 6.73829C88.9041 6.6478 88.3197 6.6596 87.6875 6.71026C87.1199 4.61075 86.5114 1.76173 85.665 0.719594C84.7446 -0.418933 82.0854 -0.795655 77.7146 4.17255C73.6005 8.85698 71.423 15.9881 70.6586 20.0347C70.3146 21.85 70.1186 23.3672 70.0086 24.729C69.8936 23.3672 69.6981 21.85 69.3546 20.0347C68.5896 15.9881 66.4141 8.85698 62.3 4.17255C57.9322 -0.795655 55.2731 -0.418933 54.3506 0.719594C53.5028 1.76173 52.8972 4.61075 52.3311 6.71026C51.6984 6.6596 51.114 6.6478 50.661 6.73829C49.7455 6.92272 49.3531 7.21141 49.2416 7.95256C49.0353 9.24649 50.8229 10.1416 51.9812 8.68043C52.2516 8.3337 52.4772 7.90977 52.6736 7.44846C53.3364 7.52862 54.0501 7.65354 54.7519 7.77944C54.67 8.406 54.5954 9.13436 54.5145 9.9719C54.4824 10.2749 54.4454 10.5444 54.3975 10.7947C54.1202 10.7814 53.8438 10.7765 53.5891 10.7844C53.2229 10.7976 51.8539 11.0249 51.7749 12.3158C51.6752 14.0106 53.7194 14.0834 54.5954 12.7181C54.7741 12.4349 54.9157 12.0439 55.0391 11.617C55.7251 11.6952 56.5178 11.8186 57.4214 11.9849C57.3662 12.7713 57.2832 13.7081 57.1436 14.5457C56.4368 14.5403 55.8929 14.588 55.6289 14.6814C54.1912 15.1855 54.3985 17.5585 56.1743 17.3701C56.9906 17.2786 57.5419 16.8011 57.8617 15.2632C58.7367 15.3345 59.6912 15.4781 60.5179 15.5775C60.509 15.6827 60.5031 15.7772 60.4967 15.8922C60.4562 16.5744 60.3792 17.1527 60.2869 17.65C58.6987 17.5486 57.5877 18.2131 57.4357 19.0236C57.1268 20.6529 59.4449 21.3867 60.3752 19.7539C60.5796 19.388 60.7454 18.9011 60.8782 18.3591C65.9221 19.5936 68.5561 26.616 69.3161 29.7129C64.7652 25.4372 59.1656 24.2396 54.8067 24.3877C53.5121 21.4501 52.2181 18.6109 51.1274 16.9221C48.7683 13.2763 44.8728 7.7401 41.3262 8.34403C39.4291 8.66764 38.9484 12.6891 38.1592 15.4255C37.5038 15.3852 36.914 15.3911 36.5088 15.5121C34.3995 16.1165 35.1136 18.3218 36.3855 18.457C36.9989 18.5254 37.7748 18.3218 38.5684 16.2227C39.2055 16.3324 39.969 16.4706 40.9892 16.5458C40.9892 16.8685 40.9892 17.2103 41.0049 17.5919C41.0311 18.305 41.0617 18.9355 41.0686 19.4736C41.0099 19.4819 40.9433 19.4878 40.8865 19.4927C38.5955 19.7136 38.3714 21.6134 39.3857 22.1377C40.4245 22.6752 41.6574 22.1377 41.8203 20.3785C41.8257 20.3091 41.8292 20.2127 41.8321 20.1139C42.0774 20.1036 42.3395 20.0986 42.6321 20.1055C43.4085 20.1247 44.053 20.1439 44.6097 20.1326C44.7272 21.039 44.8585 22.0186 44.9137 22.749C44.3121 22.7893 43.7801 22.8827 43.4203 23.0657C42.1657 23.7134 42.4337 25.1042 43.0334 25.5346C44.1695 26.3391 45.4482 25.3865 45.6318 23.7518C45.6432 23.6613 45.6432 23.5521 45.6481 23.4498C46.537 23.4695 47.5517 23.5521 48.4322 23.5811C48.5615 24.3341 48.7322 25.0177 48.8694 25.6767C48.6385 25.7996 48.4341 25.9285 48.2673 26.0549C46.042 27.7841 47.3015 28.8169 47.719 29.0087C49.0797 29.6332 49.8037 28.449 49.7894 27.1905C49.784 26.8216 49.7356 26.4105 49.665 25.9841C50.6649 25.5021 52.1317 25.0324 54.2159 24.9552C55.1665 27.0434 55.887 28.7642 56.2596 29.6224C56.3791 29.9023 56.4951 30.1654 56.6101 30.4221C53.4919 30.1472 49.8466 30.5485 47.1327 31.8965C46.9994 31.9619 46.8839 32.0337 46.7591 32.0967C43.5269 29.1075 38.9627 25.1234 36.1012 23.6519C32.8063 21.9532 27.5447 20.3185 28.0704 25.4077C28.1602 26.2664 28.3798 28.1908 28.3606 29.857C27.9652 29.9608 27.5956 30.0778 27.2768 30.219C25.1689 31.1692 25.8934 32.9136 26.6949 33.2092C27.6523 33.5667 28.7391 33.3036 28.9587 30.5332C29.6413 30.3808 30.4117 30.1875 31.1308 29.9701C31.4718 30.8672 31.8879 31.6919 32.1085 32.1798C32.1346 32.2442 32.1529 32.3018 32.181 32.3642C31.5532 32.6406 31.0084 32.977 30.8075 33.3906C29.775 35.559 32.3301 36.2003 33.1809 34.7441C33.4519 34.2793 33.3808 33.638 33.1488 32.8433C34.0086 32.5959 35.0578 32.3554 35.9733 32.0564C36.3396 32.7503 36.8217 33.6572 37.2018 34.4992C36.4713 34.8867 35.8144 35.4016 35.7745 36.1192C35.654 38.2639 38.2816 38.0967 38.4761 36.3213C38.5175 35.92 38.3996 35.4129 38.1967 34.8577C39.0747 34.4756 40.0351 34.2513 40.927 33.9183C41.3159 34.5292 41.7453 35.1188 42.1075 35.5993C41.7941 35.9505 41.5651 36.2554 41.4363 36.4846C40.5233 38.1006 41.7941 39.4423 43.1553 38.9682C44.4785 38.5079 44.0747 36.937 43.0334 35.5669C43.784 34.8228 44.9779 33.8608 46.5577 33.0001C48.983 35.3303 51.4413 37.7377 53.6641 39.6621C50.1758 40.7997 46.9002 43.0246 44.51 44.9839C41.4452 43.1893 38.6922 41.4026 35.9408 39.7988C28.0348 35.1936 23.0753 35.5934 23.0417 38.8069C23.0161 41.1302 23.8062 43.3988 24.1438 45.1664C23.5649 45.4295 23.0062 45.7492 22.6355 46.1411C21.3356 47.5177 22.714 49.6944 24.2741 48.1615C24.7854 47.6544 24.9043 46.7456 24.8342 45.7079C25.7359 45.3105 26.6194 44.9608 27.3602 44.588C27.9524 45.28 28.6907 46.1603 29.2583 46.9354C28.8674 47.1892 28.5372 47.4503 28.3344 47.7174C27.4001 48.9508 28.4553 50.1036 29.1858 50.1823C29.8407 50.2551 31.4333 49.7407 30.6066 47.678C30.5469 47.531 30.4586 47.3697 30.3623 47.2064C30.6812 47.0239 31.0291 46.8361 31.4373 46.627C32.0137 46.3285 32.53 46.1038 32.9796 45.9041C33.4356 46.4746 34.0111 47.1813 34.7227 48.102C34.8407 48.2593 34.9315 48.3897 35.0282 48.5313C34.701 48.731 34.4098 48.9257 34.2336 49.1126C33.3808 50.0013 33.5772 51.4654 34.7045 51.7374C35.692 51.9769 36.7462 51.1389 36.4254 49.6944C36.3529 49.3679 36.2295 49.0605 36.0829 48.759C37.1751 48.2343 38.5397 47.7041 38.9281 47.4666C39.436 47.977 39.9843 48.518 40.4744 49.0428C39.4957 50.5571 39.6902 51.5215 40.1368 52.0221C41.4985 53.5556 43.0457 51.9956 42.4165 50.4916C42.2427 50.0672 41.8617 49.5695 41.3929 49.0492C42.0532 48.1502 43.1592 47.0431 44.4735 45.937C46.7166 47.2408 49.2243 48.5992 51.5977 49.6452C48.9642 51.2756 46.2902 53.6436 44.3398 56.5797C38.5027 54.6508 29.546 51.583 25.7996 51.8402C21.7605 52.1195 21.3701 53.9426 21.681 55.6212C21.9599 57.0887 23.099 59.0471 23.7549 60.673C22.9282 61.2189 22.294 61.7953 22.1874 62.4887C21.9288 64.1997 23.859 64.8395 24.6511 63.5348C25.005 62.952 24.8851 61.9915 24.5633 61.0482C25.2671 60.5776 26.1885 60.0395 27.3789 59.3997C27.7841 59.7533 28.216 60.1202 28.6527 60.5215C29.0673 60.9041 29.4187 61.2248 29.7217 61.5189C29.2065 61.901 28.8107 62.291 28.6843 62.6579C28.213 64.0212 29.2721 64.7712 29.8959 64.7712C30.4507 64.7712 31.3968 64.3659 31.4373 63.3533C31.4605 62.7312 31.27 62.2163 30.8628 61.6517C31.9076 60.9838 33.1005 60.4177 33.4139 60.222C33.4731 60.1817 33.5244 60.1463 33.5827 60.1069C34.1473 60.5908 34.7435 61.0694 35.1284 61.4181C35.3174 61.5843 35.6708 61.8804 36.0345 62.2256C35.0682 63.1059 35.0361 63.7222 35.1284 64.2027C35.4127 65.6609 37.0759 65.7415 37.7057 64.4692C38.0803 63.7099 37.7358 62.922 37.1608 62.2182C37.9643 61.661 38.9084 61.1731 39.5801 60.7905C40.2844 61.2902 41.0686 61.7495 41.7808 62.173C41.3637 63.6302 41.31 64.6886 42.185 65.2935C43.8072 66.4276 45.4719 64.2882 43.8675 62.833C43.4203 62.4263 43.0442 62.1336 42.6696 61.8715C43.0013 60.8884 43.5496 59.6422 44.4222 58.0561C44.5214 57.8795 44.626 57.7015 44.7272 57.5284C47.8518 58.4544 51.0163 59.2635 54.1522 59.801C59.2169 60.6656 63.8078 60.5043 65.8851 57.9376C66.122 59.3997 66.9205 60.7251 67.7205 61.5956C68.5442 62.4986 69.2303 63.1492 69.6152 63.5013C69.6177 65.3008 69.6226 66.4084 69.6226 66.4084C69.6226 67.874 69.1335 68.8807 68.4534 69.5589C67.7743 68.804 67.0592 68.6195 66.6387 68.4887C65.4819 68.1297 63.2111 68.145 63.0092 69.7605C62.7822 71.5768 65.3614 71.861 67.3272 71.1956C67.7033 71.0707 68.0157 70.8873 68.3019 70.6836C68.4934 70.9861 68.6686 71.3205 68.8098 71.7209C69.2559 73.0148 69.5945 75.373 69.6404 76.8715C69.6537 77.3028 69.672 77.7253 69.6552 88.332C69.6537 88.8322 69.8511 89.0245 70.0086 89.0668C70.1665 89.0245 70.3654 88.8322 70.3619 88.332C70.3437 77.7253 70.3619 77.3028 70.3753 76.8715C70.4207 75.373 70.7563 73.0148 71.2034 71.7209C71.3451 71.3205 71.5222 70.9861 71.7132 70.6836C72.0005 70.8873 72.3158 71.0707 72.685 71.1956C74.6542 71.861 77.2329 71.5768 77.0054 69.7605C76.8026 68.145 74.5318 68.1297 73.375 68.4887C72.9584 68.6195 72.2369 68.804 71.5637 69.5589C70.8841 68.8807 70.3916 67.874 70.3965 66.4084C70.3965 66.4084 70.3965 65.3008 70.4019 63.5013C70.7864 63.1492 71.4704 62.4986 72.2966 61.5956C73.0976 60.7251 73.8917 59.3997 74.1321 57.9376C76.2108 60.5043 80.7973 60.6656 85.8708 59.801C88.9974 59.2635 92.1668 58.4544 95.289 57.5284C95.3926 57.7015 95.4928 57.8795 95.5895 58.0561C96.4646 59.6422 97.0148 60.8884 97.3445 61.8715C96.9704 62.1336 96.5948 62.4263 96.1492 62.833C94.5486 64.2882 96.2119 66.4276 97.8331 65.2935C98.7052 64.6886 98.6583 63.6302 98.2363 62.173C98.9461 61.7495 99.7327 61.2902 100.44 60.7905C101.104 61.1731 102.052 61.661 102.856 62.2182C102.279 62.922 101.938 63.7099 102.311 64.4692C102.942 65.7415 104.604 65.6609 104.892 64.2027C104.984 63.7222 104.947 63.1059 103.983 62.2256C104.346 61.8804 104.7 61.5843 104.892 61.4181C105.272 61.0694 105.867 60.5908 106.433 60.1069C106.488 60.1463 106.543 60.1817 106.6 60.222C106.914 60.4177 108.105 60.9838 109.153 61.6517C108.745 62.2163 108.556 62.7312 108.579 63.3533C108.618 64.3659 109.566 64.7712 110.12 64.7712C110.744 64.7712 111.802 64.0212 111.33 62.6579C111.203 62.291 110.808 61.901 110.294 61.5189C110.596 61.2248 110.946 60.9041 111.363 60.5215C111.801 60.1202 112.232 59.7533 112.636 59.3997C113.827 60.0395 114.748 60.5776 115.455 61.0482C115.131 61.9915 115.008 62.952 115.363 63.5348C116.153 64.8395 118.086 64.1997 117.823 62.4887C117.72 61.7953 117.087 61.2189 116.26 60.673C116.916 59.0471 118.058 57.0887 118.334 55.6212C118.648 53.9426 118.256 52.1195 114.214 51.8402Z" fill="white"/>
</svg>
