<svg width="147" height="101" viewBox="0 0 147 101" fill="none" xmlns="http://www.w3.org/2000/svg">
<path fill-rule="evenodd" clip-rule="evenodd" d="M82.4451 19.9611V22.0494H79.7692L79.7817 25.3492H75.8144V22.0494H72.5L79.7692 14.5V19.9611H82.4451Z" fill="white"/>
<path fill-rule="evenodd" clip-rule="evenodd" d="M53.8884 0.00260703C54.3472 1.92424 56.1882 4.16916 63.4232 4.16916C71.3541 4.16916 77.6192 4.20505 79.0527 4.19992C92.1199 4.18284 93.4261 15.3798 93.4261 17.8171C93.4261 20.8899 92.9407 27.3849 86.4355 30.4794C85.3133 31.0191 84.5111 31.376 82.9961 31.759C85.4914 33.1963 87.6757 38.0768 89.8162 43.2159C91.1945 46.5224 92.3813 49.7841 93.7693 51.9538C94.5655 53.1789 95.7335 54.5647 96.8559 55.1017C97.3715 55.3515 98.1073 55.4171 98.6951 55.4424C100.037 55.4663 100.887 54.7936 101.27 54.1241C99.9995 54.7747 98.5471 53.9865 98.1109 52.8991C97.6825 51.8738 97.8191 50.9519 98.3518 50.1165C98.9871 49.108 99.9692 48.7004 101.232 48.7745C104.944 48.9679 104.999 53.1234 104.999 53.1234C104.938 55.466 104.203 57.094 102.567 58.2993C101.507 59.0797 100.282 59.5923 98.4902 59.6645C94.5656 59.8295 89.8351 57.3728 85.7038 44.9864C84.1834 40.4209 81.7908 35.7395 79.2764 33.8189C78.1086 32.9251 75.9814 31.6114 72.9317 31.6114L63.8611 31.5943C63.8611 31.5943 63.7285 34.0935 63.7436 34.7169C63.7873 36.1327 63.2921 43.1132 62.8601 43.972C61.8115 44.1777 59.0358 43.5937 58.5486 43.0369C59.1705 40.623 59.3336 37.6753 59.4246 32.5229C59.4348 31.8298 59.4348 31.5379 59.4348 31.5379C59.4348 31.5379 59.404 15.9671 59.404 15.95C60.2097 15.5641 62.9342 15.8977 63.8101 16.6497C63.8169 16.6702 63.8306 27.1713 63.8306 27.1713C63.8306 27.1713 74.7446 27.1576 79.3444 27.1576C85.8703 27.1576 89.0443 23.235 89.0443 17.8161C89.0443 12.3905 85.4532 8.62384 79.0372 8.62384H63.4286L60.8842 8.61696C56.7129 8.61696 52.0167 4.83032 53.8881 0" fill="white"/>
<path fill-rule="evenodd" clip-rule="evenodd" d="M98.6701 36.6228L94.6018 40.6873L90.5332 36.6228L94.6018 32.5504L98.6701 36.6228Z" fill="white"/>
<path fill-rule="evenodd" clip-rule="evenodd" d="M74.6777 58.0511V33.6516C75.9824 33.6828 78.6927 35.6656 79.0543 36.4521V49.7563L82.0331 46.807L84.0006 48.7346L74.6777 58.0511Z" fill="white"/>
<path fill-rule="evenodd" clip-rule="evenodd" d="M54.728 59.471C52.1801 55.0046 47.2252 51.1551 43.6298 52.4986C42.3997 52.9565 41.7789 54.1157 41.7979 55.2585C41.8133 56.8007 42.8451 58.291 45.0202 58.1088C45.4733 58.0695 46.174 57.8295 46.5778 57.4916C47.3317 56.8488 47.6841 55.8943 47.85 55.2536C48.5772 55.6276 49.5617 56.3403 50.3254 57.1619C48.9161 60.4698 44.3535 61.4928 41.4817 59.7112C39.8689 58.7201 38.7206 56.8176 39.0595 54.0094C39.307 51.9119 40.564 50.5389 42.015 49.6236C43.7746 48.5087 45.8959 48.3441 48.4858 49.0194C51.3631 49.7703 53.8693 51.6719 54.7472 52.9945C55.2576 52.3568 55.8669 51.3197 56.3069 50.4947C57.2381 50.9966 58.8109 51.6719 60.502 51.8746C59.6754 53.9171 56.541 58.2929 54.728 59.471Z" fill="white"/>
<path fill-rule="evenodd" clip-rule="evenodd" d="M70.6937 45.6917C68.5119 48.9665 65.5003 50.3332 62.7175 50.5862C57.9077 51.0125 53.8978 48.4067 51.5065 46.2066C51.5236 46.8483 51.4252 47.7845 51.2284 49.1952C49.973 48.4476 48.8785 48.0058 48.041 47.7408C48.3492 44.1547 48.3151 41.1575 48.2792 39.9017V38.0452H49.8426C50.65 41.034 53.59 43.8227 56.9059 45.2983C60.0157 46.6838 63.4565 46.4764 66.092 44.1888C67.9105 42.5943 68.7726 38.1154 66.833 35.1385C66.4399 34.5407 65.8935 33.9822 65.2487 33.4544H70.9073C71.4024 34.2216 71.9223 35.2894 72.0868 36.0264C72.7949 38.9788 72.5454 42.9283 70.6936 45.6917" fill="white"/>
<path fill-rule="evenodd" clip-rule="evenodd" d="M50.0737 12.8738C54.3529 7.88009 62.3664 8.17922 67.0317 11.419C67.2337 11.5526 68.3305 12.3385 68.5167 12.4853L74.2601 10.8404C74.2601 10.8404 67.5308 17.2937 67.4812 17.2937C64.7507 12.7826 56.1647 10.8601 53.6043 15.8408C52.2876 18.4013 52.5824 21.2636 55.816 23.1609V28.0297C55.2755 27.8001 54.7289 27.5768 54.2203 27.3181C46.2521 23.2794 47.3213 16.0903 50.0737 12.8738" fill="white"/>
<path fill-rule="evenodd" clip-rule="evenodd" d="M54.9848 88.6698H51.5934V82.5699H54.9848C58.4544 82.5699 59.7089 82.7843 59.7089 85.6139C59.7089 88.4732 58.4544 88.6698 54.9848 88.6698ZM61.7834 91.6184L58.7264 89.879C62.265 89.7538 64.7274 89.0897 64.7274 85.7302C64.7274 82.5134 61.3861 81.3161 56.7866 81.3161H45.3046L47.4167 83.1211V95.2699L45.3046 97.2625H53.708L51.5934 95.279V89.9118H55.9923L60.5568 97.2625H66.2824L63.9328 95.2699L61.7834 91.6184ZM76.9042 96.0444V89.9118H81.6661L83.7215 91.7108V86.8797L81.6661 88.6698H76.9042V82.5613H84.1L87.9232 85.6554V81.3161H70.1931L72.5647 83.3502V95.279L70.1931 97.2625H87.9232V92.9348L84.1 96.0444H76.9042ZM125.642 81.3161H117.033L119.144 83.1033V95.4846L117.033 97.2625H125.642L123.509 95.4846V83.1033L125.642 81.3161ZM134.065 83.967C134.065 82.1978 136.455 81.6796 138.589 81.6796C141.377 81.6796 143.651 83.4398 144.194 85.9267H146.122L146.146 81.0063L144.031 82.0637C142.943 81.2923 140.671 80.5775 138.56 80.5775C134.996 80.5775 130.682 81.5901 130.682 85.5989C130.682 90.7399 143.823 90.1887 143.823 94.293C143.823 96.3006 141.243 96.9021 138.678 96.9021C135.374 96.9021 133.382 94.5077 132.875 91.9072H130.73V97.5932L132.908 96.4257C134.829 97.4206 136.454 97.9862 138.579 97.9862C143.286 97.9862 147 96.5 147 92.8099C147 86.5908 134.064 87.2164 134.064 83.967H134.065ZM104.64 89.3844L106.727 91.0108V93.8163C106.727 95.2968 104.499 96.4912 102.878 96.4912C97.7003 96.4912 97.09 92.089 97.09 89.2775C97.09 85.3549 98.6762 81.9593 102.884 81.9593C106.526 81.9593 108.037 83.818 109.289 86.5759H111.088V81.3161L108.935 82.3346C108.166 81.9177 106.398 80.8574 102.913 80.8574C96.555 80.8574 92.1186 83.523 92.1186 89.2029C92.1186 95.279 96.5115 97.6915 102.803 97.6915C104.571 97.6915 106.736 97.0987 108.713 95.9521L111.088 97.2807V91.0108L113.156 89.3844H104.64ZM26.1857 97.2625L28.9796 99.6333L31.7673 97.2625L28.9796 94.9334L26.1857 97.2625ZM20.069 85.6554L23.9171 82.5613H26.8207V91.2075L24.687 92.9914H33.2692L31.1257 91.2075V82.5613H34.0387L37.8807 85.6554V81.3161H20.069V85.6554ZM3.39625 83.967C3.39625 82.1978 5.78655 81.6796 7.91094 81.6796C10.7082 81.6796 13.0013 83.4398 13.5148 85.9267H15.4669L15.4874 81.0063L13.3567 82.0637C12.2833 81.2923 9.9932 80.5775 7.87828 80.5775C4.31784 80.5775 0 81.5901 0 85.5989C0 90.7399 13.1595 90.1887 13.1595 94.293C13.1595 96.3006 10.5878 96.9021 8.01592 96.9021C4.70584 96.9021 2.67844 94.5077 2.19973 91.9072H0.0347485V97.5932L2.22799 96.4257C4.15836 97.4206 5.7916 97.9862 7.89702 97.9862C12.6276 97.9862 16.3381 96.5 16.3381 92.8099C16.3381 86.5908 3.39782 87.2164 3.39782 83.967H3.39625Z" fill="white"/>
</svg>
