<svg width="205" height="90" viewBox="0 0 205 90" fill="none" xmlns="http://www.w3.org/2000/svg">
<path d="M145.168 30.4863V24.3062H146.714C147.338 24.3062 147.835 24.4617 148.201 24.7693C148.568 25.0783 148.752 25.4979 148.752 26.0238C148.752 26.3839 148.661 26.6931 148.481 26.9552C148.301 27.2172 148.043 27.4128 147.705 27.5422C147.904 27.6735 148.1 27.8498 148.29 28.0752C148.479 28.3005 148.745 28.692 149.087 29.2493C149.302 29.6025 149.477 29.8662 149.606 30.0426L149.933 30.4864H148.881L148.61 30.0778C148.6 30.0629 148.586 30.0382 148.558 30.0025L148.385 29.7598L148.113 29.3071L147.815 28.8232C147.634 28.5696 147.466 28.367 147.314 28.2168C147.162 28.0668 147.026 27.9583 146.903 27.8919C146.781 27.8256 146.575 27.7924 146.286 27.7924H146.056V30.4867L145.168 30.4863ZM146.321 25.0575H146.056V27.0005H146.391C146.837 27.0005 147.143 26.9609 147.309 26.8871C147.474 26.8103 147.602 26.6949 147.696 26.5409C147.787 26.3868 147.833 26.2105 147.833 26.0149C147.833 25.8207 147.782 25.6444 147.678 25.4872C147.577 25.3297 147.432 25.2197 147.245 25.1553C147.06 25.0905 146.753 25.0575 146.321 25.0575Z" fill="white"/>
<path d="M152.424 24.3063H155.918V25.0978H153.311V26.9814H155.831V27.7729H153.311V29.695H156.007V30.4865H152.424V24.3063Z" fill="white"/>
<path d="M160.295 27.8934L159.622 27.4847C159.201 27.2242 158.9 26.971 158.721 26.7212C158.542 26.473 158.453 26.1847 158.453 25.8615C158.453 25.3741 158.621 24.9791 158.96 24.675C159.297 24.3709 159.736 24.2189 160.276 24.2189C160.791 24.2189 161.264 24.362 161.694 24.6503V25.6567C161.249 25.2322 160.77 25.019 160.256 25.019C159.966 25.019 159.729 25.0853 159.542 25.2201C159.356 25.3528 159.264 25.5222 159.264 25.7303C159.264 25.9155 159.332 26.0884 159.47 26.2493C159.608 26.4102 159.83 26.5796 160.132 26.7577L160.808 27.1594C161.561 27.6121 161.939 28.185 161.939 28.8822C161.939 29.3765 161.773 29.7803 161.441 30.0896C161.11 30.3987 160.679 30.5542 160.148 30.5542C159.538 30.5542 158.984 30.3655 158.483 29.9864V28.8628C158.96 29.4709 159.512 29.7731 160.141 29.7731C160.419 29.7731 160.648 29.6964 160.833 29.5423C161.016 29.3888 161.109 29.1966 161.109 28.964C161.109 28.5885 160.837 28.2323 160.295 27.8934Z" fill="white"/>
<path d="M167.758 24.2184C168.712 24.2184 169.507 24.5205 170.142 25.1252C170.776 25.7298 171.094 26.4864 171.094 27.3967C171.094 28.3088 170.773 29.062 170.133 29.6595C169.492 30.2571 168.684 30.5541 167.709 30.5541C166.78 30.5541 166.004 30.257 165.384 29.6595C164.764 29.062 164.454 28.3141 164.454 27.416C164.454 26.4934 164.767 25.7298 165.391 25.1252C166.015 24.5207 166.804 24.2184 167.758 24.2184ZM167.798 25.0571C167.09 25.0571 166.51 25.279 166.056 25.7211C165.6 26.1649 165.373 26.7293 165.373 27.416C165.373 28.0834 165.602 28.6373 166.058 29.0811C166.514 29.5234 167.085 29.7452 167.772 29.7452C168.46 29.7452 169.033 29.5178 169.496 29.0672C169.956 28.6165 170.187 28.0538 170.187 27.381C170.187 26.7258 169.956 26.1754 169.496 25.7281C169.033 25.2808 168.469 25.0571 167.798 25.0571Z" fill="white"/>
<path d="M174.028 30.4863V24.3062H175.575C176.198 24.3062 176.695 24.4617 177.061 24.7693C177.428 25.0783 177.612 25.4979 177.612 26.0238C177.612 26.3839 177.521 26.6931 177.341 26.9552C177.159 27.2172 176.903 27.4128 176.565 27.5422C176.764 27.6735 176.958 27.8498 177.149 28.0752C177.339 28.3005 177.605 28.692 177.947 29.2493C178.162 29.6025 178.335 29.8662 178.464 30.0426L178.793 30.4864H177.739L177.47 30.0778C177.46 30.0629 177.446 30.0382 177.418 30.0025L177.245 29.7598L176.971 29.3071L176.675 28.8232C176.492 28.5696 176.326 28.367 176.174 28.2168C176.022 28.0668 175.884 27.9583 175.763 27.8919C175.641 27.8256 175.435 27.7924 175.146 27.7924H174.918V30.4867L174.028 30.4863ZM175.18 25.0575H174.918V27.0005H175.251C175.697 27.0005 176.001 26.9609 176.167 26.8871C176.333 26.8103 176.462 26.6949 176.555 26.5409C176.647 26.3868 176.693 26.2105 176.693 26.0149C176.693 25.8207 176.643 25.6444 176.54 25.4872C176.436 25.3297 176.293 25.2197 176.106 25.1553C175.921 25.0905 175.611 25.0575 175.18 25.0575Z" fill="white"/>
<path d="M179.942 24.3063H185.107V25.0978H182.949V30.4865H182.059V25.0978H179.942V24.3063Z" fill="white"/>
<path d="M189.282 27.8934L188.609 27.4847C188.188 27.2242 187.888 26.971 187.709 26.7212C187.53 26.473 187.44 26.1847 187.44 25.8615C187.44 25.3741 187.61 24.9791 187.947 24.675C188.284 24.3709 188.723 24.2189 189.263 24.2189C189.778 24.2189 190.252 24.362 190.683 24.6503V25.6567C190.236 25.2322 189.757 25.019 189.244 25.019C188.953 25.019 188.716 25.0853 188.531 25.2201C188.344 25.3528 188.251 25.5222 188.251 25.7303C188.251 25.9155 188.321 26.0884 188.459 26.2493C188.596 26.4102 188.818 26.5796 189.12 26.7577L189.796 27.1594C190.549 27.6121 190.927 28.185 190.927 28.8822C190.927 29.3765 190.761 29.7803 190.43 30.0896C190.098 30.3987 189.667 30.5542 189.137 30.5542C188.528 30.5542 187.972 30.3655 187.47 29.9864V28.8628C187.949 29.4709 188.501 29.7731 189.129 29.7731C189.407 29.7731 189.637 29.6964 189.821 29.5423C190.006 29.3888 190.097 29.1966 190.097 28.964C190.097 28.5885 189.825 28.2323 189.282 27.8934Z" fill="white"/>
<path d="M61.6446 0.03946C61.5941 -0.156184 59.8693 0.390622 59.9916 1.34819C60.3359 3.05707 60.4949 5.65354 59.8678 7.11958C58.4176 10.4866 56.008 13.4378 54.2309 16.7647C46.5288 31.1765 37.3712 39.5618 28.5578 45.2196C27.899 45.6441 24.5721 46.8185 23.9694 45.6005C22.1294 41.9015 30.4693 33.5668 31.6592 30.219C31.6989 29.742 31.736 29.2579 31.7761 28.7722C31.6117 28.4225 31.4423 28.068 31.2782 27.7168C30.8081 27.3062 30.1004 27.2661 29.4417 27.3201C29.3367 27.3399 29.2233 27.3547 29.1099 27.3706C28.9964 27.4053 28.8741 27.4439 28.7552 27.4805C26.3754 28.4154 25.1191 31.0695 23.2146 32.7417C20.7823 34.8647 18.0896 36.8566 15.4268 38.5568C13.8996 39.53 11.6037 41.2476 10.8034 41.861C10.0031 42.4743 7.30525 44.3875 5.47759 43.8406C4.57421 43.5751 4.47289 42.4148 4.67383 41.6145C5.38325 38.7175 8.51613 36.1175 10.6112 34.1046C12.818 31.9746 14.8956 29.0636 16.4244 26.4741C17.0815 25.3436 18.018 24.1485 17.9918 22.7751C17.8764 17.2396 11.0253 24.3634 10.059 25.9342C9.65878 26.5492 9.33734 26.8917 8.62272 27.9191C5.36924 33.2537 -5.12512 43.7673 3.04704 49.0424C4.26494 49.7745 6.04547 50.0628 8.99494 48.3208C11.2158 47.0085 18.2032 42.0915 20.3157 42.5738C19.9958 42.5986 20.3139 43.2902 20.2231 43.6711C20.1325 44.0505 19.9086 45.7032 19.8735 46.0562C19.5065 49.6697 22.3738 49.121 24.7135 49.8444C26.0974 50.0242 32.0592 49.121 39.4206 42.1789C42.4417 39.3343 45.3178 36.9231 49.5358 31.5291C54.5087 25.1654 52.8068 25.8241 57.369 19.4989C58.4838 17.7725 59.5951 16.0427 60.7046 14.3146C62.2982 12.0204 64.4753 9.48505 65.2022 6.84134C65.8627 4.42135 64.1991 0.208952 61.6446 0.03946Z" fill="white"/>
<path d="M58.4119 57.92C56.5038 70.5653 52.3155 78.7235 39.8083 83.242C38.9696 83.5585 36.0341 84.3743 35.6077 84.3917C29.1602 84.8915 24.4022 85.0295 19.6146 81.7725C18.6047 81.0858 17.572 78.7969 17.7922 77.364C18.4316 73.0377 21.9385 70.207 24.9893 67.1755C29.2615 62.9155 33.6823 59.0016 38.379 55.4126C41.2149 53.3001 44.0472 51.1771 46.8831 49.0646C47.8477 48.9893 48.8069 49.3514 49.9182 49.1924C52.1268 48.8724 56.6016 47.017 58.3262 45.7013C58.4065 45.4739 59.642 45.0547 59.7993 45.5878C59.9305 46.2343 60.0528 46.8774 60.1801 47.5221C60.1603 51.188 58.9256 54.4795 58.4119 57.92ZM137.034 49.6451C138.023 49.4757 151.986 45.656 158.416 46.3305C161.342 46.3305 169.974 49.0091 172.74 49.1699C175.036 49.4408 183.355 49.6156 183.532 49.6156C186.275 49.6191 189.179 49.8063 190.966 47.2934C191.351 46.743 190.898 46.3044 190.397 46.1437C188.062 45.3749 183.542 45.6265 182.347 45.8257C171.176 46.6942 168.171 43.9945 157.65 43.2467C154.823 43.0441 137.306 46.4129 136.765 46.5142C136.765 46.5142 134.53 46.9615 132.203 47.5853C129.875 48.2126 129.7 45.9778 129.606 45.2614C129.517 44.5467 130.506 40.0526 130.773 39.0008C131.308 36.8534 130.235 35.3314 129.25 35.2405C128.177 35.1459 126.12 36.4951 125.315 37.2115C124.509 37.9261 118.607 41.9502 116.908 43.383C115.205 44.814 114.67 42.9357 115.119 42.221C115.565 41.5046 116.548 38.9099 117.087 37.3897C117.623 35.8678 116.548 34.8841 115.654 34.4385C114.759 33.9893 112.882 35.1532 112.346 35.6913C111.808 36.226 108.944 38.1953 107.069 39.5372C105.189 40.8774 100.181 43.6486 97.9413 44.725C95.7065 45.7961 95.7065 43.1139 95.8847 41.8611C96.0665 40.6118 96.5959 38.6024 96.8719 36.4042C97.2286 33.5439 94.4537 34.1694 93.3826 34.7076C92.3062 35.2405 83.6308 41.3247 82.4688 42.221C81.3069 43.1139 81.3069 41.5938 81.396 41.0556C81.4851 40.5192 81.6635 39.4463 82.6471 37.3006C83.6308 35.1532 82.8269 34.5277 82.6471 33.5439C82.4688 32.5584 80.3231 33.0075 78.623 33.7203C77.683 34.1185 67.3406 37.8561 66.958 37.9435C66.6331 37.9732 66.301 37.996 65.9742 38.0202C65.9725 37.9707 65.7959 37.9222 65.791 37.7037C65.7563 36.568 65.272 35.7189 63.9912 35.9023C61.3056 36.2673 59.8501 38.7102 57.8879 40.2845C55.1358 42.4932 52.314 44.8747 49.1513 46.4124C48.1833 46.9278 48.3686 44.6912 49.0553 43.87C53.3851 38.7049 51.7374 40.468 53.7957 38.2629C55.3473 36.257 57.4406 34.0606 58.2269 31.7C58.9363 29.5351 57.8757 26.016 55.5657 25.7399C54.713 25.7003 54.084 26.4179 54.0892 27.0364C54.2012 28.5566 53.9808 30.3563 53.3711 31.6965C51.9907 34.7264 50.0232 37.5727 47.8059 40.1814C44.5996 43.9556 44.4284 47.1375 44.4284 47.1375C44.4284 47.1375 39.4835 50.4015 37.5562 52.0929C34.439 54.6684 31.3148 57.244 28.1906 59.8212C22.8002 64.6858 9.52758 73.6704 13.936 82.4105C14.8674 84.2644 16.4137 85.9225 18.3061 86.9342C21.2031 88.4841 25.0367 90.158 28.6187 89.8802C28.853 89.95 29.1761 89.9936 29.4435 89.9956C32.2706 90.0451 35.372 89.6791 37.9441 88.8563C55.0048 83.3838 65.7403 64.7627 64.3285 46.5557C64.2482 45.5301 64.8247 44.3227 65.5953 43.6325C67.3443 42.0651 74.1536 37.758 76.2976 37.3893C78.8924 36.9421 77.7286 40.877 77.3704 42.1298C77.0138 43.3826 75.9393 45.1718 75.7611 46.6937C75.5828 48.2122 77.1397 48.8884 78.265 49.285C79.7869 49.8215 82.0218 47.854 82.7399 47.2285C83.4528 46.6012 89.9808 40.9678 91.1462 40.1606C92.3099 39.3568 92.4881 41.146 92.3099 41.9498C92.1301 42.757 91.5935 44.9028 91.5027 46.2447C91.4155 47.5849 91.6845 49.0159 92.8446 49.7323C94.0066 50.4487 95.1703 49.9121 96.5122 49.1051C97.8559 48.3031 106.26 42.7571 106.977 42.3989C107.695 42.0423 109.752 40.4314 111.093 40.0732C112.434 39.7131 112.346 41.2352 111.721 42.5771C111.49 43.0715 110.915 45.6192 110.646 46.872C110.377 48.1231 110.288 49.465 111.808 50.7161C112.984 51.6858 115.743 49.016 116.46 48.3904C117.176 47.7667 123.344 42.2207 124.509 41.5043C125.67 40.7879 126.209 42.5457 125.764 44.1881C125.224 46.1556 125.109 47.9973 125.465 48.6682C126.269 50.1884 127.845 50.9922 131.576 50.627C132.206 50.5676 137.034 49.6451 137.034 49.6451Z" fill="white"/>
<path d="M194.876 47.9999C195.267 49.1322 195.929 50.0076 197.788 50.3535C198.638 50.5105 199.714 50.0024 199.864 49.4449C200.065 48.7093 200.458 48.3284 200.285 47.3989C200.067 46.2317 199.228 45.3912 197.369 45.0452C196.523 44.8897 195.445 45.3964 195.298 45.9556C195.097 46.6894 194.565 47.1001 194.876 47.9999Z" fill="white"/>
<path d="M202.419 49.6446C203.477 49.6446 204.336 50.506 204.336 51.5631C204.336 52.6185 203.477 53.4799 202.419 53.4799C201.364 53.4799 200.501 52.6185 200.501 51.5631C200.501 50.506 201.364 49.6446 202.419 49.6446ZM202.419 53.1409C203.29 53.1409 203.997 52.4332 203.997 51.5631C203.997 50.6912 203.29 49.9853 202.419 49.9853C201.547 49.9853 200.842 50.6912 200.842 51.5631C200.842 52.4332 201.547 53.1409 202.419 53.1409ZM201.682 50.4536H202.528C203.054 50.4536 203.3 50.6913 203.3 51.1141C203.3 51.495 203.075 51.682 202.776 51.7169L203.347 52.6447H202.924L202.377 51.7483H202.084V52.6447H201.682L201.682 50.4536ZM202.084 51.4075H202.377C202.626 51.4075 202.9 51.3927 202.9 51.0985C202.9 50.8048 202.626 50.7894 202.377 50.7944H202.084V51.4075Z" fill="white"/>
</svg>
