<svg width="220" height="62" viewBox="0 0 220 62" fill="none" xmlns="http://www.w3.org/2000/svg">
<path d="M179.736 51.65H146.016V52.4205H179.736V51.65Z" fill="white"/>
<path d="M73.8566 51.65H40.1367V52.4205H73.8566V51.65Z" fill="white"/>
<path d="M40.1896 4.51758C40.229 4.51758 40.2421 4.49569 40.2421 4.45629C40.3428 2.91979 41.424 1.79477 42.374 1.79477H42.444V9.0264H41.3628C41.3234 9.0264 41.3015 9.03516 41.3015 9.07893C41.3015 9.11833 41.3234 9.13146 41.3628 9.13146H45.3857C45.4251 9.13146 45.447 9.12271 45.447 9.07893C45.447 9.03954 45.4251 9.0264 45.3857 9.0264H44.2957V1.79477H44.3876C45.3375 1.79477 46.4013 2.91541 46.5019 4.45629C46.5019 4.49569 46.5107 4.51758 46.5545 4.51758C46.5939 4.51758 46.607 4.49569 46.607 4.45629V1.79477C46.607 1.71598 46.5764 1.69409 46.4976 1.69409H40.2509C40.1677 1.69409 40.1414 1.71598 40.1414 1.79477V4.45629C40.1371 4.49569 40.1502 4.51758 40.1896 4.51758Z" fill="white"/>
<path d="M49.2019 9.12707H52.6689C52.7083 9.12707 52.7302 9.11831 52.7302 9.07454C52.7302 9.03514 52.7083 9.02201 52.6689 9.02201H51.8503V5.33178H54.0566V9.02201H53.2555C53.2161 9.02201 53.1942 9.03076 53.1942 9.07454C53.1942 9.11393 53.2161 9.12707 53.2555 9.12707H56.7049C56.7443 9.12707 56.7662 9.11831 56.7662 9.07454C56.7662 9.03514 56.7443 9.02201 56.7049 9.02201H55.9082V1.79476H56.6874C56.7268 1.79476 56.7487 1.786 56.7487 1.74223C56.7487 1.70283 56.7268 1.6897 56.6874 1.6897H53.2774C53.238 1.6897 53.2161 1.69845 53.2161 1.74223C53.2161 1.78162 53.238 1.79476 53.2774 1.79476H54.0566V5.23109H51.8503V1.79476H52.6382C52.6776 1.79476 52.6995 1.786 52.6995 1.74223C52.6995 1.70283 52.6776 1.6897 52.6382 1.6897H49.2194C49.18 1.6897 49.1581 1.69845 49.1581 1.74223C49.1581 1.78162 49.18 1.79476 49.2194 1.79476H49.9986V9.02639H49.2019C49.1625 9.02639 49.1406 9.03514 49.1406 9.07892C49.1406 9.11831 49.1581 9.12707 49.2019 9.12707Z" fill="white"/>
<path d="M59.5383 9.12709H65.483C65.5661 9.12709 65.6143 9.1052 65.6143 9.0264V6.14601C65.6143 6.10661 65.6055 6.08472 65.5618 6.08472C65.518 6.08472 65.5092 6.10661 65.5092 6.14601C65.4085 7.71315 64.1216 9.0264 62.6069 9.0264H62.1823V5.24424H62.3137C63.1016 5.24424 63.5394 5.9928 63.64 6.70195C63.6488 6.74135 63.6488 6.76324 63.6926 6.76324C63.7363 6.76324 63.7451 6.74135 63.7451 6.70195V3.69899C63.7451 3.65959 63.7363 3.6377 63.6926 3.6377C63.6488 3.6377 63.64 3.65959 63.64 3.69899C63.5394 4.50882 63.106 5.14356 62.3137 5.14356H62.1823V1.79477H62.7164C64.1128 1.79477 65.2159 2.88915 65.3166 4.11923C65.3166 4.15862 65.3254 4.18051 65.3691 4.18051C65.4129 4.18051 65.4217 4.15862 65.4217 4.11923V1.79477C65.4217 1.71598 65.391 1.69409 65.3122 1.69409H59.5558C59.5164 1.69409 59.4945 1.70285 59.4945 1.74662C59.4945 1.78602 59.5164 1.79915 59.5558 1.79915H60.335V9.03078H59.5339C59.4945 9.03078 59.4727 9.03954 59.4727 9.08331C59.477 9.11833 59.4989 9.12709 59.5383 9.12709Z" fill="white"/>
<path d="M80.191 8.82504C80.0202 8.96512 79.8276 9.04829 79.6569 9.04829C79.3943 9.04829 79.2235 8.81628 79.2235 8.40918V7.23601C79.2235 5.94027 78.3218 5.20485 76.7152 5.16107V5.12167C78.5056 5.01224 79.2848 4.27244 79.2848 3.38381C79.2848 2.36385 78.4443 1.69409 76.4438 1.69409H73.3796C73.3402 1.69409 73.3183 1.70285 73.3183 1.74662C73.3183 1.78602 73.3402 1.79915 73.3796 1.79915H74.1588V9.03078H73.3621C73.3227 9.03078 73.3008 9.03954 73.3008 9.08331C73.3008 9.12271 73.3227 9.13584 73.3621 9.13584H76.7196C76.759 9.13584 76.7809 9.12709 76.7809 9.08331C76.7809 9.04391 76.759 9.03078 76.7196 9.03078H76.0105V5.22673H76.365C76.829 5.22673 77.3762 5.59882 77.3762 6.34737V7.85323C77.3762 8.64994 77.8928 9.24966 79.0353 9.24966C79.6438 9.24966 80.0159 9.11833 80.261 8.88632C80.2829 8.85568 80.2216 8.7944 80.191 8.82504ZM76.2468 5.12167H76.0061V1.79477H76.2206C76.4438 1.79477 76.6846 1.87795 76.9078 2.09682C77.1617 2.35072 77.3018 2.85413 77.3018 3.4232C77.3018 4.13236 77.1486 4.57449 76.8684 4.85902C76.7152 5.01224 76.4613 5.12167 76.2468 5.12167Z" fill="white"/>
<path d="M88.8799 9.0264V6.14601C88.8799 6.10661 88.8712 6.08472 88.8274 6.08472C88.7836 6.08472 88.7749 6.10661 88.7749 6.14601C88.6742 7.71315 87.3872 9.0264 85.8726 9.0264H85.448V5.24424H85.5793C86.3672 5.24424 86.805 5.9928 86.9057 6.70195C86.9144 6.74135 86.9144 6.76324 86.9582 6.76324C87.002 6.76324 87.0107 6.74135 87.0107 6.70195V3.69899C87.0107 3.65959 87.002 3.6377 86.9582 3.6377C86.9144 3.6377 86.9057 3.65959 86.9057 3.69899C86.805 4.50882 86.3716 5.14356 85.5793 5.14356H85.448V1.79477H85.982C87.3784 1.79477 88.4816 2.88915 88.5822 4.11923C88.5822 4.15862 88.591 4.18051 88.6348 4.18051C88.6785 4.18051 88.6873 4.15862 88.6873 4.11923V1.79477C88.6873 1.71598 88.6567 1.69409 88.5779 1.69409H82.8215C82.7821 1.69409 82.7602 1.70285 82.7602 1.74662C82.7602 1.78602 82.7821 1.79915 82.8215 1.79915H83.6006V9.03078H82.7996C82.7602 9.03078 82.7383 9.03954 82.7383 9.08331C82.7383 9.12271 82.7602 9.13584 82.7996 9.13584H88.7442C88.8318 9.12709 88.8799 9.10958 88.8799 9.0264Z" fill="white"/>
<path d="M91.7467 9.12709C91.7773 9.12709 91.7992 9.10521 91.8255 9.0877C91.9349 9.00452 92.1188 8.91698 92.3902 8.91698C93.0468 8.91698 93.5852 9.24966 94.2506 9.24966C95.6645 9.24966 96.899 8.09838 96.899 6.80264C96.899 5.49815 96.2511 4.88092 94.8065 4.34687C93.6115 3.90036 93.1694 3.41446 93.1694 2.74032C93.1694 2.02241 93.5852 1.70723 94.2725 1.70723C95.2837 1.70723 96.041 2.57836 96.2861 3.91349C96.2949 3.95289 96.308 3.97478 96.3387 3.97478C96.3781 3.97478 96.3912 3.95289 96.3912 3.91349V1.71599C96.3912 1.67659 96.3824 1.6547 96.3518 1.6547C96.3212 1.6547 96.2993 1.67659 96.273 1.6941C96.1636 1.77727 95.9797 1.86482 95.7258 1.86482C95.3012 1.86482 94.8065 1.60217 94.2812 1.60217C93.0293 1.60217 91.9655 2.39012 91.9655 3.67711C91.9655 4.88092 92.4996 5.60758 94.1412 6.25546C95.3625 6.74136 95.6995 7.15722 95.6995 7.862C95.6995 8.66308 95.1349 9.1446 94.2725 9.1446C93.0906 9.1446 92.0969 7.75694 91.8167 6.29485C91.808 6.26421 91.7948 6.23357 91.7642 6.23357C91.7248 6.23357 91.7116 6.25546 91.7116 6.29485V9.06581C91.7029 9.10958 91.716 9.12709 91.7467 9.12709Z" fill="white"/>
<path d="M99.6575 9.12707H103.107C103.146 9.12707 103.168 9.11831 103.168 9.07454C103.168 9.03514 103.146 9.02201 103.107 9.02201H102.306V1.79476H103.085C103.124 1.79476 103.146 1.786 103.146 1.74223C103.146 1.70283 103.124 1.6897 103.085 1.6897H99.675C99.6356 1.6897 99.6137 1.69845 99.6137 1.74223C99.6137 1.78162 99.6356 1.79476 99.675 1.79476H100.454V9.02639H99.6531C99.6137 9.02639 99.5918 9.03514 99.5918 9.07892C99.5962 9.11831 99.6137 9.12707 99.6575 9.12707Z" fill="white"/>
<path d="M112.874 5.37557C112.874 3.16931 111.004 1.69409 109.008 1.69409H105.966C105.927 1.69409 105.905 1.70285 105.905 1.74662C105.905 1.78602 105.927 1.79915 105.966 1.79915H106.745V9.03078H105.944C105.905 9.03078 105.883 9.03954 105.883 9.08331C105.883 9.12271 105.905 9.13584 105.944 9.13584H109.008C111.219 9.12709 112.874 7.55994 112.874 5.37557ZM110.308 8.40042C110.085 8.74624 109.691 9.0264 109.074 9.0264H108.597V1.79477H109.074C109.591 1.79477 110.006 2.00927 110.287 2.40325C110.659 2.92855 110.834 3.76027 110.834 5.35806C110.834 6.99524 110.632 7.88388 110.308 8.40042Z" fill="white"/>
<path d="M115.771 9.12709H121.715C121.794 9.12709 121.847 9.1052 121.847 9.0264V6.14601C121.847 6.10661 121.838 6.08472 121.794 6.08472C121.755 6.08472 121.742 6.10661 121.742 6.14601C121.641 7.71315 120.354 9.0264 118.839 9.0264H118.415V5.24424H118.546C119.334 5.24424 119.767 5.9928 119.872 6.70195C119.881 6.74135 119.881 6.76324 119.925 6.76324C119.969 6.76324 119.978 6.74135 119.978 6.70195V3.69899C119.978 3.65959 119.969 3.6377 119.925 3.6377C119.881 3.6377 119.872 3.65959 119.872 3.69899C119.772 4.50882 119.338 5.14356 118.546 5.14356H118.415V1.79477H118.949C120.345 1.79477 121.448 2.88915 121.549 4.11923C121.549 4.15862 121.558 4.18051 121.602 4.18051C121.645 4.18051 121.654 4.15862 121.654 4.11923V1.79477C121.654 1.71598 121.623 1.69409 121.545 1.69409H115.788C115.749 1.69409 115.727 1.70285 115.727 1.74662C115.727 1.78602 115.749 1.79915 115.788 1.79915H116.567V9.03078H115.766C115.727 9.03078 115.705 9.03954 115.705 9.08331C115.709 9.11833 115.727 9.12709 115.771 9.12709Z" fill="white"/>
<path d="M124.61 9.12707H126.733C126.773 9.12707 126.794 9.11831 126.794 9.07454C126.794 9.03514 126.773 9.02201 126.733 9.02201H125.634V2.15809H125.674L128.861 9.02639C128.9 9.10518 128.931 9.12707 129.014 9.12707H130.135C130.213 9.12707 130.244 9.10518 130.244 9.02639V1.79476H131.154C131.194 1.79476 131.216 1.786 131.216 1.74223C131.216 1.70283 131.194 1.6897 131.154 1.6897H129.11C129.071 1.6897 129.049 1.69845 129.049 1.74223C129.049 1.78162 129.071 1.79476 129.11 1.79476H130.121V7.32792H130.082L127.512 1.79476C127.473 1.71596 127.429 1.69407 127.35 1.69407H124.641C124.601 1.69407 124.579 1.70283 124.579 1.7466C124.579 1.786 124.601 1.79913 124.641 1.79913H125.512V9.03076H124.61C124.571 9.03076 124.549 9.03952 124.549 9.08329C124.549 9.11831 124.571 9.12707 124.61 9.12707Z" fill="white"/>
<path d="M139.874 6.2467C139.835 6.2467 139.822 6.26859 139.822 6.30799C139.73 7.19662 138.386 9.14898 137.204 9.14898C136.819 9.14898 136.648 9.06581 136.434 8.85569C136.079 8.50111 135.816 7.46802 135.816 5.42811C135.816 3.38819 136.079 2.3551 136.434 2.00053C136.648 1.78603 136.819 1.70723 137.204 1.70723C137.366 1.70723 137.598 1.72912 137.738 1.77727C138.64 2.10121 139.467 3.27438 139.669 4.37751C139.677 4.41691 139.69 4.43879 139.721 4.43879C139.76 4.43879 139.774 4.41691 139.774 4.37751V1.71599C139.774 1.67659 139.765 1.6547 139.734 1.6547C139.704 1.6547 139.673 1.68535 139.642 1.71599C139.542 1.81667 139.358 1.91735 139.086 1.91735C138.377 1.91735 137.983 1.60217 137.204 1.60217C135.383 1.60217 133.785 3.23936 133.785 5.42373C133.785 7.6081 135.212 9.24529 137.204 9.24529C137.83 9.24529 138.618 8.93011 139.174 8.93011C139.507 8.93011 139.699 9.01328 139.8 9.11396C139.839 9.15336 139.852 9.17525 139.879 9.17525C139.905 9.17525 139.918 9.15336 139.918 9.11396V6.30361C139.922 6.26421 139.914 6.2467 139.874 6.2467Z" fill="white"/>
<path d="M149.088 9.0264V6.14601C149.088 6.10661 149.08 6.08472 149.036 6.08472C148.996 6.08472 148.983 6.10661 148.983 6.14601C148.883 7.71315 147.596 9.0264 146.081 9.0264H145.656V5.24424H145.788C146.576 5.24424 147.009 5.9928 147.114 6.70195C147.123 6.74135 147.123 6.76324 147.167 6.76324C147.21 6.76324 147.219 6.74135 147.219 6.70195V3.69899C147.219 3.65959 147.21 3.6377 147.167 3.6377C147.123 3.6377 147.114 3.65959 147.114 3.69899C147.013 4.50882 146.58 5.14356 145.788 5.14356H145.656V1.79477H146.191C147.587 1.79477 148.69 2.88915 148.791 4.11923C148.791 4.15862 148.8 4.18051 148.843 4.18051C148.887 4.18051 148.896 4.15862 148.896 4.11923V1.79477C148.896 1.71598 148.865 1.69409 148.786 1.69409H143.034C142.995 1.69409 142.973 1.70285 142.973 1.74662C142.973 1.78602 142.995 1.79915 143.034 1.79915H143.814V9.03078H143.012C142.973 9.03078 142.951 9.03954 142.951 9.08331C142.951 9.12271 142.973 9.13584 143.012 9.13584H148.957C149.036 9.12709 149.088 9.10958 149.088 9.0264Z" fill="white"/>
<path d="M151.952 9.12709C151.982 9.12709 152.004 9.10521 152.03 9.0877C152.14 9.00452 152.324 8.91698 152.595 8.91698C153.252 8.91698 153.79 9.24966 154.455 9.24966C155.869 9.24966 157.104 8.09838 157.104 6.80264C157.104 5.49815 156.456 4.88092 155.011 4.34687C153.816 3.90036 153.374 3.41446 153.374 2.74032C153.374 2.02241 153.79 1.70723 154.477 1.70723C155.489 1.70723 156.246 2.57836 156.491 3.91349C156.5 3.95289 156.513 3.97478 156.543 3.97478C156.583 3.97478 156.596 3.95289 156.596 3.91349V1.71599C156.596 1.67659 156.587 1.6547 156.557 1.6547C156.526 1.6547 156.504 1.67659 156.473 1.6941C156.364 1.77727 156.18 1.86482 155.926 1.86482C155.502 1.86482 155.007 1.60217 154.482 1.60217C153.23 1.60217 152.166 2.39012 152.166 3.67711C152.166 4.88092 152.7 5.60758 154.342 6.25546C155.563 6.74136 155.9 7.15722 155.9 7.862C155.9 8.66308 155.335 9.1446 154.473 9.1446C153.291 9.1446 152.297 7.75694 152.017 6.29485C152.008 6.26421 151.995 6.23357 151.965 6.23357C151.925 6.23357 151.912 6.25546 151.912 6.29485V9.06581C151.912 9.10958 151.921 9.12709 151.952 9.12709Z" fill="white"/>
<path d="M164.393 9.12704H166.385C166.424 9.12704 166.446 9.11829 166.446 9.07451C166.446 9.03512 166.424 9.02198 166.385 9.02198H165.321L165.977 6.8989H168.184L168.84 9.02198H167.82C167.781 9.02198 167.759 9.03074 167.759 9.07451C167.759 9.11391 167.781 9.12704 167.82 9.12704H171.401C171.441 9.12704 171.463 9.11829 171.463 9.07451C171.463 9.03512 171.441 9.02198 171.401 9.02198H170.714L168.46 1.67216C168.438 1.61088 168.42 1.58899 168.359 1.58899H167.571C167.51 1.58899 167.492 1.61088 167.47 1.67216L165.207 9.02198H164.397C164.358 9.02198 164.336 9.03074 164.336 9.07451C164.336 9.11829 164.353 9.12704 164.393 9.12704ZM167.076 3.38376H167.116L168.157 6.80259H166.013L167.076 3.38376Z" fill="white"/>
<path d="M173.326 4.51758C173.365 4.51758 173.378 4.49569 173.378 4.45629C173.479 2.91979 174.56 1.79477 175.51 1.79477H175.58V9.0264H174.499C174.459 9.0264 174.438 9.03516 174.438 9.07893C174.438 9.11833 174.459 9.13146 174.499 9.13146H178.522C178.561 9.13146 178.583 9.12271 178.583 9.07893C178.583 9.03954 178.561 9.0264 178.522 9.0264H177.427V1.79477H177.519C178.469 1.79477 179.533 2.91541 179.634 4.45629C179.634 4.49569 179.642 4.51758 179.686 4.51758C179.726 4.51758 179.739 4.49569 179.739 4.45629V1.79477C179.739 1.71598 179.708 1.69409 179.629 1.69409H173.391C173.313 1.69409 173.282 1.71598 173.282 1.79477V4.45629C173.273 4.49569 173.286 4.51758 173.326 4.51758Z" fill="white"/>
<path d="M90.0832 52.5693C90.0438 52.5693 90.0307 52.5912 90.0307 52.6306C89.9388 53.5192 88.5949 55.4716 87.413 55.4716C87.0277 55.4716 86.857 55.3928 86.6425 55.1783C86.3317 54.8675 86.091 54.0227 86.0384 52.4205C86.0297 52.2104 86.0253 51.9871 86.0253 51.7507C86.0253 51.7157 86.0253 51.6851 86.0253 51.6501C86.0341 49.6802 86.2923 48.6734 86.6425 48.3232C86.857 48.113 87.0277 48.0299 87.413 48.0299C87.5749 48.0299 87.8069 48.0517 87.947 48.0999C88.8488 48.4238 89.6761 49.597 89.8775 50.7001C89.8863 50.7395 89.8994 50.7614 89.93 50.7614C89.9694 50.7614 89.9826 50.7395 89.9826 50.7001V48.0386C89.9826 47.9992 89.9738 47.9773 89.9432 47.9773C89.9125 47.9773 89.8819 48.008 89.8512 48.0386C89.7505 48.1393 89.5667 48.24 89.2953 48.24C88.5861 48.24 88.1922 47.9248 87.413 47.9248C85.6226 47.9248 84.051 49.5138 83.9985 51.6457C83.9985 51.6807 83.9941 51.7113 83.9941 51.7464C83.9941 51.9784 84.0117 52.1972 84.0423 52.4161C84.3006 54.2547 85.6269 55.5679 87.4086 55.5679C88.0346 55.5679 88.8225 55.2527 89.3785 55.2527C89.7111 55.2527 89.9038 55.3315 90.0044 55.4366C90.0438 55.476 90.057 55.4979 90.0876 55.4979C90.1183 55.4979 90.127 55.476 90.127 55.4366V52.6262C90.1358 52.5912 90.127 52.5693 90.0832 52.5693Z" fill="white"/>
<path d="M99.2512 52.4074C99.2337 52.4074 99.2249 52.4117 99.2162 52.4205C99.2031 52.4292 99.1987 52.4468 99.1987 52.4686C99.098 54.0358 97.811 55.349 96.2964 55.349H95.8718V52.4205V51.65V51.5713H96.0031C96.1476 51.5713 96.2789 51.6063 96.4015 51.65C96.7473 51.7814 96.9968 52.0747 97.15 52.4205C97.2376 52.6131 97.2988 52.8188 97.3251 53.0246C97.3339 53.064 97.3339 53.0859 97.3776 53.0859C97.4214 53.0859 97.4302 53.064 97.4302 53.0246V52.4205V51.65V50.0216C97.4302 49.9822 97.4214 49.9603 97.3776 49.9603C97.3339 49.9603 97.3251 49.9822 97.3251 50.0216C97.2244 50.8315 96.7911 51.4662 95.9987 51.4662H95.8674V48.1174H96.4015C97.7979 48.1174 98.901 49.2118 99.0017 50.4419C99.0017 50.4813 99.0104 50.5031 99.0542 50.5031C99.098 50.5031 99.1067 50.4813 99.1067 50.4419V48.1174C99.1067 48.0386 99.0761 48.0167 98.9973 48.0167H93.2409C93.2015 48.0167 93.1796 48.0255 93.1796 48.0693C93.1796 48.113 93.2015 48.1218 93.2409 48.1218H94.0201V51.65V52.4205V55.349H93.2234C93.184 55.349 93.1621 55.3578 93.1621 55.4016C93.1621 55.441 93.184 55.4541 93.2234 55.4541H99.168C99.2512 55.4541 99.2994 55.4322 99.2994 55.3534V52.473C99.2994 52.4511 99.295 52.4336 99.2819 52.4249C99.2775 52.4117 99.2687 52.4074 99.2512 52.4074Z" fill="white"/>
<path d="M108.606 48.0211H106.561C106.522 48.0211 106.5 48.0299 106.5 48.0736C106.5 48.1174 106.522 48.1262 106.561 48.1262H107.573V51.6544V52.4249V53.655H107.533L106.96 52.4249L106.601 51.6544L104.964 48.1262C104.924 48.0474 104.885 48.0255 104.802 48.0255H102.092C102.053 48.0255 102.031 48.0343 102.031 48.078C102.031 48.1218 102.053 48.1306 102.092 48.1306H102.963V51.6588V52.4293V55.3578H102.061C102.022 55.3578 102 55.3666 102 55.4103C102 55.4497 102.022 55.4629 102.061 55.4629H104.184C104.224 55.4629 104.246 55.4541 104.246 55.4103C104.246 55.3709 104.224 55.3578 104.184 55.3578H103.081V52.4293V51.6588V48.4939H103.121L104.587 51.6588L104.946 52.4293L106.307 55.3578C106.347 55.441 106.378 55.4585 106.461 55.4585H107.581C107.664 55.4585 107.691 55.4366 107.691 55.3578V52.4293V51.6588V48.1306H108.601C108.641 48.1306 108.663 48.1218 108.663 48.078C108.663 48.0343 108.649 48.0211 108.606 48.0211Z" fill="white"/>
<path d="M117.295 48.0211H111.057C110.974 48.0211 110.947 48.043 110.947 48.1218V50.7789C110.947 50.8183 110.956 50.8402 111 50.8402C111.044 50.8402 111.052 50.8183 111.052 50.7789C111.153 49.2424 112.234 48.1174 113.184 48.1174H113.254V51.6457V52.4161V55.3447H112.173C112.134 55.3447 112.112 55.3534 112.112 55.3972C112.112 55.4366 112.134 55.4497 112.173 55.4497H116.196C116.235 55.4497 116.257 55.441 116.257 55.3972C116.257 55.3578 116.235 55.3447 116.196 55.3447H115.102V52.4161V51.6457V48.1174H115.193C116.143 48.1174 117.207 49.2381 117.308 50.7789C117.308 50.8183 117.317 50.8402 117.36 50.8402C117.4 50.8402 117.413 50.8183 117.413 50.7789V48.1174C117.408 48.0386 117.378 48.0211 117.295 48.0211Z" fill="white"/>
<path d="M126.036 52.4074C126.019 52.4074 126.01 52.4117 126.006 52.4205C125.993 52.4292 125.988 52.4468 125.988 52.4686C125.888 54.0358 124.601 55.349 123.086 55.349H122.661V52.4205V51.65V51.5713H122.793C122.937 51.5713 123.068 51.6063 123.191 51.65C123.537 51.7814 123.786 52.0747 123.94 52.4205C124.027 52.6131 124.088 52.8188 124.115 53.0246C124.123 53.064 124.123 53.0859 124.167 53.0859C124.211 53.0859 124.22 53.064 124.22 53.0246V52.4205V51.65V50.0216C124.22 49.9822 124.211 49.9603 124.167 49.9603C124.123 49.9603 124.115 49.9822 124.115 50.0216C124.014 50.8315 123.581 51.4662 122.788 51.4662H122.657V48.1174H123.191C124.587 48.1174 125.691 49.2118 125.791 50.4419C125.791 50.4813 125.8 50.5031 125.844 50.5031C125.888 50.5031 125.896 50.4813 125.896 50.4419V48.1174C125.896 48.0386 125.866 48.0167 125.787 48.0167H120.03C119.991 48.0167 119.969 48.0255 119.969 48.0693C119.969 48.113 119.991 48.1218 120.03 48.1218H120.81V51.65V52.4205V55.349H120.009C119.969 55.349 119.947 55.3578 119.947 55.4016C119.947 55.441 119.969 55.4541 120.009 55.4541H125.953C126.032 55.4541 126.085 55.4322 126.085 55.3534V52.473C126.085 52.4511 126.08 52.4336 126.067 52.4249C126.063 52.4117 126.054 52.4074 126.036 52.4074Z" fill="white"/>
<path d="M135.807 55.1477C135.636 55.2878 135.443 55.3709 135.273 55.3709C135.01 55.3709 134.839 55.1389 134.839 54.7318V53.5586C134.839 53.1078 134.725 52.7269 134.511 52.4161C134.27 52.0615 133.898 51.7989 133.403 51.6457C133.093 51.5494 132.734 51.4968 132.331 51.4837V51.4443C134.121 51.3349 134.901 50.5951 134.901 49.7064C134.901 48.6865 134.06 48.0167 132.06 48.0167H128.995C128.956 48.0167 128.934 48.0255 128.934 48.0693C128.934 48.113 128.956 48.1218 128.995 48.1218H129.774V51.65V52.4205V55.349H128.973C128.934 55.349 128.912 55.3578 128.912 55.4016C128.912 55.441 128.934 55.4541 128.973 55.4541H132.331C132.37 55.4541 132.392 55.4453 132.392 55.4016C132.392 55.3622 132.37 55.349 132.331 55.349H131.622V52.4205V51.65V51.5494H131.976C132.112 51.5494 132.252 51.5844 132.388 51.65C132.659 51.777 132.891 52.0353 132.966 52.4205C132.979 52.4993 132.988 52.5825 132.988 52.67V54.1759C132.988 54.9769 133.504 55.5723 134.647 55.5723C135.255 55.5723 135.627 55.441 135.872 55.209C135.899 55.1783 135.837 55.117 135.807 55.1477ZM131.863 51.4487H131.622V48.1218H131.836C132.06 48.1218 132.3 48.2006 132.524 48.4238C132.777 48.6777 132.918 49.1811 132.918 49.7502C132.918 50.4594 132.764 50.9015 132.484 51.186C132.327 51.3349 132.077 51.4487 131.863 51.4487Z" fill="white"/>
<path d="M23.7693 34.6917L18.5601 19.261H16.0825L10.7682 34.6085L5.66838 19.261H2.88867L9.20103 38.1411H12.0902L17.2381 23.065L22.3904 38.1411H25.2227L31.535 19.261H28.9742L23.7693 34.6917Z" fill="white"/>
<path d="M45.6184 19.261H42.9219V38.1411H45.6184V19.261Z" fill="white"/>
<path d="M72.9146 33.3434L61.5856 19.261H59.375V38.1411H62.0715V24.0631L73.4005 38.1411H75.6111V19.261H72.9146V33.3434Z" fill="white"/>
<path d="M95.7872 38.1411V21.6073H102.262V19.261H86.6426V21.6073H93.1169V38.1411H95.7872Z" fill="white"/>
<path d="M129.533 38.1411V19.261H126.837V27.3812H115.994V19.261H113.293V38.1411H115.994V29.7276H126.837V38.1411H129.533Z" fill="white"/>
<path d="M151.843 32.3454L155.914 38.1455H158.855L154.377 31.8069C155.708 31.3385 156.732 30.5944 157.455 29.57C158.173 28.5457 158.532 27.3025 158.532 25.8491C158.532 23.8005 157.831 22.1896 156.426 21.0208C155.025 19.852 153.099 19.2654 150.652 19.2654H143.289V38.1455H145.986V32.3979H150.652C150.945 32.3979 151.339 32.3804 151.843 32.3454ZM145.99 30.1041V21.6073H150.578C152.285 21.6073 153.589 21.9707 154.491 22.7017C155.388 23.4284 155.839 24.479 155.839 25.8448C155.839 27.2105 155.388 28.2655 154.491 29.0009C153.594 29.7407 152.289 30.1084 150.578 30.1084H145.99V30.1041Z" fill="white"/>
<path d="M184.643 20.2985C183.115 19.4624 181.408 19.0421 179.517 19.0421C177.613 19.0421 175.892 19.4624 174.365 20.2985C172.837 21.1346 171.637 22.2902 170.762 23.7654C169.891 25.2407 169.453 26.8866 169.453 28.7033C169.453 30.5199 169.891 32.1659 170.762 33.6411C171.633 35.1163 172.833 36.272 174.365 37.1081C175.892 37.9442 177.613 38.3644 179.517 38.3644C181.404 38.3644 183.115 37.9442 184.643 37.1081C186.171 36.272 187.366 35.1207 188.233 33.6542C189.095 32.1877 189.528 30.5374 189.528 28.7033C189.528 26.8691 189.095 25.2188 188.233 23.7523C187.366 22.2858 186.171 21.1346 184.643 20.2985ZM185.869 32.411C185.23 33.5185 184.359 34.3852 183.251 35.0156C182.143 35.646 180.9 35.9612 179.517 35.9612C178.134 35.9612 176.877 35.646 175.752 35.0156C174.627 34.3852 173.747 33.5185 173.108 32.411C172.469 31.3035 172.15 30.069 172.15 28.7033C172.15 27.3375 172.469 26.0986 173.108 24.9955C173.747 23.888 174.627 23.0213 175.752 22.3909C176.877 21.7605 178.129 21.4454 179.517 21.4454C180.9 21.4454 182.148 21.7605 183.251 22.3909C184.359 23.0213 185.23 23.888 185.869 24.9955C186.508 26.103 186.827 27.3375 186.827 28.7033C186.827 30.069 186.508 31.3035 185.869 32.411Z" fill="white"/>
<path d="M214.883 21.012C213.482 19.8432 211.556 19.2566 209.109 19.2566H201.746V38.1367H204.443V32.4241H209.109C211.556 32.4241 213.478 31.8419 214.883 30.6687C216.284 29.4999 216.989 27.889 216.989 25.8404C216.989 23.7917 216.284 22.1851 214.883 21.012ZM212.939 28.9834C212.042 29.7101 210.737 30.0778 209.026 30.0778H204.438V21.6073H209.026C210.733 21.6073 212.038 21.9706 212.939 22.7017C213.837 23.4283 214.288 24.4789 214.288 25.8447C214.288 27.2105 213.837 28.2567 212.939 28.9834Z" fill="white"/>
</svg>
