<svg width="380" height="301" viewBox="0 0 380 301" fill="none" xmlns="http://www.w3.org/2000/svg">
<path opacity="0.2" d="M-259.791 104.166C-283.845 104.166 -287.595 48.7576 -316 48.7576M-259.791 80.1625C-283.845 80.1625 -287.595 24.9037 -316 24.9037M-259.791 56.1586C-283.845 56.1586 -287.595 1.04981 -316 1.04981M-259.791 247.289C-283.845 247.289 -287.595 191.88 -316 191.88M-259.791 223.435C-283.845 223.435 -287.595 168.027 -316 168.027M-259.791 199.582C-283.845 199.582 -287.595 144.173 -316 144.173M-259.791 175.728C-283.845 175.728 -287.595 120.319 -316 120.319M-259.791 151.874C-283.845 151.874 -287.595 96.4649 -316 96.4649M-259.791 128.02C-283.845 128.02 -287.595 72.611 -316 72.611M-259.841 104.166C-235.787 104.166 -232.037 48.7576 -203.632 48.7576C-175.228 48.7576 -171.477 104.166 -147.423 104.166C-123.369 104.166 -119.619 48.7576 -91.2141 48.7576C-62.8096 48.7576 -59.059 104.166 -35.0052 104.166M-259.841 80.1622C-235.787 80.1622 -232.037 24.8534 -203.632 24.8534C-175.228 24.8534 -171.477 80.1622 -147.423 80.1622C-123.369 80.1622 -119.619 24.8534 -91.2141 24.8534C-62.8096 24.8534 -59.059 80.1622 -35.0052 80.1622M-259.841 56.1586C-235.787 56.1586 -232.037 1.04981 -203.632 1.04981C-175.228 1.04981 -171.477 56.1586 -147.423 56.1586C-123.369 56.1586 -119.619 1.04981 -91.2141 1.04981C-62.8596 1.04981 -59.059 56.1586 -35.0052 56.1586M-259.841 247.289C-235.787 247.289 -232.037 191.88 -203.632 191.88C-175.228 191.88 -171.477 247.289 -147.423 247.289C-123.369 247.289 -119.619 191.88 -91.2141 191.88C-62.8096 191.88 -59.059 247.289 -35.0052 247.289M-259.841 223.435C-235.787 223.435 -232.037 168.027 -203.632 168.027C-175.228 168.027 -171.477 223.435 -147.423 223.435C-123.369 223.435 -119.619 168.027 -91.2141 168.027C-62.8096 168.027 -59.059 223.435 -35.0052 223.435M-259.841 199.582C-235.787 199.582 -232.037 144.173 -203.632 144.173C-175.228 144.173 -171.477 199.582 -147.423 199.582C-123.369 199.582 -119.619 144.173 -91.2141 144.173C-62.8096 144.173 -59.059 199.582 -35.0052 199.582M-259.841 175.728C-235.787 175.728 -232.037 120.319 -203.632 120.319C-175.228 120.319 -171.477 175.728 -147.423 175.728C-123.369 175.728 -119.619 120.319 -91.2141 120.319C-62.8096 120.319 -59.059 175.728 -35.0052 175.728M-259.841 151.874C-235.787 151.874 -232.037 96.4649 -203.632 96.4649C-175.228 96.4649 -171.477 151.874 -147.423 151.874C-123.369 151.874 -119.619 96.4649 -91.2141 96.4649C-62.8096 96.4649 -59.059 151.874 -35.0052 151.874M-259.841 128.02C-235.787 128.02 -232.037 72.611 -203.632 72.611C-175.228 72.611 -171.477 128.02 -147.423 128.02C-123.369 128.02 -119.619 72.611 -91.2141 72.611C-62.8096 72.611 -59.059 128.02 -35.0052 128.02M-35.0553 104.166C-11.0015 104.166 -7.25088 48.7576 21.1536 48.7576C49.5582 48.7576 53.3089 104.166 77.3628 104.166M-35.0553 80.1622C-11.0015 80.1622 -7.25088 24.8534 21.1536 24.8534C49.5582 24.8534 53.3089 80.1622 77.3628 80.1622M-35.0553 56.1586C-11.0015 56.1586 -7.25088 1.04981 21.1536 1.04981M-35.0553 247.289C-11.0015 247.289 -7.25088 191.88 21.1536 191.88C49.5582 191.88 53.3089 247.289 77.3628 247.289M-35.0553 223.435C-11.0015 223.435 -7.25088 168.027 21.1536 168.027C49.5582 168.027 53.3089 223.435 77.3628 223.435M-35.0553 199.582C-11.0015 199.582 -7.25088 144.173 21.1536 144.173C49.5582 144.173 53.3089 199.582 77.3628 199.582M-35.0553 175.728C-11.0015 175.728 -7.25088 120.319 21.1536 120.319C49.5582 120.319 53.3089 175.728 77.3628 175.728M-35.0553 151.874C-11.0015 151.874 -7.25088 96.4649 21.1536 96.4649C49.5582 96.4649 53.3089 151.874 77.3628 151.874M-35.0553 128.02C-11.0015 128.02 -7.25088 72.611 21.1536 72.611C49.5582 72.611 53.3089 128.02 77.3628 128.02M77.3627 56.1586C53.3089 56.1586 49.5083 1.04981 21.1038 1.04981M77.2626 104.166C101.316 104.166 105.067 48.7576 133.472 48.7576C161.876 48.7576 165.627 104.166 189.68 104.166M77.2626 80.1622C101.316 80.1622 105.067 24.8534 133.472 24.8534C161.876 24.8534 165.627 80.1622 189.68 80.1622M77.2626 56.1586C101.316 56.1586 105.067 1.04981 133.472 1.04981C161.826 1.04981 165.627 56.1586 189.68 56.1586M77.2626 247.289C101.316 247.289 105.067 191.88 133.472 191.88C161.876 191.88 165.627 247.289 189.68 247.289M77.2626 223.435C101.316 223.435 105.067 168.027 133.472 168.027C161.876 168.027 165.627 223.435 189.68 223.435M77.2626 199.582C101.316 199.582 105.067 144.173 133.472 144.173C161.876 144.173 165.627 199.582 189.68 199.582M77.2626 175.728C101.316 175.728 105.067 120.319 133.472 120.319C161.876 120.319 165.627 175.728 189.68 175.728M77.2626 151.874C101.316 151.874 105.067 96.4649 133.472 96.4649C161.876 96.4649 165.627 151.874 189.68 151.874M77.2626 128.02C101.316 128.02 105.067 72.611 133.472 72.611C161.876 72.611 165.627 128.02 189.68 128.02M-259.791 295.047C-283.845 295.047 -287.595 239.588 -316 239.588M-259.841 295.046C-235.787 295.046 -232.037 239.638 -203.632 239.638C-175.228 239.638 -171.477 295.046 -147.423 295.046C-123.369 295.046 -119.619 239.638 -91.2141 239.638M-35.0052 295.047C-59.059 295.047 -62.8597 239.588 -91.2142 239.588M-35.0553 295.046C-11.0015 295.046 -7.25088 239.638 21.1536 239.638C49.5582 239.638 53.3089 295.046 77.3628 295.046M77.2626 295.046C101.316 295.046 105.067 239.638 133.472 239.638M189.68 295.047C165.627 295.047 161.826 239.588 133.472 239.588M-259.791 271.143C-283.845 271.143 -287.595 215.734 -316 215.734M-259.841 271.143C-235.787 271.143 -232.037 215.734 -203.632 215.734C-175.228 215.734 -171.477 271.143 -147.423 271.143C-123.369 271.143 -119.619 215.734 -91.2141 215.734C-62.8096 215.734 -59.059 271.143 -35.0052 271.143M-35.0553 271.143C-11.0015 271.143 -7.25088 215.734 21.1536 215.734C49.5582 215.734 53.3089 271.143 77.3628 271.143M77.2626 271.143C101.316 271.143 105.067 215.734 133.472 215.734C161.876 215.734 165.627 271.143 189.68 271.143M-259.791 318.901C-283.845 318.901 -287.595 263.442 -316 263.442M-259.841 318.9C-235.787 318.9 -232.037 263.492 -203.632 263.492C-175.228 263.492 -171.477 318.9 -147.423 318.9C-123.369 318.9 -119.619 263.492 -91.2141 263.492C-62.8096 263.492 -59.059 318.9 -35.0052 318.9M-35.0553 318.9C-11.0015 318.9 -7.25088 263.492 21.1536 263.492C49.5582 263.492 53.3089 318.9 77.3628 318.9M77.2626 318.9C101.316 318.9 105.067 263.492 133.472 263.492C161.876 263.492 165.627 318.9 189.68 318.9M-259.791 342.754C-283.845 342.754 -287.595 287.296 -316 287.296M-259.841 342.754C-235.787 342.754 -232.037 287.345 -203.632 287.345C-175.228 287.345 -171.477 342.754 -147.423 342.754C-123.369 342.754 -119.619 287.345 -91.2141 287.345C-62.8096 287.345 -59.059 342.754 -35.0052 342.754M-35.0553 342.754C-11.0015 342.754 -7.25088 287.345 21.1536 287.345C49.5582 287.345 53.3089 342.754 77.3628 342.754M77.2626 342.754C101.316 342.754 105.067 287.345 133.472 287.345C161.876 287.345 165.627 342.754 189.68 342.754M-259.791 366.608C-283.845 366.608 -287.595 311.149 -316 311.149M-259.841 366.608C-235.787 366.608 -232.037 311.199 -203.632 311.199C-175.228 311.199 -171.477 366.608 -147.423 366.608C-123.369 366.608 -119.619 311.199 -91.2141 311.199C-62.8096 311.199 -59.059 366.608 -35.0052 366.608M-35.0553 366.608C-11.0015 366.608 -7.25088 311.199 21.1536 311.199C49.5582 311.199 53.3089 366.608 77.3628 366.608M77.2626 366.608C101.316 366.608 105.067 311.199 133.472 311.199C161.876 311.199 165.627 366.608 189.68 366.608M-259.791 390.462C-283.845 390.462 -287.595 335.003 -316 335.003M-259.841 390.462C-235.787 390.462 -232.037 335.053 -203.632 335.053C-175.228 335.053 -171.477 390.462 -147.423 390.462C-123.369 390.462 -119.619 335.053 -91.2141 335.053C-62.8096 335.053 -59.059 390.462 -35.0052 390.462M-35.0553 390.462C-11.0015 390.462 -7.25088 335.053 21.1536 335.053C49.5582 335.053 53.3089 390.462 77.3628 390.462M77.2626 390.462C101.316 390.462 105.067 335.053 133.472 335.053C161.876 335.053 165.627 390.462 189.68 390.462M-259.791 414.315C-283.845 414.315 -287.595 358.907 -316 358.907M-259.841 414.315C-235.787 414.315 -232.037 358.907 -203.632 358.907C-175.228 358.907 -171.477 414.315 -147.423 414.315C-123.369 414.315 -119.619 358.907 -91.2141 358.907C-62.8096 358.907 -59.059 414.315 -35.0052 414.315M-35.0553 414.315C-11.0015 414.315 -7.25088 358.907 21.1536 358.907C49.5582 358.907 53.3089 414.315 77.3628 414.315M77.2626 414.315C101.316 414.315 105.067 358.907 133.472 358.907C161.876 358.907 165.627 414.315 189.68 414.315M-259.791 438.169C-283.845 438.169 -287.595 382.76 -316 382.76M-259.841 438.169C-235.787 438.169 -232.037 382.76 -203.632 382.76C-175.228 382.76 -171.477 438.169 -147.423 438.169C-123.369 438.169 -119.619 382.76 -91.2141 382.76C-62.8096 382.76 -59.059 438.169 -35.0052 438.169M-35.0553 438.169C-11.0015 438.169 -7.25088 382.76 21.1536 382.76C49.5582 382.76 53.3089 438.169 77.3628 438.169M77.2626 438.169C101.316 438.169 105.067 382.76 133.472 382.76C161.876 382.76 165.627 438.169 189.68 438.169M-259.791 462.023C-283.845 462.023 -287.595 406.614 -316 406.614M-259.841 462.023C-235.787 462.023 -232.037 406.614 -203.632 406.614C-175.228 406.614 -171.477 462.023 -147.423 462.023C-123.369 462.023 -119.619 406.614 -91.2141 406.614C-62.8596 406.614 -59.059 462.023 -35.0052 462.023M-35.0553 462.023C-11.0015 462.023 -7.25088 406.614 21.1536 406.614C49.5582 406.614 53.3089 462.023 77.3628 462.023M77.2626 462.023C101.316 462.023 105.067 406.614 133.472 406.614C161.826 406.614 165.627 462.023 189.68 462.023M-259.791 485.877C-283.845 485.877 -287.595 430.468 -316 430.468M-259.841 485.877C-235.787 485.877 -232.037 430.468 -203.632 430.468C-175.228 430.468 -171.477 485.877 -147.423 485.877C-123.369 485.877 -119.619 430.468 -91.2141 430.468C-62.8096 430.468 -59.059 485.877 -35.0052 485.877M-35.0553 485.877C-11.0015 485.877 -7.25088 430.468 21.1536 430.468C49.5582 430.468 53.3089 485.877 77.3628 485.877M77.2626 485.877C101.316 485.877 105.067 430.468 133.472 430.468C161.876 430.468 165.627 485.877 189.68 485.877M-259.791 509.731C-283.845 509.731 -287.595 454.322 -316 454.322M-259.841 509.731C-235.787 509.731 -232.037 454.322 -203.632 454.322C-175.228 454.322 -171.477 509.731 -147.423 509.731C-123.369 509.731 -119.619 454.322 -91.2141 454.322C-62.8096 454.322 -59.059 509.731 -35.0052 509.731M-35.0553 509.731C-11.0015 509.731 -7.25088 454.322 21.1536 454.322C49.5582 454.322 53.3089 509.731 77.3628 509.731M77.2626 509.731C101.316 509.731 105.067 454.322 133.472 454.322C161.876 454.322 165.627 509.731 189.68 509.731M-259.791 533.584C-283.845 533.584 -287.595 478.176 -316 478.176M-259.841 533.584C-235.787 533.584 -232.037 478.176 -203.632 478.176C-175.228 478.176 -171.477 533.584 -147.423 533.584C-123.369 533.584 -119.619 478.176 -91.2141 478.176C-62.8096 478.176 -59.059 533.584 -35.0052 533.584M-35.0553 533.584C-11.0015 533.584 -7.25088 478.176 21.1536 478.176C49.5582 478.176 53.3089 533.584 77.3628 533.584M77.2626 533.584C101.316 533.584 105.067 478.176 133.472 478.176C161.876 478.176 165.627 533.584 189.68 533.584M-259.791 557.438C-283.845 557.438 -287.595 502.029 -316 502.029M-259.841 557.438C-235.787 557.438 -232.037 502.029 -203.632 502.029C-175.228 502.029 -171.477 557.438 -147.423 557.438C-123.369 557.438 -119.619 502.029 -91.2141 502.029C-62.8096 502.029 -59.059 557.438 -35.0052 557.438M-35.0553 557.438C-11.0015 557.438 -7.25088 502.029 21.1536 502.029C49.5582 502.029 53.3089 557.438 77.3628 557.438M77.2626 557.438C101.316 557.438 105.067 502.029 133.472 502.029C161.876 502.029 165.627 557.438 189.68 557.438M-259.791 581.292C-283.845 581.292 -287.595 525.883 -316 525.883M-259.841 581.292C-235.787 581.292 -232.037 525.883 -203.632 525.883C-175.228 525.883 -171.477 581.292 -147.423 581.292C-123.369 581.292 -119.619 525.883 -91.2141 525.883C-62.8096 525.883 -59.059 581.292 -35.0052 581.292M-35.0553 581.292C-11.0015 581.292 -7.25088 525.883 21.1536 525.883C49.5582 525.883 53.3089 581.292 77.3628 581.292M77.2626 581.292C101.316 581.292 105.067 525.883 133.472 525.883C161.876 525.883 165.627 581.292 189.68 581.292M-259.791 605.146C-283.845 605.146 -287.595 549.737 -316 549.737M-259.841 605.146C-235.787 605.146 -232.037 549.737 -203.632 549.737C-175.228 549.737 -171.477 605.146 -147.423 605.146C-123.369 605.146 -119.619 549.737 -91.2141 549.737C-62.8096 549.737 -59.059 605.146 -35.0052 605.146M-35.0553 605.146C-11.0015 605.146 -7.25088 549.737 21.1536 549.737C49.5582 549.737 53.3089 605.146 77.3628 605.146M77.2626 605.146C101.316 605.146 105.067 549.737 133.472 549.737C161.876 549.737 165.627 605.146 189.68 605.146M-259.791 629C-283.845 629 -287.595 573.591 -316 573.591M-259.841 629C-235.787 629 -232.037 573.591 -203.632 573.591C-175.228 573.591 -171.477 629 -147.423 629C-123.369 629 -119.619 573.591 -91.2141 573.591C-62.8096 573.591 -59.059 629 -35.0052 629M-35.0553 629C-11.0015 629 -7.25088 573.591 21.1536 573.591C49.5582 573.591 53.3089 629 77.3628 629M77.2626 629C101.316 629 105.067 573.591 133.472 573.591C161.876 573.591 165.627 629 189.68 629M189.28 104.166C213.334 104.166 217.085 48.7576 245.489 48.7576C273.894 48.7576 277.645 104.166 301.698 104.166M189.28 80.1627C213.334 80.1627 217.085 24.8539 245.489 24.8539C273.894 24.8539 277.645 80.1627 301.698 80.1627M189.28 56.1588C213.334 56.1588 217.085 1 245.489 1M189.28 247.289C213.334 247.289 217.085 191.88 245.489 191.88C273.894 191.88 277.645 247.289 301.698 247.289M189.28 223.435C213.334 223.435 217.085 168.027 245.489 168.027C273.894 168.027 277.645 223.435 301.698 223.435M189.28 199.582C213.334 199.582 217.085 144.173 245.489 144.173C273.894 144.173 277.645 199.582 301.698 199.582M189.28 175.728C213.334 175.728 217.085 120.319 245.489 120.319C273.894 120.319 277.645 175.728 301.698 175.728M189.28 151.874C213.334 151.874 217.085 96.4654 245.489 96.4654C273.894 96.4654 277.645 151.874 301.698 151.874M189.28 128.02C213.334 128.02 217.085 72.6115 245.489 72.6115C273.894 72.6115 277.645 128.02 301.698 128.02M301.698 56.1586C277.645 56.1586 273.894 1.04981 245.489 1.04981M301.648 104.166C325.702 104.166 329.453 48.7576 357.857 48.7576C386.262 48.7576 390.013 104.166 414.066 104.166C438.12 104.166 441.871 48.7576 470.275 48.7576C498.68 48.7576 502.43 104.166 526.484 104.166M301.648 80.1627C325.702 80.1627 329.453 24.8539 357.857 24.8539C386.262 24.8539 390.013 80.1627 414.066 80.1627C438.12 80.1627 441.871 24.8539 470.275 24.8539C498.68 24.8539 502.43 80.1627 526.484 80.1627M301.648 56.1588C325.702 56.1588 329.453 1 357.857 1M301.648 247.289C325.702 247.289 329.453 191.88 357.857 191.88C386.262 191.88 390.013 247.289 414.066 247.289C438.12 247.289 441.871 191.88 470.275 191.88C498.68 191.88 502.43 247.289 526.484 247.289M301.648 223.435C325.702 223.435 329.453 168.027 357.857 168.027C386.262 168.027 390.013 223.435 414.066 223.435C438.12 223.435 441.871 168.027 470.275 168.027C498.68 168.027 502.43 223.435 526.484 223.435M301.648 199.582C325.702 199.582 329.453 144.173 357.857 144.173C386.262 144.173 390.013 199.582 414.066 199.582C438.12 199.582 441.871 144.173 470.275 144.173C498.68 144.173 502.43 199.582 526.484 199.582M301.648 175.728C325.702 175.728 329.453 120.319 357.857 120.319C386.262 120.319 390.013 175.728 414.066 175.728C438.12 175.728 441.871 120.319 470.275 120.319C498.68 120.319 502.43 175.728 526.484 175.728M301.648 151.874C325.702 151.874 329.453 96.4654 357.857 96.4654C386.262 96.4654 390.013 151.874 414.066 151.874C438.12 151.874 441.871 96.4654 470.275 96.4654C498.68 96.4654 502.43 151.874 526.484 151.874M301.648 128.02C325.702 128.02 329.453 72.6115 357.857 72.6115C386.262 72.6115 390.013 128.02 414.066 128.02C438.12 128.02 441.871 72.6115 470.275 72.6115C498.68 72.6115 502.43 128.02 526.484 128.02M357.857 1.04981C386.212 1.04981 390.013 56.1586 414.066 56.1586C438.12 56.1586 441.871 1 470.275 1C498.68 1 502.43 56.1588 526.484 56.1588M526.384 104.166C550.438 104.166 554.189 48.7576 582.593 48.7576C610.998 48.7576 614.748 104.166 638.802 104.166C662.856 104.166 666.607 48.7576 695.011 48.7576M526.384 80.1627C550.438 80.1627 554.189 24.8539 582.593 24.8539C610.998 24.8539 614.748 80.1627 638.802 80.1627C662.856 80.1627 666.607 24.8539 695.011 24.8539M526.384 56.1588C550.438 56.1588 554.189 1 582.593 1C610.998 1 614.748 56.1588 638.802 56.1588C662.856 56.1588 666.607 1 695.011 1M526.384 247.289C550.438 247.289 554.189 191.88 582.593 191.88C610.998 191.88 614.748 247.289 638.802 247.289C662.856 247.289 666.607 191.88 695.011 191.88M526.384 223.435C550.438 223.435 554.189 168.027 582.593 168.027C610.998 168.027 614.748 223.435 638.802 223.435C662.856 223.435 666.607 168.027 695.011 168.027M526.384 199.582C550.438 199.582 554.189 144.173 582.593 144.173C610.998 144.173 614.748 199.582 638.802 199.582C662.856 199.582 666.607 144.173 695.011 144.173M526.384 175.728C550.438 175.728 554.189 120.319 582.593 120.319C610.998 120.319 614.748 175.728 638.802 175.728C662.856 175.728 666.607 120.319 695.011 120.319M526.384 151.874C550.438 151.874 554.189 96.4654 582.593 96.4654C610.998 96.4654 614.748 151.874 638.802 151.874C662.856 151.874 666.607 96.4654 695.011 96.4654M526.384 128.02C550.438 128.02 554.189 72.6115 582.593 72.6115C610.998 72.6115 614.748 128.02 638.802 128.02C662.856 128.02 666.607 72.6115 695.011 72.6115M189.28 295.047C213.334 295.047 217.085 239.638 245.489 239.638C273.894 239.638 277.645 295.047 301.698 295.047M301.648 295.047C325.702 295.047 329.453 239.638 357.857 239.638C386.262 239.638 390.013 295.047 414.066 295.047C438.12 295.047 441.871 239.638 470.275 239.638C498.68 239.638 502.43 295.047 526.484 295.047M526.384 295.047C550.438 295.047 554.189 239.638 582.593 239.638C610.998 239.638 614.748 295.047 638.802 295.047C662.856 295.047 666.607 239.638 695.011 239.638M189.28 271.143C213.334 271.143 217.085 215.734 245.489 215.734C273.894 215.734 277.645 271.143 301.698 271.143M301.648 271.143C325.702 271.143 329.453 215.734 357.857 215.734C386.262 215.734 390.013 271.143 414.066 271.143C438.12 271.143 441.871 215.734 470.275 215.734C498.68 215.734 502.43 271.143 526.484 271.143M526.384 271.143C550.438 271.143 554.189 215.734 582.593 215.734C610.998 215.734 614.748 271.143 638.802 271.143C662.856 271.143 666.607 215.734 695.011 215.734M189.28 318.901C213.334 318.901 217.085 263.492 245.489 263.492C273.894 263.492 277.645 318.901 301.698 318.901M301.648 318.901C325.702 318.901 329.453 263.492 357.857 263.492C386.262 263.492 390.013 318.901 414.066 318.901C438.12 318.901 441.871 263.492 470.275 263.492C498.68 263.492 502.43 318.901 526.484 318.901M526.384 318.901C550.438 318.901 554.189 263.492 582.593 263.492C610.998 263.492 614.748 318.901 638.802 318.901C662.856 318.901 666.607 263.492 695.011 263.492M189.28 342.754C213.334 342.754 217.085 287.345 245.489 287.345C273.894 287.345 277.645 342.754 301.698 342.754M301.648 342.754C325.702 342.754 329.453 287.345 357.857 287.345C386.262 287.345 390.013 342.754 414.066 342.754C438.12 342.754 441.871 287.345 470.275 287.345C498.68 287.345 502.43 342.754 526.484 342.754M526.384 342.754C550.438 342.754 554.189 287.345 582.593 287.345C610.998 287.345 614.748 342.754 638.802 342.754C662.856 342.754 666.607 287.345 695.011 287.345M189.28 366.608C213.334 366.608 217.085 311.199 245.489 311.199C273.894 311.199 277.645 366.608 301.698 366.608M301.648 366.608C325.702 366.608 329.453 311.199 357.857 311.199C386.262 311.199 390.013 366.608 414.066 366.608C438.12 366.608 441.871 311.199 470.275 311.199C498.68 311.199 502.43 366.608 526.484 366.608M526.384 366.608C550.438 366.608 554.189 311.199 582.593 311.199C610.998 311.199 614.748 366.608 638.802 366.608C662.856 366.608 666.607 311.199 695.011 311.199M189.28 390.462C213.334 390.462 217.085 335.053 245.489 335.053C273.894 335.053 277.645 390.462 301.698 390.462M301.648 390.462C325.702 390.462 329.453 335.053 357.857 335.053C386.262 335.053 390.013 390.462 414.066 390.462C438.12 390.462 441.871 335.053 470.275 335.053C498.68 335.053 502.43 390.462 526.484 390.462M526.384 390.462C550.438 390.462 554.189 335.053 582.593 335.053C610.998 335.053 614.748 390.462 638.802 390.462C662.856 390.462 666.607 335.053 695.011 335.053M189.28 414.316C213.334 414.316 217.085 358.907 245.489 358.907C273.894 358.907 277.645 414.316 301.698 414.316M301.648 414.316C325.702 414.316 329.453 358.907 357.857 358.907C386.262 358.907 390.013 414.316 414.066 414.316C438.12 414.316 441.871 358.907 470.275 358.907C498.68 358.907 502.43 414.316 526.484 414.316M526.384 414.316C550.438 414.316 554.189 358.907 582.593 358.907C610.998 358.907 614.748 414.316 638.802 414.316C662.856 414.316 666.607 358.907 695.011 358.907M189.28 438.17C213.334 438.17 217.085 382.761 245.489 382.761C273.894 382.761 277.645 438.17 301.698 438.17M301.648 438.17C325.702 438.17 329.453 382.761 357.857 382.761C386.262 382.761 390.013 438.17 414.066 438.17C438.12 438.17 441.871 382.761 470.275 382.761C498.68 382.761 502.43 438.17 526.484 438.17M526.384 438.17C550.438 438.17 554.189 382.761 582.593 382.761C610.998 382.761 614.748 438.17 638.802 438.17C662.856 438.17 666.607 382.761 695.011 382.761M189.28 462.023C213.334 462.023 217.085 406.614 245.489 406.614C273.894 406.614 277.645 462.023 301.698 462.023M301.648 462.023C325.702 462.023 329.453 406.614 357.857 406.614C386.262 406.614 390.013 462.023 414.066 462.023C438.12 462.023 441.871 406.614 470.275 406.614C498.68 406.614 502.43 462.023 526.484 462.023M526.384 462.023C550.438 462.023 554.189 406.614 582.593 406.614C610.998 406.614 614.748 462.023 638.802 462.023C662.856 462.023 666.607 406.614 695.011 406.614M189.28 485.877C213.334 485.877 217.085 430.468 245.489 430.468C273.894 430.468 277.645 485.877 301.698 485.877M301.648 485.877C325.702 485.877 329.453 430.468 357.857 430.468C386.262 430.468 390.013 485.877 414.066 485.877C438.12 485.877 441.871 430.468 470.275 430.468C498.68 430.468 502.43 485.877 526.484 485.877M526.384 485.877C550.438 485.877 554.189 430.468 582.593 430.468C610.998 430.468 614.748 485.877 638.802 485.877C662.856 485.877 666.607 430.468 695.011 430.468M189.28 509.731C213.334 509.731 217.085 454.322 245.489 454.322C273.894 454.322 277.645 509.731 301.698 509.731M301.648 509.731C325.702 509.731 329.453 454.322 357.857 454.322C386.262 454.322 390.013 509.731 414.066 509.731C438.12 509.731 441.871 454.322 470.275 454.322C498.68 454.322 502.43 509.731 526.484 509.731M526.384 509.731C550.438 509.731 554.189 454.322 582.593 454.322C610.998 454.322 614.748 509.731 638.802 509.731C662.856 509.731 666.607 454.322 695.011 454.322M189.28 533.585C213.334 533.585 217.085 478.176 245.489 478.176C273.894 478.176 277.645 533.585 301.698 533.585M301.648 533.585C325.702 533.585 329.453 478.176 357.857 478.176C386.262 478.176 390.013 533.585 414.066 533.585C438.12 533.585 441.871 478.176 470.275 478.176C498.68 478.176 502.43 533.585 526.484 533.585M526.384 533.585C550.438 533.585 554.189 478.176 582.593 478.176C610.998 478.176 614.748 533.585 638.802 533.585C662.856 533.585 666.607 478.176 695.011 478.176M189.28 557.439C213.334 557.439 217.085 502.03 245.489 502.03C273.894 502.03 277.645 557.439 301.698 557.439M301.648 557.439C325.702 557.439 329.453 502.03 357.857 502.03C386.262 502.03 390.013 557.439 414.066 557.439C438.12 557.439 441.871 502.03 470.275 502.03C498.68 502.03 502.43 557.439 526.484 557.439M526.384 557.439C550.438 557.439 554.189 502.03 582.593 502.03C610.998 502.03 614.748 557.439 638.802 557.439C662.856 557.439 666.607 502.03 695.011 502.03M189.28 581.292C213.334 581.292 217.085 525.883 245.489 525.883C273.894 525.883 277.645 581.292 301.698 581.292M301.648 581.292C325.702 581.292 329.453 525.883 357.857 525.883C386.262 525.883 390.013 581.292 414.066 581.292C438.12 581.292 441.871 525.883 470.275 525.883C498.68 525.883 502.43 581.292 526.484 581.292M526.384 581.292C550.438 581.292 554.189 525.883 582.593 525.883C610.998 525.883 614.748 581.292 638.802 581.292C662.856 581.292 666.607 525.883 695.011 525.883M189.28 605.146C213.334 605.146 217.085 549.737 245.489 549.737C273.894 549.737 277.645 605.146 301.698 605.146M301.648 605.146C325.702 605.146 329.453 549.737 357.857 549.737C386.262 549.737 390.013 605.146 414.066 605.146C438.12 605.146 441.871 549.737 470.275 549.737C498.68 549.737 502.43 605.146 526.484 605.146M526.384 605.146C550.438 605.146 554.189 549.737 582.593 549.737C610.998 549.737 614.748 605.146 638.802 605.146C662.856 605.146 666.607 549.737 695.011 549.737M189.28 629C213.334 629 217.085 573.591 245.489 573.591C273.894 573.591 277.645 629 301.698 629M301.648 629C325.702 629 329.453 573.591 357.857 573.591C386.262 573.591 390.013 629 414.066 629C438.12 629 441.871 573.591 470.275 573.591C498.68 573.591 502.43 629 526.484 629M526.384 629C550.438 629 554.189 573.591 582.593 573.591C610.998 573.591 614.748 629 638.802 629C662.856 629 666.607 573.591 695.011 573.591" stroke="#007768" stroke-miterlimit="10"/>
</svg>
